<?xml version="1.0" encoding="utf-8"?>
<!-- Generator: Adobe Illustrator 25.0.0, SVG Export Plug-In . SVG Version: 6.00 Build 0)  -->
<svg version="1.1" id="Layer_1" xmlns="http://www.w3.org/2000/svg" xmlns:xlink="http://www.w3.org/1999/xlink" x="0px" y="0px"
	 viewBox="0 0 1080 1920" style="enable-background:new 0 0 1080 1920;" xml:space="preserve">
<style type="text/css">
	.st0{fill-rule:evenodd;clip-rule:evenodd;fill:#E7DCFF;}
	.st1{fill:none;stroke:#E7DCFF;stroke-width:5;}
	.st2{fill-rule:evenodd;clip-rule:evenodd;fill:#FFFFFF;}
	.st3{fill-rule:evenodd;clip-rule:evenodd;fill:#D1B6FF;}
	.st4{fill-rule:evenodd;clip-rule:evenodd;fill:#DECCFF;}
	.st5{fill-rule:evenodd;clip-rule:evenodd;fill:#F1ECFF;}
	.st6{fill:none;stroke:#F1ECFF;stroke-width:8;}
	.st7{fill:none;stroke:#DECCFF;stroke-width:8;}
	.st8{fill:none;stroke:#E7DCFF;stroke-width:9;}
	.st9{fill-rule:evenodd;clip-rule:evenodd;fill:#E5C7BF;}
	.st10{opacity:0.4003;fill-rule:evenodd;clip-rule:evenodd;enable-background:new    ;}
	.st11{fill-rule:evenodd;clip-rule:evenodd;fill:#5D0B6D;}
	.st12{fill:none;stroke:#322535;stroke-width:4;}
	.st13{fill-rule:evenodd;clip-rule:evenodd;fill:#322535;}
	.st14{fill-rule:evenodd;clip-rule:evenodd;fill:#4F3954;}
	.st15{filter:url(#Adobe_OpacityMaskFilter);}
	.st16{mask:url(#mask-4_2_);fill-rule:evenodd;clip-rule:evenodd;fill:#271629;}
	.st17{filter:url(#Adobe_OpacityMaskFilter_1_);}
	.st18{mask:url(#mask-6_2_);}
	.st19{fill:#3B2F3D;}
	.st20{fill-rule:evenodd;clip-rule:evenodd;fill:#CFB8AE;}
	.st21{filter:url(#Adobe_OpacityMaskFilter_2_);}
	.st22{mask:url(#mask-8_2_);}
	.st23{fill:#CFB8AE;}
	.st24{fill-rule:evenodd;clip-rule:evenodd;fill:#101016;}
	.st25{filter:url(#Adobe_OpacityMaskFilter_3_);}
	.st26{mask:url(#mask-10_2_);}
	.st27{opacity:0.0987;}
	.st28{fill-rule:evenodd;clip-rule:evenodd;fill:#EFEFEF;}
	.st29{filter:url(#Adobe_OpacityMaskFilter_4_);}
	.st30{mask:url(#mask-12_2_);}
	.st31{fill:#CEC0AA;}
	.st32{filter:url(#Adobe_OpacityMaskFilter_5_);}
	.st33{mask:url(#mask-14_2_);}
	.st34{fill:#E5C7BF;}
	.st35{filter:url(#Adobe_OpacityMaskFilter_6_);}
	.st36{mask:url(#mask-16_2_);}
	.st37{fill:#EFEFEF;}
	.st38{opacity:0.2005;fill:none;stroke:#000000;stroke-width:5;enable-background:new    ;}
	.st39{filter:url(#Adobe_OpacityMaskFilter_7_);}
	.st40{mask:url(#mask-18_2_);fill-rule:evenodd;clip-rule:evenodd;fill:#E5C7BF;}
	.st41{filter:url(#Adobe_OpacityMaskFilter_8_);}
	.st42{mask:url(#mask-20_2_);fill-rule:evenodd;clip-rule:evenodd;fill:#020101;}
	.st43{fill-rule:evenodd;clip-rule:evenodd;fill:#020101;}
</style>
<desc>Created with Sketch.</desc>
<g id="Illustration-14" transform="translate(-252.000000, -175.000000)">
	
		<g id="Background-Object-_x2F_-Bedside-table-_x2F_-1" transform="translate(472.500000, 680.000000) scale(-1, 1) translate(-472.500000, -680.000000) translate(0.000000, 55.000000)">
		<g id="Group-39" transform="translate(252.000000, 232.000000)">
			<polygon id="Fill-1" class="st0" points="267.24,573.33 233.67,894.64 -119.96,894.64 -86.39,573.33 			"/>
			<polygon id="Stroke-2" class="st1" points="267.24,573.33 233.67,894.64 -119.96,894.64 -86.39,573.33 			"/>
			<polygon id="Fill-4" class="st2" points="254.73,573.33 221.16,894.64 -139.04,894.64 -105.47,573.33 			"/>
			<polygon id="Stroke-5" class="st1" points="254.73,573.33 221.16,894.64 -139.04,894.64 -105.47,573.33 			"/>
			<polygon id="Fill-7" class="st0" points="179.43,634.77 158.69,833.2 -63.74,833.2 -43.01,634.77 			"/>
			<polygon id="Fill-8" class="st3" points="-233.77,1808.49 392.27,1808.49 392.27,1755.07 -233.77,1755.07 			"/>
			<polygon id="Fill-9" class="st0" points="-250.13,1808.49 -220.15,1808.49 -220.15,1335.62 -250.13,1335.62 			"/>
			<polygon id="Fill-10" class="st0" points="167.4,1808.49 197.73,1808.49 197.73,1335.62 167.4,1335.62 			"/>
			<polygon id="Fill-11" class="st4" points="-250.13,1773.26 -220.15,1773.26 -220.15,1755.07 -250.13,1755.07 			"/>
			<polygon id="Fill-12" class="st4" points="167.4,1773.26 197.73,1773.26 197.73,1755.07 167.4,1755.07 			"/>
			<path id="Fill-13" class="st4" d="M267.69,732.13c6.53,54.35-14.7,100.79-14.7,100.79s-31.81-41.68-38.34-96.03
				c-6.53-54.35,14.7-100.79,14.7-100.79S261.16,677.78,267.69,732.13"/>
			<path id="Fill-15" class="st4" d="M253.92,775.74c28.39,48.82,27.57,98.75,27.57,98.75s-46.83-29.23-75.22-78.05
				c-28.39-48.82-27.57-98.75-27.57-98.75S225.53,726.91,253.92,775.74"/>
			<path id="Fill-17" class="st4" d="M293.88,737.96c-7.26,54.28-39.63,95.64-39.63,95.64s-20.6-46.65-13.34-100.93
				c7.26-54.28,39.63-95.64,39.63-95.64S301.14,683.68,293.88,737.96"/>
			<path id="Fill-19" class="st4" d="M317.51,777.19c-23.37,50.77-67.1,83.41-67.1,83.41s-5.83-49.68,17.55-100.45
				c23.37-50.77,67.1-83.41,67.1-83.41S340.88,726.42,317.51,777.19"/>
			<polygon id="Fill-21" class="st5" points="190.88,791.92 325.04,791.92 310.88,893.21 205.04,893.21 			"/>
			<polygon id="Fill-23" class="st0" points="-265.12,1755.77 213.7,1755.77 213.7,932.73 -265.12,932.73 			"/>
			<polygon id="Fill-25" class="st4" points="-233.77,1714.34 182.35,1714.34 182.35,1592.31 -233.77,1592.31 			"/>
			<polygon id="Fill-26" class="st4" points="-233.77,1559.06 182.35,1559.06 182.35,1437.03 -233.77,1437.03 			"/>
			<polygon id="Fill-27" class="st4" points="-233.77,1403.78 182.35,1403.78 182.35,1281.75 -233.77,1281.75 			"/>
			<polygon id="Fill-28" class="st4" points="-233.77,1248.51 182.35,1248.51 182.35,1126.48 -233.77,1126.48 			"/>
			<polygon id="Fill-29" class="st4" points="-233.77,1093.23 182.35,1093.23 182.35,971.2 -233.77,971.2 			"/>
			<polygon id="Fill-30" class="st3" points="213.7,1755.77 404.59,1755.77 404.59,932.73 213.7,932.73 			"/>
			<polygon id="Fill-31" class="st4" points="-288.99,932.73 233.66,932.73 233.66,893.42 -288.99,893.42 			"/>
			<polygon id="Fill-32" class="st3" points="233.18,932.73 432,932.73 432,893.42 233.18,893.42 			"/>
			<path id="Fill-33" class="st3" d="M-49.81,1032.21c0,12.76,10.79,23.09,24.1,23.09s24.1-10.34,24.1-23.09
				c0-12.76-10.79-23.1-24.1-23.1S-49.81,1019.45-49.81,1032.21"/>
			<path id="Fill-34" class="st3" d="M-49.81,1187.49c0,12.76,10.79,23.1,24.1,23.1s24.1-10.34,24.1-23.1
				c0-12.76-10.79-23.09-24.1-23.09S-49.81,1174.73-49.81,1187.49"/>
			<path id="Fill-35" class="st3" d="M-49.81,1342.77c0,12.76,10.79,23.09,24.1,23.09s24.1-10.34,24.1-23.09
				c0-12.76-10.79-23.1-24.1-23.1S-49.81,1330.01-49.81,1342.77"/>
			<path id="Fill-36" class="st3" d="M-49.81,1498.05c0,12.76,10.79,23.09,24.1,23.09s24.1-10.34,24.1-23.09
				c0-12.76-10.79-23.09-24.1-23.09S-49.81,1485.29-49.81,1498.05"/>
			<path id="Fill-37" class="st3" d="M-49.81,1653.33c0,12.76,10.79,23.09,24.1,23.09s24.1-10.34,24.1-23.09
				c0-12.76-10.79-23.09-24.1-23.09S-49.81,1640.57-49.81,1653.33"/>
		</g>
	</g>
	<g id="Background-Object-_x2F_-Closet-_x2F_-1" transform="translate(945.000000, 0.000000)">
		<g id="Group-36" transform="translate(302.000000, 174.000000)">
			<polygon id="Fill-1_1_" class="st0" points="370.15,1705.96 413.55,1705.96 413.55,1570.85 370.15,1570.85 			"/>
			<polygon id="Fill-2" class="st0" points="731.66,1705.96 775.06,1705.96 775.06,1570.85 731.66,1570.85 			"/>
			<polygon id="Fill-3" class="st3" points="524.09,1705.96 567.49,1705.96 567.49,1570.85 524.09,1570.85 			"/>
			<polygon id="Fill-4_1_" class="st3" points="885.6,1705.96 929,1705.96 929,1570.85 885.6,1570.85 			"/>
			<polygon id="Fill-5" class="st3" points="523.84,1594.82 928.75,1594.82 928.75,447.11 523.84,447.11 			"/>
			<polygon id="Fill-6" class="st0" points="370.97,1594.82 775.88,1594.82 775.88,447.11 370.97,447.11 			"/>
			<path id="Fill-7_1_" class="st0" d="M646.52,369.07c0,32.98-18.18,61.91-45.45,78.04H500.96
				c-27.27-16.13-45.45-45.07-45.45-78.04c0-15.35,3.94-29.79,10.89-42.48h169.24C642.58,339.27,646.52,353.72,646.52,369.07"/>
			<polygon id="Fill-9_1_" class="st0" points="671.91,447.09 713.19,447.09 713.19,296 671.91,296 			"/>
			<polygon id="Fill-11_1_" class="st4" points="630.64,447.09 671.91,447.09 671.91,296 630.64,296 			"/>
			<polygon id="Fill-12_1_" class="st4" points="713.19,447.09 754.47,447.09 754.47,296 713.19,296 			"/>
			<path id="Fill-13_1_" class="st3" d="M865.35,447.09H754.47V296h110.88c4.63,0,8.39,3.6,8.39,8.04v135.02
				C873.74,443.49,869.98,447.09,865.35,447.09"/>
			<polygon id="Fill-14" class="st4" points="790.84,356.05 837.36,356.05 837.36,341.09 790.84,341.09 			"/>
			<polygon id="Fill-15_1_" class="st4" points="407.21,1557 739.79,1557 739.79,1226.66 407.21,1226.66 			"/>
			<polygon id="Fill-16" class="st3" points="407.22,1557 521.95,1557 521.95,1226.66 407.22,1226.66 			"/>
			<polygon id="Fill-17_1_" class="st4" points="407.21,1185.67 739.79,1185.67 739.79,855.33 407.21,855.33 			"/>
			<polygon id="Fill-18" class="st3" points="407.22,1185.67 521.95,1185.67 521.95,855.33 407.22,855.33 			"/>
			<polygon id="Fill-19_1_" class="st4" points="407.21,814.34 739.79,814.34 739.79,484 407.21,484 			"/>
			<polygon id="Fill-20" class="st3" points="407.22,814.34 521.95,814.34 521.95,484 407.22,484 			"/>
			<polygon id="Fill-21_1_" class="st0" points="486.85,1557 519.76,1557 519.76,1436.51 486.85,1436.51 			"/>
			<polygon id="Fill-22" class="st4" points="453.93,1557 486.85,1557 486.85,1436.51 453.93,1436.51 			"/>
			<polygon id="Fill-23_1_" class="st4" points="519.76,1557 552.68,1557 552.68,1436.51 519.76,1436.51 			"/>
			<path id="Fill-24" class="st3" d="M639.4,1557h-86.73v-120.49h86.73c4.63,0,8.39,3.6,8.39,8.04v104.41
				C647.79,1553.4,644.04,1557,639.4,1557"/>
			<polygon id="Fill-25_1_" class="st4" points="566.77,1465.99 633.7,1465.99 633.7,1454.06 566.77,1454.06 			"/>
			<polygon id="Fill-26_1_" class="st4" points="581.69,1484.4 618.78,1484.4 618.78,1472.47 581.69,1472.47 			"/>
			<path id="Fill-27_1_" class="st0" d="M602.06,763.18c-2.55,20.55-13.41,38.67-29.28,51.16H469.03
				c-15.86-12.49-26.73-30.61-29.29-51.16H602.06z"/>
			<path id="Fill-28_1_" class="st0" d="M602.06,720.47c-4.83,38.83-39.32,68.96-81.16,68.96c-41.84,0-76.33-30.13-81.16-68.96
				H602.06z"/>
			<path id="Fill-29_1_" class="st0" d="M602.06,677.83c-2.55,20.55-13.41,38.67-29.28,51.16H469.03
				c-15.86-12.49-26.73-30.61-29.29-51.16H602.06z"/>
			<path id="Fill-30_1_" class="st0" d="M602.06,635.12c-4.83,38.84-39.32,68.97-81.16,68.97c-41.84,0-76.33-30.13-81.16-68.97
				H602.06z"/>
			<path id="Fill-31_1_" class="st5" d="M548.61,1106.31c0,30.24-3.36,57.9-8.97,79.36h-58.79c-5.6-21.45-8.98-49.11-8.98-79.36"/>
			<path id="Stroke-32" class="st6" d="M545.7,1119.6c13.33,2.52,22,14.92,19.37,27.7c-2.63,12.77-15.57,21.09-28.9,18.56"/>
			<path id="Fill-33_1_" class="st5" d="M666.38,1106.31c0,30.24-3.36,57.9-8.97,79.36h-58.79c-5.6-21.45-8.98-49.11-8.98-79.36"/>
			<path id="Stroke-34" class="st6" d="M650.73,1119.6c13.33,2.52,22,14.92,19.37,27.7c-2.63,12.77-15.57,21.09-28.9,18.56"/>
		</g>
	</g>
	
		<g id="Background-Object-_x2F_-Clock" transform="translate(905.000000, 308.000000) scale(-1, 1) translate(-905.000000, -308.000000) translate(655.000000, 133.000000)">
		<g id="Group-14" transform="translate(172.000000, 104.000000)">
			<path id="Fill-1_2_" class="st4" d="M49.85,541.65c0,61.25-51.82,110.91-115.75,110.91c-63.92,0-115.74-49.66-115.74-110.91
				c0-61.26,51.82-110.91,115.74-110.91C-1.97,430.74,49.85,480.4,49.85,541.65"/>
			<path id="Fill-4_2_" class="st0" d="M27.16,541.65c0,61.25-51.82,110.91-115.75,110.91s-115.74-49.66-115.74-110.91
				c0-61.26,51.82-110.91,115.74-110.91S27.16,480.4,27.16,541.65"/>
			<path id="Fill-6_1_" class="st4" d="M-0.88,541.65c0,43.29-34.15,78.93-78.03,83.55c-3.18,0.34-6.41,0.5-9.68,0.5
				c-48.45,0-87.72-37.63-87.72-84.06c0-46.41,39.27-84.04,87.72-84.04c3.27,0,6.49,0.17,9.68,0.51
				C-35.02,462.73-0.88,498.37-0.88,541.65"/>
			<path id="Fill-8_1_" class="st5" d="M-0.88,541.65c0,43.29-34.15,78.93-78.03,83.55c-43.9-4.62-78.04-40.26-78.04-83.55
				c0-43.28,34.15-78.91,78.04-83.53C-35.02,462.73-0.88,498.37-0.88,541.65"/>
			<path id="Stroke-10" class="st7" d="M-84.78,494.92l28.42,59.39"/>
			<path id="Stroke-12" class="st7" d="M-53.65,529.41l-62.25,64.84"/>
		</g>
	</g>
	<g id="Background-Object-_x2F_-Picture-_x2F_-1" transform="translate(878.000000, 73.000000)">
		<g id="Group-8" transform="translate(183.000000, 122.000000)">
			<polygon id="Fill-1_3_" class="st0" points="431.78,508.09 636.66,508.09 636.66,343.13 431.78,343.13 			"/>
			<polygon id="Stroke-2_1_" class="st1" points="431.78,508.09 636.66,508.09 636.66,343.13 431.78,343.13 			"/>
			<polygon id="Fill-4_3_" class="st2" points="419.73,508.31 624.61,508.31 624.61,343.35 419.73,343.35 			"/>
			<polygon id="Stroke-5_1_" class="st1" points="419.73,508.31 624.61,508.31 624.61,343.35 419.73,343.35 			"/>
			<polygon id="Fill-7_2_" class="st0" points="454.63,474.23 586.79,474.23 586.79,376.99 454.63,376.99 			"/>
		</g>
	</g>
	<g id="Background-Object-_x2F_-Picture-_x2F_-2" transform="translate(876.000000, 230.000000)">
		<g id="Group-8_1_" transform="translate(184.000000, 93.000000)">
			<polygon id="Fill-1_4_" class="st0" points="355.74,647.53 560.62,647.53 560.62,392.75 355.74,392.75 			"/>
			<polygon id="Stroke-2_2_" class="st1" points="355.74,647.53 560.62,647.53 560.62,392.75 355.74,392.75 			"/>
			<polygon id="Fill-4_4_" class="st2" points="345.1,647.53 545.99,647.53 545.99,392.75 345.1,392.75 			"/>
			<polygon id="Stroke-5_2_" class="st1" points="345.1,647.53 545.99,647.53 545.99,392.75 345.1,392.75 			"/>
			<polygon id="Fill-7_3_" class="st0" points="386.92,599.43 494.91,599.43 494.91,440.39 386.92,440.39 			"/>
		</g>
	</g>
	<g id="Background-Object-_x2F_-Flower-_x2F_-1" transform="translate(486.000000, 500.000000)">
		<g id="Group-24" transform="translate(362.000000, 135.000000)">
			<path id="Fill-1_5_" class="st4" d="M348.08,847.71c0,47.9-30.39,86.73-67.88,86.73s-67.88-38.83-67.88-86.73
				c0-47.9,30.39-86.73,67.88-86.73S348.08,799.81,348.08,847.71"/>
			<path id="Stroke-3" class="st8" d="M280.71,1303.23V852.12"/>
			<path id="Fill-5_1_" class="st4" d="M207.6,975.11c32.05,30.72,38.55,74.29,14.51,97.33c-24.04,23.04-69.52,16.81-101.57-13.9
				c-32.05-30.72-38.55-74.29-14.51-97.33C130.07,938.17,175.55,944.4,207.6,975.11"/>
			<path id="Fill-8_2_" class="st4" d="M436.48,1038.22c25.85,24.77,18.86,71.62-15.6,104.65c-34.46,33.02-83.36,39.72-109.21,14.95
				"/>
			<path id="Stroke-10_1_" class="st8" d="M401.66,1081.85l-118.94,114.3"/>
			<path id="Stroke-12_1_" class="st8" d="M367.29,972.55l-86.92,82.31"/>
			<path id="Stroke-14" class="st8" d="M190.11,1153.23l90.81,87.99"/>
			<path id="Stroke-16" class="st8" d="M158.81,1012.37l121.39,117.7"/>
			<path id="Fill-18_1_" class="st5" d="M317.11,1458.16h-72.8c-55.92,0-101.66-43.84-101.66-97.42v-91.67h276.13v91.67
				C418.77,1414.32,373.02,1458.16,317.11,1458.16"/>
			<path id="Stroke-20" class="st8" d="M418.77,1320.02H142.64"/>
			<path id="Stroke-22" class="st8" d="M418.77,1371.13H142.64"/>
		</g>
	</g>
	<g id="Person-_x2F_-Man-_x2F_-7" transform="translate(447.000000, 330.000000)">
		<g id="Man-_x2F_-Head-_x2F_-7" transform="translate(245.000000, 69.000000)">
			<g id="Group-25" transform="translate(38.000000, 42.000000)">
				<g id="Face-color" transform="translate(-0.000186, 32.602799)">
					<g id="Mask">
						<path id="path-1_1_" class="st9" d="M157.6,646.68l-1.41-46.53c0,0,59.09,4.5,71.73-1.78c0,0,15.45-76.17-2.98-118.35
							l-0.37-1.64L99.88,464.41l-7.76,67.65c-4.2-11.85-38.09-24.47-47.16-7.49c-19.64,36.79,50.57,61.56,50.57,61.56l-7.13,61.11"
							/>
					</g>
				</g>
				<polygon id="Fill-4_5_" class="st10" points="156.2,632.75 116.35,624.57 156,650.21 				"/>
				<polygon id="Fill-6_2_" class="st9" points="189.06,556.71 202.83,588.92 186.33,589.12 				"/>
				<path id="Fill-8_3_" class="st11" d="M173.36,565.86c0.82,4.34-2.19,8.49-6.72,9.27c-4.53,0.79-8.87-2.1-9.69-6.43
					c-0.82-4.34,2.19-8.49,6.72-9.28C168.2,558.64,172.54,561.52,173.36,565.86"/>
				<path id="Fill-10_1_" class="st11" d="M216.66,565.86c0.82,4.34-2.19,8.49-6.72,9.27c-4.53,0.79-8.87-2.1-9.69-6.43
					c-0.82-4.34,2.19-8.49,6.72-9.28C211.51,558.64,215.84,561.52,216.66,565.86"/>
				<g id="Group-15" transform="translate(79.675676, 96.806371)">
					<path id="Fill-12_2_" class="st2" d="M92.27,501.44c0,0,5.77,8.95,17.19,8.19"/>
					<path id="Stroke-14_1_" class="st12" d="M92.27,501.44c0,0,5.77,8.95,17.19,8.19"/>
				</g>
				<path id="Path" class="st13" d="M92.88,565.38c-9.31-9.24-19.44-13.15-25.59-14.78l1.17-23.31l58.57-9.77
					C123,543.53,107.32,557.72,92.88,565.38L92.88,565.38z"/>
				<g id="Ear-color" transform="translate(9.959459, 66.005988)">
				</g>
				<path id="Fill-18_2_" class="st14" d="M228.4,521.71c-5.28-4.8-39.67-6.29-81.01-3.25c-9.62,0.71-18.83,1.6-27.36,2.64
					c-28.18,3.39-48.92,8.21-52.29,12.44c-3.74-52.95,30.14-84.48,74.5-87.41c29.1-1.93,55.5,8.94,71.3,31.59
					C221.62,489.33,226.94,504.04,228.4,521.71"/>
				<g id="Group-24_1_" transform="translate(47.986486, 19.045892)">
					<g id="Clip-23">
					</g>
					<defs>
						<filter id="Adobe_OpacityMaskFilter" filterUnits="userSpaceOnUse" x="72.04" y="457.52" width="140.48" height="46.2">
							<feColorMatrix  type="matrix" values="1 0 0 0 0  0 1 0 0 0  0 0 1 0 0  0 0 0 1 0"/>
						</filter>
					</defs>
					<mask maskUnits="userSpaceOnUse" x="72.04" y="457.52" width="140.48" height="46.2" id="mask-4_2_">
						<g class="st15">
							<polygon id="path-3_2_" class="st2" points="72.04,457.52 212.53,457.52 212.53,503.72 72.04,503.72 							"/>
						</g>
					</mask>
					<path id="Fill-22_1_" class="st16" d="M181.08,503.72h-0.01c-0.06-0.37-0.28-0.72-0.65-1.05c-5.28-4.8-39.67-6.29-81.01-3.25
						c-9.62,0.71-18.83,1.6-27.36,2.64c12.13-11.03,34.31-28.46,60.47-36.28c11.19-3.34,22.54-5.78,33.03-7.1
						c25.47-3.23,45.91,0.09,46.93,12.74C213.8,487.89,185.48,501.68,181.08,503.72"/>
				</g>
			</g>
		</g>
		<g id="Man-_x2F_-Legs-_x2F_-7" transform="translate(53.000000, 249.000000)">
			<g id="Group-21" transform="translate(84.000000, 181.237430)">
				<g id="Shoes" transform="translate(0.000000, 314.077678)">
					<g id="Mask_1_">
						<path id="path-5_1_" class="st11" d="M422.35,936.26l9.96,30.75c0,0,77.8-30.57,117.82-18.97l-134.86,74.81l-35.11-84.45
							L422.35,936.26z M58.65,843.98l-43.63,38.3c0,0,6.48,25.49,9.21,49.53c3.95,34.8,1.52,66.21,1.52,66.21l-75.63-126.41
							l93.37-66.38L58.65,843.98z"/>
					</g>
					<defs>
						<filter id="Adobe_OpacityMaskFilter_1_" filterUnits="userSpaceOnUse" x="-74.23" y="829.33" width="624.83" height="194.35">
							<feColorMatrix  type="matrix" values="1 0 0 0 0  0 1 0 0 0  0 0 1 0 0  0 0 0 1 0"/>
						</filter>
					</defs>
					<mask maskUnits="userSpaceOnUse" x="-74.23" y="829.33" width="624.83" height="194.35" id="mask-6_2_">
						<g class="st17">
							<path id="path-5_3_" class="st2" d="M422.35,936.26l9.96,30.75c0,0,77.8-30.57,117.82-18.97l-134.86,74.81l-35.11-84.45
								L422.35,936.26z M58.65,843.98l-43.63,38.3c0,0,6.48,25.49,9.21,49.53c3.95,34.8,1.52,66.21,1.52,66.21l-75.63-126.41
								l93.37-66.38L58.65,843.98z"/>
						</g>
					</mask>
					<g id="Colors-_x2F_-Wear-_x2F_-Dark-Grey" class="st18">
						<g id="Color" transform="translate(-14.019048, 15.376809)">
							<rect x="-60.21" y="813.96" class="st19" width="624.83" height="194.35"/>
						</g>
					</g>
				</g>
				<g id="Legs-skin" transform="translate(24.533333, 314.054494)">
					<g id="Mask_2_">
						<path id="path-7_1_" class="st20" d="M357.87,945.08l41.71-3.6l8.21,25.55l-34.52,13.78L357.87,945.08z M18.33,805.22
							l4.8,48.54L-9.51,882.3l-25.91-38.15L18.33,805.22z"/>
					</g>
					<defs>
						<filter id="Adobe_OpacityMaskFilter_2_" filterUnits="userSpaceOnUse" x="-54.34" y="829.36" width="493.97" height="152.03">
							<feColorMatrix  type="matrix" values="1 0 0 0 0  0 1 0 0 0  0 0 1 0 0  0 0 0 1 0"/>
						</filter>
					</defs>
					<mask maskUnits="userSpaceOnUse" x="-54.34" y="829.36" width="493.97" height="152.03" id="mask-8_2_">
						<g class="st21">
							<path id="path-7_3_" class="st2" d="M357.87,945.08l41.71-3.6l8.21,25.55l-34.52,13.78L357.87,945.08z M18.33,805.22
								l4.8,48.54L-9.51,882.3l-25.91-38.15L18.33,805.22z"/>
						</g>
					</mask>
					<g id="Colors-_x2F_-Skin-_x2F_-Pink" class="st22">
						<g id="Color_1_" transform="translate(-11.390476, 15.399993)">
							<rect x="-42.95" y="813.96" class="st23" width="493.97" height="152.03"/>
						</g>
					</g>
				</g>
				<g id="Pants" transform="translate(28.547074, 0.000000)">
					<g id="Mask_3_">
						<path id="path-9_1_" class="st24" d="M183.64,799.65l-55.39-172.61H270.4l74.83,0c0.14,42.22-5.05,111.77-32.52,190.96
							l87.22,393.66c1.08,4.94-0.75,9.88-4.47,13.07l13.25,45.09l-54.17,15.11l-12.9-42.02l-0.34,0.11
							c-7.68,2.43-15.95-1.65-18.32-9.03l-86.18-268.57c-9.72,13.73-20.31,27.43-31.82,41.04
							c-72.88,86.14-118.29,132.6-141.65,154.95c-8.34,7.99-21.31,8.38-30.11,1.85l-33.31,26.28l-33.07-43.6l32.92-25.98
							c-5.28-8.11-4.41-18.65,2.34-25.84C35.66,1058.25,130.12,948.65,183.64,799.65L183.64,799.65z"/>
					</g>
					<defs>
						<filter id="Adobe_OpacityMaskFilter_3_" filterUnits="userSpaceOnUse" x="-32.42" y="627.04" width="456.35" height="662.99">
							<feColorMatrix  type="matrix" values="1 0 0 0 0  0 1 0 0 0  0 0 1 0 0  0 0 0 1 0"/>
						</filter>
					</defs>
					<mask maskUnits="userSpaceOnUse" x="-32.42" y="627.04" width="456.35" height="662.99" id="mask-10_2_">
						<g class="st25">
							<path id="path-9_3_" class="st2" d="M183.64,799.65l-55.39-172.61H270.4l74.83,0c0.14,42.22-5.05,111.77-32.52,190.96
								l87.22,393.66c1.08,4.94-0.75,9.88-4.47,13.07l13.25,45.09l-54.17,15.11l-12.9-42.02l-0.34,0.11
								c-7.68,2.43-15.95-1.65-18.32-9.03l-86.18-268.57c-9.72,13.73-20.31,27.43-31.82,41.04
								c-72.88,86.14-118.29,132.6-141.65,154.95c-8.34,7.99-21.31,8.38-30.11,1.85l-33.31,26.28l-33.07-43.6l32.92-25.98
								c-5.28-8.11-4.41-18.65,2.34-25.84C35.66,1058.25,130.12,948.65,183.64,799.65L183.64,799.65z"/>
						</g>
					</mask>
					<g id="Colors-_x2F_-Wear-_x2F_-Dark-Grey_1_" class="st26">
						<g id="Color_2_" transform="translate(0.452926, 0.000000)">
							<rect x="-32.87" y="627.04" class="st19" width="456.35" height="662.99"/>
						</g>
					</g>
				</g>
				<g id="Overlay" transform="translate(127.222682, 0.000261)" class="st27">
					<path id="Mask_4_" class="st2" d="M242.96,1242.92l-0.34,0.11c-7.68,2.43-15.95-1.65-18.32-9.03l-86.18-268.57L84.96,799.65
						L29.57,627.04h142.16L214.03,818l87.22,393.66c1.08,4.94-0.75,9.88-4.47,13.07l13.25,45.09l-54.17,15.11L242.96,1242.92z"/>
				</g>
				<g id="Pants-line" transform="translate(148.663063, 0.000000)">
					<g id="Mask_5_">
						<polygon id="path-11_1_" class="st28" points="250.58,1232.48 227.76,1240.24 136.21,936.07 79.73,748.43 43.2,627.04 
							89.5,627.04 97.64,657.65 160.38,893.42 						"/>
					</g>
					<defs>
						<filter id="Adobe_OpacityMaskFilter_4_" filterUnits="userSpaceOnUse" x="43.67" y="627.04" width="206.1" height="612.84">
							<feColorMatrix  type="matrix" values="1 0 0 0 0  0 1 0 0 0  0 0 1 0 0  0 0 0 1 0"/>
						</filter>
					</defs>
					<mask maskUnits="userSpaceOnUse" x="43.67" y="627.04" width="206.1" height="612.84" id="mask-12_2_">
						<g class="st29">
							<polygon id="path-11_3_" class="st2" points="250.58,1232.48 227.76,1240.24 136.21,936.07 79.73,748.43 43.2,627.04 
								89.5,627.04 97.64,657.65 160.38,893.42 							"/>
						</g>
					</mask>
					<g id="Colors-_x2F_-Wear-_x2F_-Red" class="st30">
						<g id="Color_3_" transform="translate(0.289318, 0.000000)">
							<rect x="43.38" y="627.04" class="st31" width="206.1" height="612.84"/>
						</g>
					</g>
				</g>
			</g>
		</g>
		<g id="Man-_x2F_-Body-_x2F_-5" transform="translate(186.000000, 212.000000)">
			<g id="Group-36_1_" transform="translate(17.000000, 20.876833)">
				<g id="Skin-color" transform="translate(0.000000, 20.766168)">
					<g id="Mask_6_">
						<path id="path-13_1_" class="st9" d="M457.17,629.87c-18.05,33.97-81.42,145.46-126.6,127.68
							c-33.82-13.32-74.32-123.71-74.32-123.71l65.82-37.54l29.58,75.86l60.39-62.87c-2.05-12.46-3.69-28.74,0.39-34.48
							c6.96-9.77,42.17-39.88,42.17-39.88l6.41,51.01l1.12-4.3c0-0.24,0.06-0.5,0.19-0.78c0.01-0.03,0.02-0.05,0.04-0.08l2.59-9.95
							c-1.09-0.53-1.53-1.28-1.06-2.31c0.38-0.84,1.21-1.77,2.38-2.74l8.85-33.98c0,0,2.9,1.24,7.16,3.09
							c6.85-1.35,31.65,14.8,32.03,15.05l0,0c5.05,3.13-6.96,54.79-16.72,64.38C490.66,621.15,469.07,627.04,457.17,629.87
							L457.17,629.87z M53.93,860.23l4.03,7.33c0,0,3.65,5.99,7.47,16.45c3.82,10.46,2.23,16.86,10.5,33.29
							c9.38,18.65-7.4,10.96-13.41,2.82c-4.7-6.35-4.16-14.94-10.25-18.79c-2.04,3.12-6.7,7.58-9.3,34.49
							c-0.47,4.83,1.82,20.48,1.82,20.48c0.05,4.69,0.68,14.47-4.9,15.96c-1.38,0.37-3.18-1.09-3.18-1.09s0.54,6.12-5.15,7.34
							c-2.24,0.48-6.69-12.74-6.69-12.74s-0.68,6.71-4.93,7.46c-1.2,0.21-15.4-38.08-15.4-38.08l0.85,8.65l1.88,8.86
							c0,0-0.15,4.77-4.15,5.61c-1.59,0.33-4.63-7.62-7.49-16.97c-4.44-14.56-4.35-25.49-3.04-36.37
							c1.58-13.14,0.88-17.56,6.98-33.68c0.73-1.93,1.71-4.14,2.8-6.42C-0.97,837.11-10.41,756-9.25,731.1
							c1.4-30.21,34.8-97.26,34.8-97.26l67.8,36.32l-37.37,65.25L53.93,860.23L53.93,860.23z M216.14,559.77
							c-39.27-2.21-55.84-25.6-59.62-31.93c24.92-1.65,27.52-1.41,60.71,1.89c13.46,1.34,22.9,4.08,32.05,6.48
							C251.26,542.65,254.07,561.89,216.14,559.77z"/>
					</g>
					<defs>
						<filter id="Adobe_OpacityMaskFilter_5_" filterUnits="userSpaceOnUse" x="-9.35" y="527.02" width="525.05" height="451.4">
							<feColorMatrix  type="matrix" values="1 0 0 0 0  0 1 0 0 0  0 0 1 0 0  0 0 0 1 0"/>
						</filter>
					</defs>
					<mask maskUnits="userSpaceOnUse" x="-9.35" y="527.02" width="525.05" height="451.4" id="mask-14_2_">
						<g class="st32">
							<path id="path-13_3_" class="st2" d="M457.17,629.87c-18.05,33.97-81.42,145.46-126.6,127.68
								c-33.82-13.32-74.32-123.71-74.32-123.71l65.82-37.54l29.58,75.86l60.39-62.87c-2.05-12.46-3.69-28.74,0.39-34.48
								c6.96-9.77,42.17-39.88,42.17-39.88l6.41,51.01l1.12-4.3c0-0.24,0.06-0.5,0.19-0.78c0.01-0.03,0.02-0.05,0.04-0.08l2.59-9.95
								c-1.09-0.53-1.53-1.28-1.06-2.31c0.38-0.84,1.21-1.77,2.38-2.74l8.85-33.98c0,0,2.9,1.24,7.16,3.09
								c6.85-1.35,31.65,14.8,32.03,15.05l0,0c5.05,3.13-6.96,54.79-16.72,64.38C490.66,621.15,469.07,627.04,457.17,629.87
								L457.17,629.87z M53.93,860.23l4.03,7.33c0,0,3.65,5.99,7.47,16.45c3.82,10.46,2.23,16.86,10.5,33.29
								c9.38,18.65-7.4,10.96-13.41,2.82c-4.7-6.35-4.16-14.94-10.25-18.79c-2.04,3.12-6.7,7.58-9.3,34.49
								c-0.47,4.83,1.82,20.48,1.82,20.48c0.05,4.69,0.68,14.47-4.9,15.96c-1.38,0.37-3.18-1.09-3.18-1.09s0.54,6.12-5.15,7.34
								c-2.24,0.48-6.69-12.74-6.69-12.74s-0.68,6.71-4.93,7.46c-1.2,0.21-15.4-38.08-15.4-38.08l0.85,8.65l1.88,8.86
								c0,0-0.15,4.77-4.15,5.61c-1.59,0.33-4.63-7.62-7.49-16.97c-4.44-14.56-4.35-25.49-3.04-36.37
								c1.58-13.14,0.88-17.56,6.98-33.68c0.73-1.93,1.71-4.14,2.8-6.42C-0.97,837.11-10.41,756-9.25,731.1
								c1.4-30.21,34.8-97.26,34.8-97.26l67.8,36.32l-37.37,65.25L53.93,860.23L53.93,860.23z M216.14,559.77
								c-39.27-2.21-55.84-25.6-59.62-31.93c24.92-1.65,27.52-1.41,60.71,1.89c13.46,1.34,22.9,4.08,32.05,6.48
								C251.26,542.65,254.07,561.89,216.14,559.77z"/>
						</g>
					</mask>
					<g id="Colors-_x2F_-Skin-_x2F_-Rose" class="st33">
						<g id="Color_4_" transform="translate(0.000000, 0.110665)">
							<rect x="-9.35" y="526.91" class="st34" width="525.05" height="451.4"/>
						</g>
					</g>
				</g>
				<g id="T-Shirt" transform="translate(17.000000, 20.876833)">
					<g id="Mask_7_">
						<path id="path-15_1_" class="st9" d="M311,595.42l0.23-0.04l26.75,58.93l-38.18,21.32l-7.97,128.66H74.31l-3.65-126.88
							L1.88,628.13c0,0,32.44-62.33,87.93-87.13c17.94-8.02,34.4-11.81,49.71-13.26c1.26-0.12,0.26-0.09,0.42,0.48
							c0.09,0.32,0.39,0.8,0.74,1.35c0.35,0.54,0.35,0.37,2.07,2.8c1.72,2.44,4.28,4.86,8.13,8.63c3.19,3.12,7.61,6.18,11.94,8.5
							c4.93,2.64,9.77,4.4,12.87,5.65c2.8,1.13,5.16,1.72,7.45,2.24c6.45,1.47,11.47,1.92,21.71,2.43c1.24,0.06,8.44-0.45,9.71-0.69
							c1.81-0.34,3.42-0.65,5.46-1.19c2.04-0.53,7.12-2.8,10.47-6.8c1.42-1.7,2.78-7.27,2.36-11.38c-0.42-4.11-2.29-4.12-0.58-3.67
							c30.05,7.84,58.44,24,75.04,52.65C308.66,591.06,309.89,593.28,311,595.42z"/>
					</g>
					<defs>
						<filter id="Adobe_OpacityMaskFilter_6_" filterUnits="userSpaceOnUse" x="1.46" y="526.91" width="336.95" height="277.42">
							<feColorMatrix  type="matrix" values="1 0 0 0 0  0 1 0 0 0  0 0 1 0 0  0 0 0 1 0"/>
						</filter>
					</defs>
					<mask maskUnits="userSpaceOnUse" x="1.46" y="526.91" width="336.95" height="277.42" id="mask-16_2_">
						<g class="st35">
							<path id="path-15_3_" class="st2" d="M311,595.42l0.23-0.04l26.75,58.93l-38.18,21.32l-7.97,128.66H74.31l-3.65-126.88
								L1.88,628.13c0,0,32.44-62.33,87.93-87.13c17.94-8.02,34.4-11.81,49.71-13.26c1.26-0.12,0.26-0.09,0.42,0.48
								c0.09,0.32,0.39,0.8,0.74,1.35c0.35,0.54,0.35,0.37,2.07,2.8c1.72,2.44,4.28,4.86,8.13,8.63c3.19,3.12,7.61,6.18,11.94,8.5
								c4.93,2.64,9.77,4.4,12.87,5.65c2.8,1.13,5.16,1.72,7.45,2.24c6.45,1.47,11.47,1.92,21.71,2.43
								c1.24,0.06,8.44-0.45,9.71-0.69c1.81-0.34,3.42-0.65,5.46-1.19c2.04-0.53,7.12-2.8,10.47-6.8c1.42-1.7,2.78-7.27,2.36-11.38
								c-0.42-4.11-2.29-4.12-0.58-3.67c30.05,7.84,58.44,24,75.04,52.65C308.66,591.06,309.89,593.28,311,595.42z"/>
						</g>
					</mask>
					<g id="Colors-_x2F_-Wear-_x2F_-White" class="st36">
						<rect id="Color_5_" x="1.46" y="526.91" class="st37" width="336.95" height="277.42"/>
					</g>
				</g>
				<polyline id="Stroke-16_1_" class="st38" points="87.66,698.28 105.1,709.59 147.04,662.93 				"/>
				<g id="Group-22" transform="translate(270.000000, 0.760513)">
					<g id="Clip-21">
					</g>
					<defs>
						<filter id="Adobe_OpacityMaskFilter_7_" filterUnits="userSpaceOnUse" x="163.74" y="515.86" width="72.43" height="113.42">
							<feColorMatrix  type="matrix" values="1 0 0 0 0  0 1 0 0 0  0 0 1 0 0  0 0 0 1 0"/>
						</filter>
					</defs>
					<mask maskUnits="userSpaceOnUse" x="163.74" y="515.86" width="72.43" height="113.42" id="mask-18_2_">
						<g class="st39">
							<polygon id="path-17_2_" class="st2" points="163.74,515.86 236.17,515.86 236.17,629.28 163.74,629.28 							"/>
						</g>
					</mask>
					<path id="Fill-20_1_" class="st40" d="M215.99,615.03l-3.04,14.25h-49.22l23.22-113.42h49.22c-1.28,6.23-4.28,20.91-9.01,44.04
						l-9.68-4.29l-3.01-0.8l-2.37,0.13l-1.03,0.67v2.76l10.52,14.46l-8.05,3.35l-12.38,6.21l-3.58,2.37l-1.39,1.23l-1.13,0.97
						l-0.72,0.83l-0.43,0.74l-0.19,0.97l0.19,0.43l0.22,0.33l0.31,0.3l4.06,1.37l9.26-2.42h9.15l-12.21,2.42l-8.05,4.6l-2.73,2.46
						l-1.55,1.81v1.66l2.7,1.16l17.03-1.87l-5.64,2.93l-3.74,2.21l-3.43,1.69l-2.65,3.27v1.61l0.94,0.95l2.38,1.21h3.63h7.31
						L215.99,615.03z"/>
				</g>
				<g id="Group-25_1_" transform="translate(265.000000, 0.760513)">
					<g id="Clip-24">
					</g>
					<defs>
						<filter id="Adobe_OpacityMaskFilter_8_" filterUnits="userSpaceOnUse" x="160.59" y="515.86" width="31.36" height="113.42">
							<feColorMatrix  type="matrix" values="1 0 0 0 0  0 1 0 0 0  0 0 1 0 0  0 0 0 1 0"/>
						</filter>
					</defs>
					<mask maskUnits="userSpaceOnUse" x="160.59" y="515.86" width="31.36" height="113.42" id="mask-20_2_">
						<g class="st41">
							<polygon id="path-19_2_" class="st2" points="160.59,515.86 191.94,515.86 191.94,629.28 160.59,629.28 							"/>
						</g>
					</mask>
					<polygon id="Fill-23_2_" class="st42" points="168.73,629.28 160.59,629.28 183.8,515.86 191.94,515.86 					"/>
				</g>
				<path id="Fill-34_1_" class="st43" d="M465.42,529.79c-0.68,3.31-2.7,5.73-4.5,5.39c-1.81-0.34-2.72-3.3-2.04-6.61
					c0.68-3.31,2.7-5.73,4.5-5.39C465.19,523.52,466.1,526.48,465.42,529.79"/>
			</g>
		</g>
	</g>
</g>
</svg>
