<?xml version="1.0" encoding="utf-8"?>
<!-- Generator: Adobe Illustrator 25.0.0, SVG Export Plug-In . SVG Version: 6.00 Build 0)  -->
<svg version="1.1" id="Layer_1" xmlns="http://www.w3.org/2000/svg" xmlns:xlink="http://www.w3.org/1999/xlink" x="0px" y="0px"
	 viewBox="0 0 1080 900" style="enable-background:new 0 0 1080 900;" xml:space="preserve">
<style type="text/css">
	.st0{fill-rule:evenodd;clip-rule:evenodd;fill:#E7DCFF;}
	.st1{fill:none;stroke:#E7DCFF;stroke-width:5;}
	.st2{fill-rule:evenodd;clip-rule:evenodd;fill:#FFFFFF;}
	.st3{fill-rule:evenodd;clip-rule:evenodd;fill:#D1B6FF;}
	.st4{fill-rule:evenodd;clip-rule:evenodd;fill:#DECCFF;}
	.st5{fill-rule:evenodd;clip-rule:evenodd;fill:#F1ECFF;}
	.st6{fill:none;stroke:#F1ECFF;stroke-width:8;}
	.st7{fill:none;stroke:#DECCFF;stroke-width:8;}
	.st8{fill:none;stroke:#E7DCFF;stroke-width:9;}
	.st9{fill-rule:evenodd;clip-rule:evenodd;fill:#E5C7BF;}
	.st10{opacity:0.4003;fill-rule:evenodd;clip-rule:evenodd;enable-background:new    ;}
	.st11{fill-rule:evenodd;clip-rule:evenodd;fill:#5D0B6D;}
	.st12{fill:none;stroke:#322535;stroke-width:4;}
	.st13{fill-rule:evenodd;clip-rule:evenodd;fill:#322535;}
	.st14{fill-rule:evenodd;clip-rule:evenodd;fill:#4F3954;}
	.st15{filter:url(#Adobe_OpacityMaskFilter);}
	.st16{mask:url(#mask-4_1_);fill-rule:evenodd;clip-rule:evenodd;fill:#271629;}
	.st17{filter:url(#Adobe_OpacityMaskFilter_1_);}
	.st18{mask:url(#mask-6_1_);}
	.st19{fill:#3B2F3D;}
	.st20{fill-rule:evenodd;clip-rule:evenodd;fill:#CFB8AE;}
	.st21{filter:url(#Adobe_OpacityMaskFilter_2_);}
	.st22{mask:url(#mask-8_1_);}
	.st23{fill:#CFB8AE;}
	.st24{fill-rule:evenodd;clip-rule:evenodd;fill:#101016;}
	.st25{filter:url(#Adobe_OpacityMaskFilter_3_);}
	.st26{mask:url(#mask-10_1_);}
	.st27{opacity:0.0987;}
	.st28{fill-rule:evenodd;clip-rule:evenodd;fill:#EFEFEF;}
	.st29{filter:url(#Adobe_OpacityMaskFilter_4_);}
	.st30{mask:url(#mask-12_1_);}
	.st31{fill:#CEC0AA;}
	.st32{filter:url(#Adobe_OpacityMaskFilter_5_);}
	.st33{mask:url(#mask-14_1_);}
	.st34{fill:#E5C7BF;}
	.st35{filter:url(#Adobe_OpacityMaskFilter_6_);}
	.st36{mask:url(#mask-16_1_);}
	.st37{fill:#EFEFEF;}
	.st38{opacity:0.2005;fill:none;stroke:#000000;stroke-width:5;enable-background:new    ;}
	.st39{filter:url(#Adobe_OpacityMaskFilter_7_);}
	.st40{mask:url(#mask-18_1_);fill-rule:evenodd;clip-rule:evenodd;fill:#E5C7BF;}
	.st41{filter:url(#Adobe_OpacityMaskFilter_8_);}
	.st42{mask:url(#mask-20_1_);fill-rule:evenodd;clip-rule:evenodd;fill:#020101;}
	.st43{fill-rule:evenodd;clip-rule:evenodd;fill:#020101;}
</style>
<desc>Created with Sketch.</desc>
<g id="Illustration-14" transform="translate(-252.000000, -175.000000)">
	
		<g id="Background-Object-_x2F_-Bedside-table-_x2F_-1" transform="translate(472.500000, 680.000000) scale(-1, 1) translate(-472.500000, -680.000000) translate(0.000000, 55.000000)">
		<g id="Group-39" transform="translate(252.000000, 232.000000)">
			<polygon id="Fill-1" class="st0" points="331.19,-42.56 308.92,173.06 74.31,173.06 96.58,-42.56 			"/>
			<polygon id="Stroke-2" class="st1" points="331.19,-42.56 308.92,173.06 74.31,173.06 96.58,-42.56 			"/>
			<polygon id="Fill-4" class="st2" points="322.89,-42.56 300.62,173.06 61.64,173.06 83.92,-42.56 			"/>
			<polygon id="Stroke-5" class="st1" points="322.89,-42.56 300.62,173.06 61.64,173.06 83.92,-42.56 			"/>
			<polygon id="Fill-7" class="st0" points="272.93,-1.33 259.18,131.83 111.6,131.83 125.36,-1.33 			"/>
			<polygon id="Fill-8" class="st3" points="-1.2,786.32 414.14,786.32 414.14,750.47 -1.2,750.47 			"/>
			<polygon id="Fill-9" class="st0" points="-12.05,786.32 7.83,786.32 7.83,468.99 -12.05,468.99 			"/>
			<polygon id="Fill-10" class="st0" points="264.95,786.32 285.08,786.32 285.08,468.99 264.95,468.99 			"/>
			<polygon id="Fill-11" class="st4" points="-12.05,762.67 7.83,762.67 7.83,750.47 -12.05,750.47 			"/>
			<polygon id="Fill-12" class="st4" points="264.95,762.67 285.08,762.67 285.08,750.47 264.95,750.47 			"/>
			<path id="Fill-13" class="st4" d="M331.49,64c4.33,36.47-9.75,67.64-9.75,67.64s-21.11-27.97-25.44-64.44
				c-4.33-36.47,9.75-67.64,9.75-67.64S327.16,27.53,331.49,64"/>
			<path id="Fill-15" class="st4" d="M322.35,93.27c18.83,32.76,18.29,66.27,18.29,66.27s-31.07-19.62-49.9-52.38
				c-18.83-32.76-18.29-66.27-18.29-66.27S303.52,60.5,322.35,93.27"/>
			<path id="Fill-17" class="st4" d="M348.86,67.92c-4.82,36.43-26.29,64.18-26.29,64.18s-13.67-31.31-8.85-67.73
				c4.82-36.43,26.29-64.18,26.29-64.18S353.68,31.49,348.86,67.92"/>
			<path id="Fill-19" class="st4" d="M364.54,94.24c-15.51,34.07-44.51,55.97-44.51,55.97s-3.87-33.34,11.64-67.41
				c15.51-34.07,44.52-55.97,44.52-55.97S380.05,60.17,364.54,94.24"/>
			<polygon id="Fill-21" class="st5" points="280.53,104.13 369.54,104.13 360.14,172.1 289.92,172.1 			"/>
			<polygon id="Fill-23" class="st0" points="-22,750.94 295.67,750.94 295.67,198.62 -22,198.62 			"/>
			<polygon id="Fill-25" class="st4" points="-1.2,723.14 274.87,723.14 274.87,641.25 -1.2,641.25 			"/>
			<polygon id="Fill-26" class="st4" points="-1.2,618.93 274.87,618.93 274.87,537.04 -1.2,537.04 			"/>
			<polygon id="Fill-27" class="st4" points="-1.2,514.73 274.87,514.73 274.87,432.84 -1.2,432.84 			"/>
			<polygon id="Fill-28" class="st4" points="-1.2,410.53 274.87,410.53 274.87,328.64 -1.2,328.64 			"/>
			<polygon id="Fill-29" class="st4" points="-1.2,306.33 274.87,306.33 274.87,224.43 -1.2,224.43 			"/>
			<polygon id="Fill-30" class="st3" points="295.67,750.94 422.31,750.94 422.31,198.62 295.67,198.62 			"/>
			<polygon id="Fill-31" class="st4" points="-37.84,198.62 308.91,198.62 308.91,172.24 -37.84,172.24 			"/>
			<polygon id="Fill-32" class="st3" points="308.59,198.62 440.5,198.62 440.5,172.24 308.59,172.24 			"/>
			<path id="Fill-33" class="st3" d="M120.84,265.38c0,8.56,7.16,15.5,15.99,15.5c8.83,0,15.99-6.94,15.99-15.5
				c0-8.56-7.16-15.5-15.99-15.5C128,249.88,120.84,256.82,120.84,265.38"/>
			<path id="Fill-34" class="st3" d="M120.84,369.58c0,8.56,7.16,15.5,15.99,15.5c8.83,0,15.99-6.94,15.99-15.5
				c0-8.56-7.16-15.5-15.99-15.5C128,354.08,120.84,361.02,120.84,369.58"/>
			<path id="Fill-35" class="st3" d="M120.84,473.79c0,8.56,7.16,15.5,15.99,15.5c8.83,0,15.99-6.94,15.99-15.5
				c0-8.56-7.16-15.5-15.99-15.5C128,458.29,120.84,465.22,120.84,473.79"/>
			<path id="Fill-36" class="st3" d="M120.84,577.99c0,8.56,7.16,15.5,15.99,15.5c8.83,0,15.99-6.94,15.99-15.5
				c0-8.56-7.16-15.5-15.99-15.5C128,562.49,120.84,569.43,120.84,577.99"/>
			<path id="Fill-37" class="st3" d="M120.84,682.19c0,8.56,7.16,15.5,15.99,15.5c8.83,0,15.99-6.94,15.99-15.5
				c0-8.56-7.16-15.5-15.99-15.5C128,666.69,120.84,673.63,120.84,682.19"/>
		</g>
	</g>
	<g id="Background-Object-_x2F_-Closet-_x2F_-1" transform="translate(945.000000, 0.000000)">
		<g id="Group-36" transform="translate(302.000000, 174.000000)">
			<polygon id="Fill-1_1_" class="st0" points="461.23,584.68 490.03,584.68 490.03,494.01 461.23,494.01 			"/>
			<polygon id="Fill-2" class="st0" points="701.08,584.68 729.87,584.68 729.87,494.01 701.08,494.01 			"/>
			<polygon id="Fill-3" class="st3" points="563.36,584.68 592.16,584.68 592.16,494.01 563.36,494.01 			"/>
			<polygon id="Fill-4_1_" class="st3" points="803.21,584.68 832,584.68 832,494.01 803.21,494.01 			"/>
			<polygon id="Fill-5" class="st3" points="563.2,510.1 831.83,510.1 831.83,-260.09 563.2,-260.09 			"/>
			<polygon id="Fill-6" class="st0" points="461.78,510.1 730.41,510.1 730.41,-260.09 461.78,-260.09 			"/>
			<path id="Fill-7_1_" class="st0" d="M644.59-312.47c0,22.13-12.06,41.55-30.15,52.37h-66.42
				c-18.09-10.83-30.16-30.24-30.16-52.37c0-10.3,2.61-19.99,7.22-28.51h112.28C641.98-332.46,644.59-322.77,644.59-312.47"/>
			<polygon id="Fill-9_1_" class="st0" points="661.44,-260.11 688.82,-260.11 688.82,-361.5 661.44,-361.5 			"/>
			<polygon id="Fill-11_1_" class="st4" points="634.05,-260.11 661.44,-260.11 661.44,-361.5 634.05,-361.5 			"/>
			<polygon id="Fill-12_1_" class="st4" points="688.82,-260.11 716.21,-260.11 716.21,-361.5 688.82,-361.5 			"/>
			<path id="Fill-13_1_" class="st3" d="M789.77-260.11h-73.56V-361.5h73.56c3.07,0,5.56,2.41,5.56,5.39v90.6
				C795.34-262.52,792.84-260.11,789.77-260.11"/>
			<polygon id="Fill-14" class="st4" points="740.34,-321.2 771.2,-321.2 771.2,-331.24 740.34,-331.24 			"/>
			<polygon id="Fill-15_1_" class="st4" points="485.82,484.72 706.47,484.72 706.47,263.04 485.82,263.04 			"/>
			<polygon id="Fill-16" class="st3" points="485.82,484.72 561.95,484.72 561.95,263.04 485.82,263.04 			"/>
			<polygon id="Fill-17_1_" class="st4" points="485.82,235.53 706.47,235.53 706.47,13.85 485.82,13.85 			"/>
			<polygon id="Fill-18" class="st3" points="485.82,235.53 561.95,235.53 561.95,13.85 485.82,13.85 			"/>
			<polygon id="Fill-19_1_" class="st4" points="485.82,-13.66 706.47,-13.66 706.47,-235.34 485.82,-235.34 			"/>
			<polygon id="Fill-20" class="st3" points="485.82,-13.66 561.95,-13.66 561.95,-235.34 485.82,-235.34 			"/>
			<polygon id="Fill-21_1_" class="st0" points="538.65,484.72 560.49,484.72 560.49,403.86 538.65,403.86 			"/>
			<polygon id="Fill-22" class="st4" points="516.82,484.72 538.65,484.72 538.65,403.86 516.82,403.86 			"/>
			<polygon id="Fill-23_1_" class="st4" points="560.49,484.72 582.33,484.72 582.33,403.86 560.49,403.86 			"/>
			<path id="Fill-24" class="st3" d="M639.87,484.72h-57.54v-80.86h57.54c3.07,0,5.57,2.41,5.57,5.39v70.07
				C645.43,482.3,642.94,484.72,639.87,484.72"/>
			<polygon id="Fill-25_1_" class="st4" points="591.68,423.65 636.08,423.65 636.08,415.64 591.68,415.64 			"/>
			<polygon id="Fill-26_1_" class="st4" points="601.58,436 626.19,436 626.19,427.99 601.58,427.99 			"/>
			<path id="Fill-27_1_" class="st0" d="M615.09-47.99c-1.69,13.79-8.9,25.95-19.42,34.33h-68.83
				c-10.53-8.38-17.73-20.54-19.43-34.33H615.09z"/>
			<path id="Fill-28_1_" class="st0" d="M615.09-76.65c-3.2,26.06-26.09,46.28-53.84,46.28c-27.76,0-50.64-20.22-53.85-46.28H615.09
				z"/>
			<path id="Fill-29_1_" class="st0" d="M615.09-105.27c-1.69,13.79-8.9,25.95-19.42,34.33h-68.83
				c-10.53-8.38-17.73-20.54-19.43-34.33H615.09z"/>
			<path id="Fill-30_1_" class="st0" d="M615.09-133.93c-3.2,26.06-26.09,46.28-53.84,46.28c-27.76,0-50.64-20.22-53.85-46.28
				H615.09z"/>
			<path id="Fill-31_1_" class="st5" d="M579.63,182.28c0,20.29-2.23,38.86-5.95,53.25h-39.01c-3.71-14.4-5.96-32.96-5.96-53.25"/>
			<path id="Stroke-32" class="st6" d="M577.7,191.19c8.84,1.69,14.6,10.01,12.85,18.59c-1.75,8.57-10.33,14.15-19.18,12.46"/>
			<path id="Fill-33_1_" class="st5" d="M657.77,182.28c0,20.29-2.23,38.86-5.95,53.25h-39.01c-3.71-14.4-5.96-32.96-5.96-53.25"/>
			<path id="Stroke-34" class="st6" d="M647.38,191.19c8.84,1.69,14.6,10.01,12.85,18.59c-1.75,8.57-10.33,14.15-19.18,12.46"/>
		</g>
	</g>
	
		<g id="Background-Object-_x2F_-Clock" transform="translate(905.000000, 308.000000) scale(-1, 1) translate(-905.000000, -308.000000) translate(655.000000, 133.000000)">
		<g id="Group-14" transform="translate(172.000000, 104.000000)">
			<path id="Fill-1_2_" class="st4" d="M231.57,26.63c0,41.11-34.38,74.43-76.79,74.43c-42.41,0-76.79-33.32-76.79-74.43
				c0-41.11,34.38-74.43,76.79-74.43C197.19-47.8,231.57-14.48,231.57,26.63"/>
			<path id="Fill-4_2_" class="st0" d="M216.51,26.63c0,41.11-34.38,74.43-76.79,74.43S62.93,67.73,62.93,26.63
				c0-41.11,34.38-74.43,76.79-74.43S216.51-14.48,216.51,26.63"/>
			<path id="Fill-6_1_" class="st4" d="M197.91,26.62c0,29.05-22.66,52.97-51.77,56.07c-2.11,0.23-4.25,0.34-6.42,0.34
				c-32.15,0-58.2-25.25-58.2-56.41c0-31.14,26.05-56.4,58.2-56.4c2.17,0,4.31,0.11,6.42,0.34
				C175.26-26.33,197.91-2.42,197.91,26.62"/>
			<path id="Fill-8_1_" class="st5" d="M197.91,26.62c0,29.05-22.66,52.97-51.77,56.07c-29.12-3.1-51.78-27.02-51.78-56.07
				c0-29.04,22.66-52.96,51.78-56.06C175.26-26.33,197.91-2.42,197.91,26.62"/>
			<path id="Stroke-10" class="st7" d="M142.24-4.74l18.86,39.86"/>
			<path id="Stroke-12" class="st7" d="M162.89,18.41l-41.3,43.51"/>
		</g>
	</g>
	<g id="Background-Object-_x2F_-Picture-_x2F_-1" transform="translate(878.000000, 73.000000)">
		<g id="Group-8" transform="translate(183.000000, 122.000000)">
			<polygon id="Fill-1_3_" class="st0" points="72.72,131.92 208.64,131.92 208.64,21.22 72.72,21.22 			"/>
			<polygon id="Stroke-2_1_" class="st1" points="72.72,131.92 208.64,131.92 208.64,21.22 72.72,21.22 			"/>
			<polygon id="Fill-4_3_" class="st2" points="64.73,132.07 200.65,132.07 200.65,21.37 64.73,21.37 			"/>
			<polygon id="Stroke-5_1_" class="st1" points="64.73,132.07 200.65,132.07 200.65,21.37 64.73,21.37 			"/>
			<polygon id="Fill-7_2_" class="st0" points="87.88,109.2 175.56,109.2 175.56,43.94 87.88,43.94 			"/>
		</g>
	</g>
	<g id="Background-Object-_x2F_-Picture-_x2F_-2" transform="translate(876.000000, 230.000000)">
		<g id="Group-8_1_" transform="translate(184.000000, 93.000000)">
			<polygon id="Fill-1_4_" class="st0" points="-92.39,132.39 43.53,132.39 43.53,-38.58 -92.39,-38.58 			"/>
			<polygon id="Stroke-2_2_" class="st1" points="-92.39,132.39 43.53,132.39 43.53,-38.58 -92.39,-38.58 			"/>
			<polygon id="Fill-4_4_" class="st2" points="-99.45,132.39 33.83,132.39 33.83,-38.58 -99.45,-38.58 			"/>
			<polygon id="Stroke-5_2_" class="st1" points="-99.45,132.39 33.83,132.39 33.83,-38.58 -99.45,-38.58 			"/>
			<polygon id="Fill-7_3_" class="st0" points="-71.7,100.11 -0.06,100.11 -0.06,-6.61 -71.7,-6.61 			"/>
		</g>
	</g>
	<g id="Background-Object-_x2F_-Flower-_x2F_-1" transform="translate(486.000000, 500.000000)">
		<g id="Group-24" transform="translate(362.000000, 135.000000)">
			<path id="Fill-1_5_" class="st4" d="M24.87,27.1c0,32.14-20.16,58.2-45.04,58.2S-65.2,59.24-65.2,27.1s20.16-58.2,45.04-58.2
				S24.87-5.04,24.87,27.1"/>
			<path id="Stroke-3" class="st8" d="M-19.82,332.78V30.06"/>
			<path id="Fill-5_1_" class="st4" d="M-68.32,112.59c21.27,20.61,25.58,49.85,9.63,65.31c-15.95,15.46-46.12,11.28-67.39-9.33
				c-21.27-20.61-25.58-49.86-9.63-65.31C-119.76,87.8-89.59,91.98-68.32,112.59"/>
			<path id="Fill-8_2_" class="st4" d="M83.53,154.94c17.15,16.62,12.52,48.06-10.35,70.22c-22.86,22.16-55.3,26.65-72.45,10.03"/>
			<path id="Stroke-10_1_" class="st8" d="M60.42,184.22l-78.91,76.7"/>
			<path id="Stroke-12_1_" class="st8" d="M37.62,110.87l-57.67,55.24"/>
			<path id="Stroke-14" class="st8" d="M-79.93,232.12l60.25,59.05"/>
			<path id="Stroke-16" class="st8" d="M-100.7,137.6l80.53,78.99"/>
			<path id="Fill-18_1_" class="st5" d="M4.33,436.75h-48.3c-37.1,0-67.45-29.42-67.45-65.37v-61.52h183.2v61.52
				C71.77,407.33,41.42,436.75,4.33,436.75"/>
			<path id="Stroke-20" class="st8" d="M71.77,344.05h-183.2"/>
			<path id="Stroke-22" class="st8" d="M71.77,378.35h-183.2"/>
		</g>
	</g>
	<g id="Person-_x2F_-Man-_x2F_-7" transform="translate(447.000000, 330.000000)">
		<g id="Man-_x2F_-Head-_x2F_-7" transform="translate(245.000000, 69.000000)">
			<g id="Group-25" transform="translate(38.000000, 42.000000)">
				<g id="Face-color" transform="translate(-0.000186, 32.602799)">
					<g id="Mask">
						<path id="path-1_1_" class="st9" d="M-6.78-51.72l-0.93-31.23c0,0,39.2,3.02,47.59-1.2c0,0,10.25-51.12-1.97-79.42l-0.25-1.1
							l-82.72-9.37l-5.15,45.39c-2.79-7.96-25.27-16.42-31.29-5.03c-13.03,24.69,33.55,41.31,33.55,41.31l-4.73,41.01"/>
					</g>
				</g>
				<polygon id="Fill-4_5_" class="st10" points="-7.72,-50.34 -34.15,-55.83 -7.84,-38.63 				"/>
				<polygon id="Fill-6_2_" class="st9" points="14.09,-101.37 23.22,-79.75 12.28,-79.62 				"/>
				<path id="Fill-8_3_" class="st11" d="M3.67-95.23c0.54,2.91-1.45,5.7-4.46,6.22c-3.01,0.53-5.89-1.41-6.43-4.32
					c-0.54-2.91,1.45-5.7,4.46-6.22C0.25-100.07,3.13-98.14,3.67-95.23"/>
				<path id="Fill-10_1_" class="st11" d="M32.4-95.23c0.54,2.91-1.45,5.7-4.46,6.22c-3.01,0.53-5.89-1.41-6.43-4.32
					c-0.54-2.91,1.45-5.7,4.46-6.22C28.98-100.07,31.86-98.14,32.4-95.23"/>
				<g id="Group-15" transform="translate(79.675676, 96.806371)">
					<path id="Fill-12_2_" class="st2" d="M-76.95-170.31c0,0,3.83,6.01,11.4,5.5"/>
					<path id="Stroke-14_1_" class="st12" d="M-76.95-170.31c0,0,3.83,6.01,11.4,5.5"/>
				</g>
				<path id="Path" class="st13" d="M-49.72-95.55c-6.18-6.2-12.9-8.83-16.98-9.92l0.78-15.65l38.86-6.56
					C-29.74-110.22-40.14-100.69-49.72-95.55L-49.72-95.55z"/>
				<g id="Ear-color" transform="translate(9.959459, 66.005988)">
				</g>
				<path id="Fill-18_2_" class="st14" d="M40.19-124.85c-3.5-3.22-26.32-4.22-53.75-2.18c-6.38,0.48-12.5,1.07-18.15,1.77
					c-18.7,2.27-32.45,5.51-34.69,8.35c-2.48-35.53,20-56.69,49.43-58.66c19.31-1.29,36.82,6,47.3,21.2
					C35.69-146.59,39.22-136.71,40.19-124.85"/>
				<g id="Group-24_1_" transform="translate(47.986486, 19.045892)">
					<g id="Clip-23">
					</g>
					<defs>
						<filter id="Adobe_OpacityMaskFilter" filterUnits="userSpaceOnUse" x="-79.7" y="-174.2" width="93.2" height="31">
							<feColorMatrix  type="matrix" values="1 0 0 0 0  0 1 0 0 0  0 0 1 0 0  0 0 0 1 0"/>
						</filter>
					</defs>
					<mask maskUnits="userSpaceOnUse" x="-79.7" y="-174.2" width="93.2" height="31" id="mask-4_1_">
						<g class="st15">
							<polygon id="path-3_1_" class="st2" points="-79.7,-174.2 13.51,-174.2 13.51,-143.2 -79.7,-143.2 							"/>
						</g>
					</mask>
					<path id="Fill-22_1_" class="st16" d="M-7.36-143.2L-7.36-143.2c-0.05-0.25-0.2-0.49-0.44-0.7c-3.5-3.22-26.32-4.22-53.75-2.18
						c-6.38,0.48-12.5,1.07-18.15,1.77c8.04-7.4,22.76-19.1,40.12-24.35c7.42-2.24,14.95-3.88,21.91-4.76
						c16.9-2.17,30.46,0.06,31.14,8.55C14.35-153.82-4.44-144.57-7.36-143.2"/>
				</g>
			</g>
		</g>
		<g id="Man-_x2F_-Legs-_x2F_-7" transform="translate(53.000000, 249.000000)">
			<g id="Group-21" transform="translate(84.000000, 181.237430)">
				<g id="Shoes" transform="translate(0.000000, 314.077678)">
					<g id="Mask_1_">
						<path id="path-5_1_" class="st11" d="M218-54.98l6.61,20.64c0,0,51.62-20.51,78.17-12.73l-89.47,50.2l-23.29-56.67L218-54.98z
							 M-23.29-116.91l-28.94,25.7c0,0,4.3,17.1,6.11,33.23c2.62,23.35,1.01,44.43,1.01,44.43l-50.18-84.83l61.95-44.54
							L-23.29-116.91z"/>
					</g>
					<defs>
						
							<filter id="Adobe_OpacityMaskFilter_1_" filterUnits="userSpaceOnUse" x="-111.46" y="-126.74" width="414.54" height="130.42">
							<feColorMatrix  type="matrix" values="1 0 0 0 0  0 1 0 0 0  0 0 1 0 0  0 0 0 1 0"/>
						</filter>
					</defs>
					<mask maskUnits="userSpaceOnUse" x="-111.46" y="-126.74" width="414.54" height="130.42" id="mask-6_1_">
						<g class="st17">
							<path id="path-5_2_" class="st2" d="M218-54.98l6.61,20.64c0,0,51.62-20.51,78.17-12.73l-89.47,50.2l-23.29-56.67L218-54.98z
								 M-23.29-116.91l-28.94,25.7c0,0,4.3,17.1,6.11,33.23c2.62,23.35,1.01,44.43,1.01,44.43l-50.18-84.83l61.95-44.54
								L-23.29-116.91z"/>
						</g>
					</mask>
					<g id="Colors-_x2F_-Wear-_x2F_-Dark-Grey" class="st18">
						<g id="Color" transform="translate(-14.019048, 15.376809)">
							<rect x="-97.44" y="-142.12" class="st19" width="414.54" height="130.42"/>
						</g>
					</g>
				</g>
				<g id="Legs-skin" transform="translate(24.533333, 314.054494)">
					<g id="Mask_2_">
						<path id="path-7_1_" class="st20" d="M166.96-49.06l27.67-2.41l5.45,17.15l-22.9,9.25L166.96-49.06z M-58.31-142.91
							l3.18,32.58l-21.65,19.15l-17.19-25.6L-58.31-142.91z"/>
					</g>
					<defs>
						
							<filter id="Adobe_OpacityMaskFilter_2_" filterUnits="userSpaceOnUse" x="-106.51" y="-126.72" width="327.73" height="102.02">
							<feColorMatrix  type="matrix" values="1 0 0 0 0  0 1 0 0 0  0 0 1 0 0  0 0 0 1 0"/>
						</filter>
					</defs>
					<mask maskUnits="userSpaceOnUse" x="-106.51" y="-126.72" width="327.73" height="102.02" id="mask-8_1_">
						<g class="st21">
							<path id="path-7_2_" class="st2" d="M166.96-49.06l27.67-2.41l5.45,17.15l-22.9,9.25L166.96-49.06z M-58.31-142.91
								l3.18,32.58l-21.65,19.15l-17.19-25.6L-58.31-142.91z"/>
						</g>
					</mask>
					<g id="Colors-_x2F_-Skin-_x2F_-Pink" class="st22">
						<g id="Color_1_" transform="translate(-11.390476, 15.399993)">
							<rect x="-95.12" y="-142.12" class="st23" width="327.73" height="102.02"/>
						</g>
					</g>
				</g>
				<g id="Pants" transform="translate(28.547074, 0.000000)">
					<g id="Mask_3_">
						<path id="path-9_1_" class="st24" d="M50.02-43.35L13.27-159.18h94.31l49.64,0c0.09,28.34-3.35,75.01-21.58,128.15
							l57.87,264.17c0.72,3.32-0.5,6.63-2.97,8.77l8.79,30.26l-35.94,10.14l-8.56-28.2l-0.22,0.07c-5.1,1.63-10.58-1.11-12.15-6.06
							L85.29,67.9c-6.45,9.21-13.47,18.41-21.11,27.54c-48.35,57.81-78.48,88.99-93.98,103.98c-5.53,5.36-14.14,5.63-19.98,1.24
							l-22.1,17.64l-21.94-29.26l21.84-17.43c-3.5-5.44-2.92-12.51,1.55-17.34C-48.15,130.19,14.52,56.64,50.02-43.35L50.02-43.35z"
							/>
					</g>
					<defs>
						
							<filter id="Adobe_OpacityMaskFilter_3_" filterUnits="userSpaceOnUse" x="-93.32" y="-159.18" width="302.77" height="444.91">
							<feColorMatrix  type="matrix" values="1 0 0 0 0  0 1 0 0 0  0 0 1 0 0  0 0 0 1 0"/>
						</filter>
					</defs>
					<mask maskUnits="userSpaceOnUse" x="-93.32" y="-159.18" width="302.77" height="444.91" id="mask-10_1_">
						<g class="st25">
							<path id="path-9_2_" class="st2" d="M50.02-43.35L13.27-159.18h94.31l49.64,0c0.09,28.34-3.35,75.01-21.58,128.15
								l57.87,264.17c0.72,3.32-0.5,6.63-2.97,8.77l8.79,30.26l-35.94,10.14l-8.56-28.2l-0.22,0.07c-5.1,1.63-10.58-1.11-12.15-6.06
								L85.29,67.9c-6.45,9.21-13.47,18.41-21.11,27.54c-48.35,57.81-78.48,88.99-93.98,103.98c-5.53,5.36-14.14,5.63-19.98,1.24
								l-22.1,17.64l-21.94-29.26l21.84-17.43c-3.5-5.44-2.92-12.51,1.55-17.34C-48.15,130.19,14.52,56.64,50.02-43.35L50.02-43.35z
								"/>
						</g>
					</mask>
					<g id="Colors-_x2F_-Wear-_x2F_-Dark-Grey_1_" class="st26">
						<g id="Color_2_" transform="translate(0.452926, 0.000000)">
							<rect x="-93.77" y="-159.18" class="st19" width="302.77" height="444.91"/>
						</g>
					</g>
				</g>
				<g id="Overlay" transform="translate(127.222682, 0.000261)" class="st27">
					<path id="Mask_4_" class="st2" d="M56.17,254.11l-0.22,0.07c-5.1,1.63-10.58-1.11-12.15-6.06L-13.38,67.9L-48.66-43.35
						l-36.75-115.84H8.91L36.97-31.03l57.87,264.17c0.72,3.32-0.5,6.63-2.97,8.77l8.79,30.26l-35.94,10.14L56.17,254.11z"/>
				</g>
				<g id="Pants-line" transform="translate(148.663063, 0.000000)">
					<g id="Mask_5_">
						<polygon id="path-11_1_" class="st28" points="54,247.11 38.87,252.32 -21.87,48.2 -59.34,-77.72 -83.58,-159.18 
							-52.86,-159.18 -47.46,-138.64 -5.84,19.58 						"/>
					</g>
					<defs>
						
							<filter id="Adobe_OpacityMaskFilter_4_" filterUnits="userSpaceOnUse" x="-83.27" y="-159.18" width="136.73" height="411.26">
							<feColorMatrix  type="matrix" values="1 0 0 0 0  0 1 0 0 0  0 0 1 0 0  0 0 0 1 0"/>
						</filter>
					</defs>
					<mask maskUnits="userSpaceOnUse" x="-83.27" y="-159.18" width="136.73" height="411.26" id="mask-12_1_">
						<g class="st29">
							<polygon id="path-11_2_" class="st2" points="54,247.11 38.87,252.32 -21.87,48.2 -59.34,-77.72 -83.58,-159.18 
								-52.86,-159.18 -47.46,-138.64 -5.84,19.58 							"/>
						</g>
					</mask>
					<g id="Colors-_x2F_-Wear-_x2F_-Red" class="st30">
						<g id="Color_3_" transform="translate(0.289318, 0.000000)">
							<rect x="-83.56" y="-159.18" class="st31" width="136.73" height="411.26"/>
						</g>
					</g>
				</g>
			</g>
		</g>
		<g id="Man-_x2F_-Body-_x2F_-5" transform="translate(186.000000, 212.000000)">
			<g id="Group-36_1_" transform="translate(17.000000, 20.876833)">
				<g id="Skin-color" transform="translate(0.000000, 20.766168)">
					<g id="Mask_6_">
						<path id="path-13_1_" class="st9" d="M218.89-99.19C206.91-76.4,164.87-1.58,134.9-13.51c-22.44-8.94-49.31-83.02-49.31-83.02
							l43.67-25.19l19.62,50.91L188.95-113c-1.36-8.36-2.45-19.29,0.26-23.14c4.62-6.56,27.98-26.76,27.98-26.76l4.25,34.23
							l0.74-2.89c0-0.16,0.04-0.33,0.12-0.52c0.01-0.02,0.02-0.04,0.03-0.05l1.72-6.68c-0.72-0.35-1.02-0.86-0.71-1.55
							c0.25-0.57,0.81-1.19,1.58-1.84l5.87-22.81c0,0,1.93,0.83,4.75,2.08c4.54-0.91,21,9.93,21.25,10.1l0,0
							c3.35,2.1-4.62,36.77-11.09,43.21C241.11-105.04,226.78-101.09,218.89-99.19L218.89-99.19z M-48.64,55.39l2.67,4.92
							c0,0,2.42,4.02,4.96,11.04c2.53,7.02,1.48,11.31,6.96,22.34c6.22,12.51-4.91,7.35-8.9,1.89c-3.12-4.26-2.76-10.03-6.8-12.61
							c-1.35,2.09-4.45,5.09-6.17,23.14c-0.31,3.24,1.21,13.74,1.21,13.74c0.03,3.15,0.45,9.71-3.25,10.71
							c-0.92,0.25-2.11-0.73-2.11-0.73s0.36,4.11-3.42,4.92c-1.49,0.32-4.44-8.55-4.44-8.55s-0.45,4.5-3.27,5
							c-0.8,0.14-10.21-25.55-10.21-25.55l0.57,5.8l1.25,5.94c0,0-0.1,3.2-2.75,3.77c-1.05,0.22-3.07-5.11-4.97-11.39
							c-2.95-9.77-2.89-17.11-2.02-24.41c1.05-8.82,0.58-11.78,4.63-22.6c0.48-1.29,1.13-2.78,1.86-4.31
							c-2.22-18.6-8.49-73.03-7.72-89.74c0.93-20.27,23.09-65.27,23.09-65.27l44.98,24.37l-24.79,43.79L-48.64,55.39L-48.64,55.39z
							 M58.98-146.24c-26.06-1.48-37.05-17.18-39.55-21.43c16.53-1.11,18.26-0.94,40.28,1.27c8.93,0.9,15.19,2.74,21.26,4.35
							C82.28-157.73,84.15-144.81,58.98-146.24z"/>
					</g>
					<defs>
						
							<filter id="Adobe_OpacityMaskFilter_5_" filterUnits="userSpaceOnUse" x="-90.62" y="-168.21" width="348.34" height="302.92">
							<feColorMatrix  type="matrix" values="1 0 0 0 0  0 1 0 0 0  0 0 1 0 0  0 0 0 1 0"/>
						</filter>
					</defs>
					<mask maskUnits="userSpaceOnUse" x="-90.62" y="-168.21" width="348.34" height="302.92" id="mask-14_1_">
						<g class="st32">
							<path id="path-13_2_" class="st2" d="M218.89-99.19C206.91-76.4,164.87-1.58,134.9-13.51
								c-22.44-8.94-49.31-83.02-49.31-83.02l43.67-25.19l19.62,50.91L188.95-113c-1.36-8.36-2.45-19.29,0.26-23.14
								c4.62-6.56,27.98-26.76,27.98-26.76l4.25,34.23l0.74-2.89c0-0.16,0.04-0.33,0.12-0.52c0.01-0.02,0.02-0.04,0.03-0.05
								l1.72-6.68c-0.72-0.35-1.02-0.86-0.71-1.55c0.25-0.57,0.81-1.19,1.58-1.84l5.87-22.81c0,0,1.93,0.83,4.75,2.08
								c4.54-0.91,21,9.93,21.25,10.1l0,0c3.35,2.1-4.62,36.77-11.09,43.21C241.11-105.04,226.78-101.09,218.89-99.19L218.89-99.19z
								 M-48.64,55.39l2.67,4.92c0,0,2.42,4.02,4.96,11.04c2.53,7.02,1.48,11.31,6.96,22.34c6.22,12.51-4.91,7.35-8.9,1.89
								c-3.12-4.26-2.76-10.03-6.8-12.61c-1.35,2.09-4.45,5.09-6.17,23.14c-0.31,3.24,1.21,13.74,1.21,13.74
								c0.03,3.15,0.45,9.71-3.25,10.71c-0.92,0.25-2.11-0.73-2.11-0.73s0.36,4.11-3.42,4.92c-1.49,0.32-4.44-8.55-4.44-8.55
								s-0.45,4.5-3.27,5c-0.8,0.14-10.21-25.55-10.21-25.55l0.57,5.8l1.25,5.94c0,0-0.1,3.2-2.75,3.77
								c-1.05,0.22-3.07-5.11-4.97-11.39c-2.95-9.77-2.89-17.11-2.02-24.41c1.05-8.82,0.58-11.78,4.63-22.6
								c0.48-1.29,1.13-2.78,1.86-4.31c-2.22-18.6-8.49-73.03-7.72-89.74c0.93-20.27,23.09-65.27,23.09-65.27l44.98,24.37
								l-24.79,43.79L-48.64,55.39L-48.64,55.39z M58.98-146.24c-26.06-1.48-37.05-17.18-39.55-21.43
								c16.53-1.11,18.26-0.94,40.28,1.27c8.93,0.9,15.19,2.74,21.26,4.35C82.28-157.73,84.15-144.81,58.98-146.24z"/>
						</g>
					</mask>
					<g id="Colors-_x2F_-Skin-_x2F_-Rose" class="st33">
						<g id="Color_4_" transform="translate(0.000000, 0.110665)">
							<rect x="-90.62" y="-168.33" class="st34" width="348.34" height="302.92"/>
						</g>
					</g>
				</g>
				<g id="T-Shirt" transform="translate(17.000000, 20.876833)">
					<g id="Mask_7_">
						<path id="path-15_1_" class="st9" d="M116.19-122.35l0.16-0.03l17.75,39.54l-25.33,14.31l-5.29,86.34H-40.84l-2.42-85.15
							l-45.63-33.07c0,0,21.52-41.83,58.34-58.47c11.9-5.39,22.82-7.93,32.98-8.9c0.83-0.08,0.18-0.06,0.28,0.32
							c0.06,0.22,0.26,0.54,0.49,0.9c0.23,0.37,0.23,0.25,1.38,1.88c1.14,1.63,2.84,3.26,5.39,5.79c2.12,2.1,5.05,4.15,7.92,5.7
							c3.27,1.77,6.48,2.95,8.54,3.79c1.86,0.76,3.43,1.16,4.94,1.5c4.28,0.99,7.61,1.29,14.41,1.63c0.82,0.04,5.6-0.3,6.44-0.46
							c1.2-0.23,2.27-0.44,3.63-0.8c1.35-0.36,4.72-1.88,6.95-4.56c0.95-1.14,1.84-4.88,1.57-7.64c-0.28-2.76-1.52-2.76-0.38-2.46
							c19.93,5.26,38.77,16.1,49.79,35.33C114.64-125.28,115.45-123.78,116.19-122.35z"/>
					</g>
					<defs>
						
							<filter id="Adobe_OpacityMaskFilter_6_" filterUnits="userSpaceOnUse" x="-89.17" y="-168.33" width="223.55" height="186.17">
							<feColorMatrix  type="matrix" values="1 0 0 0 0  0 1 0 0 0  0 0 1 0 0  0 0 0 1 0"/>
						</filter>
					</defs>
					<mask maskUnits="userSpaceOnUse" x="-89.17" y="-168.33" width="223.55" height="186.17" id="mask-16_1_">
						<g class="st35">
							<path id="path-15_2_" class="st2" d="M116.19-122.35l0.16-0.03l17.75,39.54l-25.33,14.31l-5.29,86.34H-40.84l-2.42-85.15
								l-45.63-33.07c0,0,21.52-41.83,58.34-58.47c11.9-5.39,22.82-7.93,32.98-8.9c0.83-0.08,0.18-0.06,0.28,0.32
								c0.06,0.22,0.26,0.54,0.49,0.9c0.23,0.37,0.23,0.25,1.38,1.88c1.14,1.63,2.84,3.26,5.39,5.79c2.12,2.1,5.05,4.15,7.92,5.7
								c3.27,1.77,6.48,2.95,8.54,3.79c1.86,0.76,3.43,1.16,4.94,1.5c4.28,0.99,7.61,1.29,14.41,1.63c0.82,0.04,5.6-0.3,6.44-0.46
								c1.2-0.23,2.27-0.44,3.63-0.8c1.35-0.36,4.72-1.88,6.95-4.56c0.95-1.14,1.84-4.88,1.57-7.64c-0.28-2.76-1.52-2.76-0.38-2.46
								c19.93,5.26,38.77,16.1,49.79,35.33C114.64-125.28,115.45-123.78,116.19-122.35z"/>
						</g>
					</mask>
					<g id="Colors-_x2F_-Wear-_x2F_-White" class="st36">
						<rect id="Color_5_" x="-89.17" y="-168.33" class="st37" width="223.55" height="186.17"/>
					</g>
				</g>
				<polyline id="Stroke-16_1_" class="st38" points="-26.26,-46.46 -14.69,-38.86 13.14,-70.18 				"/>
				<g id="Group-22" transform="translate(270.000000, 0.760513)">
					<g id="Clip-21">
					</g>
					<defs>
						<filter id="Adobe_OpacityMaskFilter_7_" filterUnits="userSpaceOnUse" x="-66.66" y="-169.12" width="48.05" height="76.11">
							<feColorMatrix  type="matrix" values="1 0 0 0 0  0 1 0 0 0  0 0 1 0 0  0 0 0 1 0"/>
						</filter>
					</defs>
					<mask maskUnits="userSpaceOnUse" x="-66.66" y="-169.12" width="48.05" height="76.11" id="mask-18_1_">
						<g class="st39">
							<polygon id="path-17_1_" class="st2" points="-66.66,-169.12 -18.6,-169.12 -18.6,-93.01 -66.66,-93.01 							"/>
						</g>
					</mask>
					<path id="Fill-20_1_" class="st40" d="M-31.99-102.57l-2.02,9.56h-32.65l15.4-76.11h32.65c-0.85,4.18-2.84,14.03-5.98,29.55
						l-6.42-2.88l-2-0.54l-1.57,0.09l-0.68,0.45v1.85l6.98,9.7l-5.34,2.25l-8.22,4.17l-2.37,1.59l-0.92,0.82l-0.75,0.65l-0.48,0.56
						l-0.29,0.5l-0.12,0.65l0.12,0.29l0.14,0.22l0.21,0.2l2.69,0.92l6.14-1.63h6.07l-8.1,1.63l-5.34,3.09l-1.81,1.65l-1.03,1.21
						v1.11l1.79,0.78l11.3-1.25l-3.74,1.97l-2.48,1.49l-2.27,1.13l-1.76,2.19v1.08l0.62,0.64l1.58,0.81h2.41h4.85L-31.99-102.57z"/>
				</g>
				<g id="Group-25_1_" transform="translate(265.000000, 0.760513)">
					<g id="Clip-24">
					</g>
					<defs>
						<filter id="Adobe_OpacityMaskFilter_8_" filterUnits="userSpaceOnUse" x="-67.07" y="-169.12" width="20.8" height="76.11">
							<feColorMatrix  type="matrix" values="1 0 0 0 0  0 1 0 0 0  0 0 1 0 0  0 0 0 1 0"/>
						</filter>
					</defs>
					<mask maskUnits="userSpaceOnUse" x="-67.07" y="-169.12" width="20.8" height="76.11" id="mask-20_1_">
						<g class="st41">
							<polygon id="path-19_1_" class="st2" points="-67.07,-169.12 -46.26,-169.12 -46.26,-93.01 -67.07,-93.01 							"/>
						</g>
					</mask>
					<polygon id="Fill-23_2_" class="st42" points="-61.66,-93.01 -67.07,-93.01 -51.66,-169.12 -46.26,-169.12 					"/>
				</g>
				<path id="Fill-34_1_" class="st43" d="M224.36-159.52c-0.45,2.22-1.79,3.84-2.99,3.62c-1.2-0.23-1.8-2.21-1.35-4.43
					c0.45-2.22,1.79-3.84,2.99-3.62C224.21-163.73,224.81-161.75,224.36-159.52"/>
			</g>
		</g>
	</g>
</g>
</svg>
