<svg version="1.1" id="Layer_1" xmlns="http://www.w3.org/2000/svg" xmlns:xlink="http://www.w3.org/1999/xlink" x="0px" y="0px"
	 width="100%" viewBox="0 0 1920 1080" enable-background="new 0 0 1920 1080" xml:space="preserve">
<path fill="#000000" opacity="1.000000" stroke="none" 
	d="
M1077.000000,1081.000000 
	C718.362244,1081.000000 359.724487,1081.000000 1.043355,1081.000000 
	C1.043355,721.057922 1.043355,361.115845 1.043355,1.086871 
	C640.890503,1.086871 1280.781006,1.086871 1921.000000,1.086871 
	C1921.000000,302.365997 1921.000000,603.732117 1920.531372,905.548950 
	C1848.070435,905.999695 1776.078125,906.007629 1704.085815,905.997314 
	C1643.426270,905.988586 1582.766602,905.958679 1522.064331,905.726135 
	C1522.021606,905.514099 1522.049194,905.082153 1522.513306,905.044067 
	C1533.976196,904.337341 1545.003540,903.966553 1555.965454,902.913086 
	C1566.145874,901.934692 1576.355591,900.719604 1586.369263,898.700439 
	C1595.934937,896.771484 1605.366943,893.991272 1614.674316,891.012390 
	C1628.813354,886.487122 1642.994873,881.970093 1656.770752,876.477600 
	C1665.777466,872.886719 1674.189819,867.740112 1682.704102,862.995483 
	C1692.904907,857.311035 1703.411743,851.997498 1712.933960,845.309998 
	C1733.959473,830.543701 1753.714844,814.249756 1771.367432,795.373840 
	C1784.898682,780.904846 1797.358032,765.682922 1808.218994,749.192688 
	C1815.180298,738.623291 1821.569824,727.647888 1827.694946,716.566650 
	C1832.172852,708.464966 1836.093018,700.018250 1839.728027,691.497681 
	C1843.237305,683.271301 1846.152710,674.785217 1849.157715,666.352173 
	C1851.251465,660.476196 1853.424072,654.587524 1854.907471,648.543945 
	C1857.400635,638.387878 1859.698242,628.160156 1861.481567,617.859314 
	C1863.640869,605.387207 1866.416138,592.839478 1866.739380,580.268250 
	C1867.492920,550.969421 1868.410156,521.549866 1861.991943,492.599457 
	C1858.928101,478.779388 1856.784180,464.647705 1852.393555,451.257233 
	C1847.125366,435.190002 1840.674561,419.391113 1833.317383,404.161194 
	C1825.748535,388.493042 1817.094360,373.252869 1807.737671,358.576019 
	C1800.668945,347.488007 1792.210571,337.175903 1783.531738,327.251984 
	C1772.673462,314.835938 1761.389282,302.716919 1749.459961,291.338928 
	C1741.275513,283.532715 1731.874756,276.935455 1722.660767,270.292938 
	C1712.476807,262.951202 1702.128784,255.771988 1691.390991,249.285507 
	C1683.510864,244.525299 1675.038696,240.643967 1666.561401,236.996323 
	C1652.035889,230.746307 1637.615234,223.975922 1622.571289,219.279053 
	C1604.484741,213.632233 1586.191162,208.240707 1567.023560,206.889984 
	C1554.332275,205.995636 1541.706665,203.371292 1529.032227,203.225998 
	C1510.542603,203.014008 1492.025879,204.147552 1473.541382,205.105942 
	C1467.428223,205.422913 1461.340698,206.782791 1455.310425,208.005692 
	C1448.061279,209.475739 1440.833862,211.114548 1433.689575,213.025986 
	C1420.228027,216.627533 1406.635498,219.900818 1393.473999,224.409744 
	C1383.395996,227.862289 1373.637817,232.515701 1364.200562,237.510010 
	C1349.346191,245.370972 1334.406616,253.244080 1320.379395,262.447723 
	C1305.090820,272.479095 1290.915283,284.062988 1277.440552,296.633789 
	C1258.893799,313.936401 1242.317139,332.714661 1227.814209,353.472321 
	C1216.949219,369.023193 1206.747681,384.964447 1199.287964,402.417603 
	C1192.444214,418.430176 1186.410034,434.788788 1179.652344,451.035065 
	C1165.216431,455.592834 1153.183594,462.910583 1145.226318,475.835938 
	C1136.829224,489.475494 1132.148560,503.762177 1136.766968,519.967896 
	C1138.561646,526.265442 1139.650269,532.764221 1140.832031,539.516602 
	C1133.134033,539.667908 1126.547852,541.204285 1123.054321,548.810120 
	C1118.167725,559.448608 1120.726807,571.391174 1129.442261,580.927612 
	C1139.420288,591.845581 1152.164307,598.746216 1165.326904,604.729919 
	C1169.115112,606.452087 1169.315796,608.496338 1168.962158,611.387390 
	C1167.281250,625.133179 1165.456543,638.861328 1163.652466,652.832947 
	C1160.401611,653.004578 1157.114380,653.178101 1153.481445,653.478149 
	C1147.829834,654.410339 1142.537720,655.324280 1137.215698,656.002441 
	C1117.403076,658.526978 1098.978882,664.296692 1082.784302,676.693665 
	C1068.541992,687.596069 1055.045288,699.257935 1043.795288,713.172791 
	C1031.510132,728.368042 1018.768372,743.435303 1008.529297,759.983643 
	C995.273132,781.408325 985.261414,804.603027 979.790405,829.514465 
	C977.470154,840.079529 977.110962,850.628052 978.703430,861.176208 
	C980.577454,873.589050 986.601746,884.467590 992.856628,895.126099 
	C1004.173096,914.409851 1018.770142,931.206665 1034.708008,946.611145 
	C1050.672485,962.041504 1067.935181,976.128601 1084.802002,991.083862 
	C1085.359009,991.885315 1085.742676,992.407410 1085.945801,993.299683 
	C1084.511719,1005.265930 1083.229004,1016.859009 1082.014160,1028.459106 
	C1081.020264,1037.946777 1080.076172,1047.440186 1079.168457,1056.936523 
	C1078.402100,1064.953491 1077.719727,1072.978516 1077.000000,1081.000000 
z"/>
<path fill="#000000" opacity="1.000000" stroke="none" 
	d="
M1405.000000,1081.000000 
	C1371.645752,1081.000000 1338.291504,1081.000000 1304.468628,1080.545654 
	C1303.666626,1073.976929 1303.095947,1067.864624 1303.038208,1061.747681 
	C1302.632690,1018.817200 1302.393921,975.885071 1301.917114,932.955505 
	C1301.861572,927.945984 1300.678101,922.949036 1300.019043,917.745483 
	C1300.020630,917.544739 1300.031250,917.143433 1300.437256,917.091309 
	C1311.294678,919.576965 1323.689087,909.839172 1321.877075,900.272827 
	C1319.166992,885.965637 1315.977661,871.748657 1313.316528,857.433105 
	C1312.283203,851.873474 1312.132568,846.149780 1311.903564,840.653076 
	C1320.366577,845.921326 1328.269531,851.471863 1336.697021,856.058350 
	C1351.861572,864.311340 1367.028320,872.692261 1382.791260,879.670593 
	C1394.563843,884.882324 1407.132446,888.505066 1419.607544,891.866150 
	C1434.183228,895.793091 1448.909302,899.592712 1463.815918,901.740112 
	C1479.038818,903.933105 1494.560181,904.055542 1509.969482,905.290161 
	C1509.988281,905.495789 1509.951660,905.907166 1509.487793,905.950073 
	C1486.731567,905.995178 1464.439087,906.049316 1442.147217,905.940125 
	C1439.034180,905.924866 1437.344360,906.554993 1436.923340,910.010376 
	C1436.340576,914.794800 1435.204712,919.510925 1434.334595,924.261536 
	C1432.626953,933.585083 1430.939209,942.912170 1429.092285,953.067078 
	C1446.143677,953.067078 1462.058716,953.067078 1477.985107,953.492920 
	C1475.958374,965.263855 1473.920532,976.609009 1471.421753,987.975220 
	C1454.675903,987.996277 1438.390747,987.996277 1422.194580,987.996277 
	C1419.411011,1003.553955 1416.718262,1018.604675 1413.956055,1034.043213 
	C1430.595947,1034.043213 1446.744385,1034.043213 1462.945923,1034.474365 
	C1462.790405,1036.679932 1462.657349,1038.467163 1462.360229,1040.226440 
	C1460.933960,1048.670776 1459.323853,1057.087158 1458.081665,1065.557739 
	C1457.628296,1068.649536 1456.752319,1070.106445 1453.281372,1070.068848 
	C1437.996094,1069.903076 1422.708252,1069.997192 1407.330444,1069.997192 
	C1406.517700,1073.834595 1405.758911,1077.417236 1405.000000,1081.000000 
z"/>
<path fill="#1D0A78" opacity="1.000000" stroke="none" 
	d="
M1300.017456,917.946167 
	C1300.678101,922.949036 1301.861572,927.945984 1301.917114,932.955505 
	C1302.393921,975.885071 1302.632690,1018.817200 1303.038208,1061.747681 
	C1303.095947,1067.864624 1303.666626,1073.976929 1304.000000,1080.545654 
	C1273.645752,1081.000000 1243.291504,1081.000000 1212.467773,1080.533203 
	C1213.001953,1059.039917 1214.099365,1038.016968 1214.896851,1016.982666 
	C1215.002563,1014.193298 1217.096802,1009.479797 1211.663452,1009.144958 
	C1206.521851,1008.828125 1207.725220,1013.726990 1207.096191,1016.515686 
	C1202.254761,1037.978271 1197.666626,1059.498047 1193.000000,1081.000000 
	C1166.645752,1081.000000 1140.291504,1081.000000 1113.465820,1080.557739 
	C1115.163696,1065.074585 1117.296875,1050.028320 1119.513306,1034.994385 
	C1121.633789,1020.611389 1124.021484,1006.265442 1125.948608,991.857300 
	C1127.311646,981.665588 1127.982056,971.344788 1138.190552,965.304260 
	C1138.605591,965.058716 1139.112915,964.653381 1139.207275,964.238342 
	C1139.561279,962.682678 1140.465820,960.726257 1139.875244,959.589294 
	C1138.576294,957.088257 1139.232666,955.862427 1141.169189,954.140259 
	C1152.323364,944.220215 1163.430420,934.241943 1174.330688,924.045227 
	C1177.349731,921.221069 1180.383789,919.928162 1184.522339,919.941345 
	C1220.972656,920.057617 1257.423706,920.042480 1293.874023,919.921326 
	C1295.923950,919.914429 1297.969727,918.633911 1300.017456,917.946167 
z"/>
<path fill="#D7EBFF" opacity="1.000000" stroke="none" 
	d="
M1462.892822,1034.043213 
	C1446.744385,1034.043213 1430.595947,1034.043213 1413.956055,1034.043213 
	C1416.718262,1018.604675 1419.411011,1003.553955 1422.194580,987.996277 
	C1438.390747,987.996277 1454.675903,987.996277 1471.897949,987.988525 
	C1491.928955,987.971802 1511.023193,987.962891 1530.578125,987.975098 
	C1661.026001,987.997559 1791.013062,987.998779 1921.000000,988.000000 
	C1921.000000,1003.020935 1921.000000,1018.041809 1920.531372,1033.531128 
	C1903.398071,1033.999512 1886.733276,1033.997559 1870.068604,1033.999878 
	C1754.082520,1034.015625 1638.096436,1034.032227 1521.831909,1034.018799 
	C1521.367310,1033.975952 1521.181030,1033.963013 1520.687378,1033.670166 
	C1502.150757,1033.280151 1483.921509,1033.155396 1465.692261,1033.102539 
	C1464.760010,1033.099854 1463.826050,1033.715454 1462.892822,1034.043213 
z"/>
<path fill="#D7EBFF" opacity="1.000000" stroke="none" 
	d="
M1477.973877,953.067139 
	C1462.058716,953.067078 1446.143677,953.067078 1429.092285,953.067078 
	C1430.939209,942.912170 1432.626953,933.585083 1434.334595,924.261536 
	C1435.204712,919.510925 1436.340576,914.794800 1436.923340,910.010376 
	C1437.344360,906.554993 1439.034180,905.924866 1442.147217,905.940125 
	C1464.439087,906.049316 1486.731567,905.995178 1509.767334,906.255127 
	C1514.376099,906.324219 1518.241577,906.131226 1522.107056,905.938232 
	C1582.766602,905.958679 1643.426270,905.988586 1704.085815,905.997314 
	C1776.078125,906.007629 1848.070435,905.999695 1920.531372,905.999878 
	C1921.000000,921.020874 1921.000000,936.041809 1920.799805,951.598450 
	C1920.342896,952.272339 1920.148438,952.471313 1919.553345,952.815002 
	C1793.568359,952.904724 1668.046265,952.909485 1542.524170,952.924194 
	C1540.363770,952.924438 1538.203491,953.044678 1535.754395,952.799438 
	C1534.829590,952.331055 1534.193726,952.034241 1533.557251,952.033203 
	C1516.082031,952.003784 1498.606689,951.986023 1481.131714,952.045898 
	C1480.077881,952.049500 1479.026489,952.711487 1477.973877,953.067139 
z"/>
<path fill="#000000" opacity="1.000000" stroke="none" 
	d="
M1522.110352,1034.048584 
	C1638.096436,1034.032227 1754.082520,1034.015625 1870.068604,1033.999878 
	C1886.733276,1033.997559 1903.398071,1033.999512 1920.531372,1033.999756 
	C1921.000000,1045.687622 1921.000000,1057.375122 1920.531372,1069.530029 
	C1903.064697,1069.997314 1886.066772,1069.999268 1869.068726,1069.996948 
	C1753.416016,1069.981201 1637.763428,1069.964478 1522.060059,1069.485107 
	C1522.042969,1057.364380 1522.076660,1045.706543 1522.110352,1034.048584 
z"/>
<path fill="#000000" opacity="1.000000" stroke="none" 
	d="
M1536.043091,953.109009 
	C1538.203491,953.044678 1540.363770,952.924438 1542.524170,952.924194 
	C1668.046265,952.909485 1793.568359,952.904724 1919.792114,952.908386 
	C1920.662476,952.945129 1920.831177,952.972534 1921.000000,953.000000 
	C1921.000000,964.354248 1921.000000,975.708435 1921.000000,987.531372 
	C1791.013062,987.998779 1661.026001,987.997559 1530.525146,987.561707 
	C1530.117920,986.169983 1530.167480,985.202576 1530.339722,984.257324 
	C1532.229858,973.872559 1534.139038,963.491272 1536.043091,953.109009 
z"/>
<path fill="#D4E9FF" opacity="1.000000" stroke="none" 
	d="
M1522.110718,1069.947998 
	C1637.763428,1069.964478 1753.416016,1069.981201 1869.068726,1069.996948 
	C1886.066772,1069.999268 1903.064697,1069.997314 1920.531372,1069.998779 
	C1921.000000,1073.663574 1921.000000,1077.327271 1921.000000,1080.995361 
	C1749.312378,1081.000000 1577.624878,1081.000000 1405.468750,1081.000000 
	C1405.758911,1077.417236 1406.517700,1073.834595 1407.330444,1069.997192 
	C1422.708252,1069.997192 1437.996094,1069.903076 1453.281372,1070.068848 
	C1456.752319,1070.106445 1457.628296,1068.649536 1458.081665,1065.557739 
	C1459.323853,1057.087158 1460.933960,1048.670776 1462.360229,1040.226440 
	C1462.657349,1038.467163 1462.790405,1036.679932 1462.945923,1034.474365 
	C1463.826050,1033.715454 1464.760010,1033.099854 1465.692261,1033.102539 
	C1483.921509,1033.155396 1502.150757,1033.280151 1520.533081,1034.040771 
	C1518.517456,1046.255615 1516.348633,1057.819824 1514.073975,1069.947998 
	C1517.217041,1069.947998 1519.663818,1069.947998 1522.110718,1069.947998 
z"/>
<path fill="#180B55" opacity="1.000000" stroke="none" 
	d="
M1300.019043,917.745483 
	C1297.969727,918.633911 1295.923950,919.914429 1293.874023,919.921326 
	C1257.423706,920.042480 1220.972656,920.057617 1184.522339,919.941345 
	C1180.383789,919.928162 1177.349731,921.221069 1174.330688,924.045227 
	C1163.430420,934.241943 1152.323364,944.220215 1141.169189,954.140259 
	C1139.232666,955.862427 1138.576294,957.088257 1139.875244,959.589294 
	C1140.465820,960.726257 1139.561279,962.682678 1139.207275,964.238342 
	C1139.112915,964.653381 1138.605591,965.058716 1138.190552,965.304260 
	C1127.982056,971.344788 1127.311646,981.665588 1125.948608,991.857300 
	C1124.021484,1006.265442 1121.633789,1020.611389 1119.513306,1034.994385 
	C1117.296875,1050.028320 1115.163696,1065.074585 1112.997070,1080.557739 
	C1111.285645,1081.000000 1109.571289,1081.000000 1107.433838,1080.582886 
	C1112.045166,1046.962646 1117.079712,1013.759521 1122.198608,980.000061 
	C1116.731567,982.999512 1114.521973,986.698730 1113.791138,992.218750 
	C1111.325195,1010.844788 1108.153687,1029.376221 1105.408813,1047.967041 
	C1103.786499,1058.955444 1102.459717,1069.987549 1101.000000,1081.000000 
	C1099.285645,1081.000000 1097.571289,1081.000000 1095.428467,1080.570068 
	C1095.673706,1075.224976 1096.267090,1070.297363 1097.035156,1065.396973 
	C1099.929077,1046.932129 1102.927856,1028.483398 1105.781738,1010.012390 
	C1106.673340,1004.241333 1107.231567,998.418701 1107.924438,992.766113 
	C1105.252930,993.067017 1103.238892,993.311096 1101.220947,993.515930 
	C1099.504639,993.690186 1097.542236,993.337097 1096.108765,994.055603 
	C1091.175415,996.528137 1090.262207,1001.181580 1089.963257,1006.219299 
	C1089.403931,1015.646057 1088.645142,1025.062134 1087.882080,1034.475586 
	C1086.624756,1049.986572 1085.297729,1065.492188 1084.000000,1081.000000 
	C1081.958374,1081.000000 1079.916626,1081.000000 1077.437500,1081.000000 
	C1077.719727,1072.978516 1078.402100,1064.953491 1079.168457,1056.936523 
	C1080.076172,1047.440186 1081.020264,1037.946777 1082.014160,1028.459106 
	C1083.229004,1016.859009 1084.511719,1005.265930 1086.316284,993.319458 
	C1088.475952,992.278381 1090.244263,991.819885 1091.658081,990.846436 
	C1094.246338,989.064209 1096.625366,986.977783 1099.346802,985.221680 
	C1100.943848,986.289368 1102.285767,987.153687 1103.607910,988.005188 
	C1112.962280,979.994080 1121.949097,972.052063 1131.232910,964.474243 
	C1134.703369,961.641663 1134.692749,959.275391 1132.070068,955.980347 
	C1136.253296,951.948486 1140.248413,948.196472 1144.322632,944.532227 
	C1146.680664,942.411560 1146.532104,940.983032 1144.313354,938.427307 
	C1138.607666,931.855469 1133.476562,924.784851 1127.332397,916.909363 
	C1130.424438,916.909363 1132.031738,916.909485 1133.639160,916.909485 
	C1179.779053,916.909302 1225.918823,916.896362 1272.058716,916.919495 
	C1281.382935,916.924194 1290.707031,917.065247 1300.031250,917.143433 
	C1300.031250,917.143433 1300.020630,917.544739 1300.019043,917.745483 
z"/>
<path fill="#1D0A78" opacity="1.000000" stroke="none" 
	d="
M1084.458008,1081.000000 
	C1085.297729,1065.492188 1086.624756,1049.986572 1087.882080,1034.475586 
	C1088.645142,1025.062134 1089.403931,1015.646057 1089.963257,1006.219299 
	C1090.262207,1001.181580 1091.175415,996.528137 1096.108765,994.055603 
	C1097.542236,993.337097 1099.504639,993.690186 1101.220947,993.515930 
	C1103.238892,993.311096 1105.252930,993.067017 1107.924438,992.766113 
	C1107.231567,998.418701 1106.673340,1004.241333 1105.781738,1010.012390 
	C1102.927856,1028.483398 1099.929077,1046.932129 1097.035156,1065.396973 
	C1096.267090,1070.297363 1095.673706,1075.224976 1095.000000,1080.570068 
	C1091.638672,1081.000000 1088.277466,1081.000000 1084.458008,1081.000000 
z"/>
<path fill="#180B55" opacity="1.000000" stroke="none" 
	d="
M1193.468262,1081.000000 
	C1197.666626,1059.498047 1202.254761,1037.978271 1207.096191,1016.515686 
	C1207.725220,1013.726990 1206.521851,1008.828125 1211.663452,1009.144958 
	C1217.096802,1009.479797 1215.002563,1014.193298 1214.896851,1016.982666 
	C1214.099365,1038.016968 1213.001953,1059.039917 1211.999146,1080.533203 
	C1205.978882,1081.000000 1199.957642,1081.000000 1193.468262,1081.000000 
z"/>
<path fill="#E6E6E9" opacity="1.000000" stroke="none" 
	d="
M1101.428467,1081.000000 
	C1102.459717,1069.987549 1103.786499,1058.955444 1105.408813,1047.967041 
	C1108.153687,1029.376221 1111.325195,1010.844788 1113.791138,992.218750 
	C1114.521973,986.698730 1116.731567,982.999512 1122.198608,980.000061 
	C1117.079712,1013.759521 1112.045166,1046.962646 1107.005371,1080.582886 
	C1105.285645,1081.000000 1103.571289,1081.000000 1101.428467,1081.000000 
z"/>
<path fill="#D2E5F9" opacity="1.000000" stroke="none" 
	d="
M1921.000000,952.750000 
	C1920.831177,952.972534 1920.662476,952.945129 1920.255005,952.824402 
	C1920.148438,952.471313 1920.342896,952.272339 1920.799805,952.067139 
	C1921.000000,952.000000 1921.000000,952.500000 1921.000000,952.750000 
z"/>
<path fill="#ECF6FF" opacity="1.000000" stroke="none" 
	d="
M1180.019043,450.994934 
	C1186.410034,434.788788 1192.444214,418.430176 1199.287964,402.417603 
	C1206.747681,384.964447 1216.949219,369.023193 1227.814209,353.472321 
	C1242.317139,332.714661 1258.893799,313.936401 1277.440552,296.633789 
	C1290.915283,284.062988 1305.090820,272.479095 1320.379395,262.447723 
	C1334.406616,253.244080 1349.346191,245.370972 1364.200562,237.510010 
	C1373.637817,232.515701 1383.395996,227.862289 1393.473999,224.409744 
	C1406.635498,219.900818 1420.228027,216.627533 1433.689575,213.025986 
	C1440.833862,211.114548 1448.061279,209.475739 1455.310425,208.005692 
	C1461.340698,206.782791 1467.428223,205.422913 1473.541382,205.105942 
	C1492.025879,204.147552 1510.542603,203.014008 1529.032227,203.225998 
	C1541.706665,203.371292 1554.332275,205.995636 1567.023560,206.889984 
	C1586.191162,208.240707 1604.484741,213.632233 1622.571289,219.279053 
	C1637.615234,223.975922 1652.035889,230.746307 1666.561401,236.996323 
	C1675.038696,240.643967 1683.510864,244.525299 1691.390991,249.285507 
	C1702.128784,255.771988 1712.476807,262.951202 1722.660767,270.292938 
	C1731.874756,276.935455 1741.275513,283.532715 1749.459961,291.338928 
	C1761.389282,302.716919 1772.673462,314.835938 1783.531738,327.251984 
	C1792.210571,337.175903 1800.668945,347.488007 1807.737671,358.576019 
	C1817.094360,373.252869 1825.748535,388.493042 1833.317383,404.161194 
	C1840.674561,419.391113 1847.125366,435.190002 1852.393555,451.257233 
	C1856.784180,464.647705 1858.928101,478.779388 1861.991943,492.599457 
	C1868.410156,521.549866 1867.492920,550.969421 1866.739380,580.268250 
	C1866.416138,592.839478 1863.640869,605.387207 1861.481567,617.859314 
	C1859.698242,628.160156 1857.400635,638.387878 1854.907471,648.543945 
	C1853.424072,654.587524 1851.251465,660.476196 1849.157715,666.352173 
	C1846.152710,674.785217 1843.237305,683.271301 1839.728027,691.497681 
	C1836.093018,700.018250 1832.172852,708.464966 1827.694946,716.566650 
	C1821.569824,727.647888 1815.180298,738.623291 1808.218994,749.192688 
	C1797.358032,765.682922 1784.898682,780.904846 1771.367432,795.373840 
	C1753.714844,814.249756 1733.959473,830.543701 1712.933960,845.309998 
	C1703.411743,851.997498 1692.904907,857.311035 1682.704102,862.995483 
	C1674.189819,867.740112 1665.777466,872.886719 1656.770752,876.477600 
	C1642.994873,881.970093 1628.813354,886.487122 1614.674316,891.012390 
	C1605.366943,893.991272 1595.934937,896.771484 1586.369263,898.700439 
	C1576.355591,900.719604 1566.145874,901.934692 1555.965454,902.913086 
	C1545.003540,903.966553 1533.976196,904.337341 1522.497070,904.571289 
	C1522.010986,866.829895 1522.050781,829.523132 1521.925537,792.216797 
	C1521.913696,788.721741 1523.097046,786.353699 1525.502319,783.963562 
	C1548.421021,761.189087 1571.222778,738.296997 1594.132812,715.513855 
	C1595.390259,714.263428 1597.309692,713.678711 1598.920898,712.784058 
	C1598.199829,712.512695 1597.478760,712.241333 1596.757690,711.969971 
	C1594.568848,709.313843 1592.380127,706.657715 1589.323364,702.948425 
	C1566.746216,725.545105 1544.517456,747.793030 1522.005249,770.324646 
	C1522.005249,735.291992 1522.005249,700.657288 1522.190186,665.746338 
	C1531.198730,658.189819 1540.088623,650.987854 1548.799316,643.575073 
	C1551.009277,641.694336 1553.463989,639.358887 1550.509399,636.010376 
	C1547.591431,632.703003 1545.019287,634.354248 1542.244751,636.296875 
	C1535.579590,640.963501 1528.827271,645.505493 1522.072021,649.689697 
	C1522.021118,648.190979 1522.008301,647.100464 1522.150146,645.712280 
	C1530.424805,637.870911 1538.526978,630.308167 1546.675171,622.795227 
	C1549.116577,620.544128 1549.988403,618.352783 1547.322144,615.621155 
	C1544.755737,612.991638 1542.512329,612.099426 1539.331299,615.077026 
	C1533.783569,620.269592 1527.874634,625.076111 1522.075317,629.602173 
	C1522.001831,627.082764 1521.970093,625.005493 1522.092041,622.631958 
	C1527.583374,616.042175 1532.913452,609.742493 1538.262573,603.458862 
	C1540.094971,601.306152 1540.922607,599.018127 1538.345337,597.005981 
	C1535.922974,595.114807 1533.304077,592.761414 1530.122681,595.923950 
	C1527.441040,598.589783 1524.785034,601.281128 1522.077881,603.498291 
	C1522.025513,588.537170 1521.962524,574.038513 1522.070923,559.541138 
	C1522.083008,557.919312 1522.602051,555.844543 1523.674316,554.757507 
	C1535.492554,542.776794 1547.470947,530.954102 1559.393677,519.076477 
	C1560.653564,517.821350 1561.836182,516.488403 1562.757324,515.507935 
	C1560.011353,512.453796 1557.610962,509.783997 1554.845703,506.708405 
	C1544.037231,517.503845 1533.441040,528.087219 1522.000000,539.514465 
	C1522.000000,536.154297 1522.000000,534.328308 1522.000000,532.502380 
	C1522.000000,507.671722 1522.017456,482.841064 1521.958008,458.010529 
	C1521.954346,456.445923 1521.518433,453.597290 1520.996582,453.528717 
	C1517.744141,453.101166 1514.355957,452.983917 1511.146851,453.538788 
	C1510.477783,453.654480 1510.053589,457.016968 1510.050415,458.884125 
	C1509.974243,502.878998 1509.971313,546.874023 1509.619507,590.953491 
	C1507.601074,592.601257 1505.688965,593.981934 1504.273315,595.758179 
	C1496.513184,605.495483 1488.874634,615.329834 1480.874023,624.977417 
	C1479.222778,623.571716 1477.859131,622.352234 1476.566162,621.062073 
	C1467.379395,611.895691 1458.259888,602.660706 1448.964478,593.606079 
	C1447.784302,592.456360 1445.253052,591.223145 1444.122681,591.736145 
	C1437.807495,594.602600 1437.286133,598.661560 1442.130737,603.613281 
	C1443.167969,604.673279 1444.065674,605.869629 1445.018555,607.416870 
	C1445.613647,610.377136 1446.333496,612.902771 1446.798462,615.474365 
	C1447.817383,621.110962 1450.201172,627.003845 1449.363770,632.376770 
	C1447.045288,647.249084 1443.907349,661.967468 1444.495605,677.050781 
	C1441.588867,675.123108 1438.906616,673.418640 1436.450806,671.433899 
	C1433.103271,668.728516 1430.918945,669.320618 1428.328125,672.808899 
	C1413.432495,692.866028 1398.316162,712.759338 1383.267212,732.702637 
	C1380.792725,735.982056 1378.282227,739.234558 1375.928223,742.316406 
	C1363.418823,735.893555 1353.749756,726.465271 1341.559570,720.225098 
	C1326.778076,712.658386 1313.810181,701.500610 1300.225342,691.665039 
	C1293.832764,687.036743 1288.348633,680.925293 1281.522461,677.182861 
	C1273.123047,672.578003 1263.852783,669.460205 1254.763794,666.252319 
	C1249.423096,664.367371 1243.703369,663.555969 1237.840698,662.037048 
	C1235.675049,661.157410 1233.868042,660.279724 1231.961548,659.892883 
	C1227.707520,659.029602 1225.687134,657.269836 1225.772705,652.265076 
	C1225.938721,642.541016 1225.075073,632.799500 1224.629028,622.723999 
	C1224.569458,621.276489 1224.518921,620.170288 1224.856689,619.111267 
	C1232.032349,619.512085 1238.823120,620.213135 1245.606201,620.144897 
	C1258.661011,620.013550 1271.710815,619.418640 1284.764282,619.078979 
	C1288.362671,618.985413 1289.582153,616.902771 1290.011108,613.705444 
	C1290.780273,607.970764 1292.096558,602.286621 1292.514404,596.532776 
	C1293.253540,586.356079 1293.490479,576.142944 1293.981323,565.557007 
	C1296.876709,559.088257 1296.263916,553.026245 1293.987061,546.520142 
	C1293.987061,540.843628 1293.927002,535.620544 1293.948853,530.001953 
	C1295.187500,524.112915 1296.782471,518.663025 1297.335938,513.109375 
	C1297.664307,509.814056 1298.736694,507.806793 1301.202881,505.708435 
	C1312.497803,496.098297 1319.322876,484.111877 1318.920044,468.899323 
	C1318.504517,453.198639 1306.909912,444.743896 1291.834961,448.851654 
	C1288.798828,449.678955 1285.735962,450.457031 1282.779663,451.519775 
	C1269.964111,456.126587 1257.301514,456.287323 1244.275024,451.818542 
	C1227.966675,446.223877 1211.087769,445.421997 1194.080688,448.077026 
	C1189.356812,448.814545 1184.704346,450.009735 1180.019043,450.994934 
z"/>
<path fill="#EF9119" opacity="1.000000" stroke="none" 
	d="
M1238.154175,662.261719 
	C1243.703369,663.555969 1249.423096,664.367371 1254.763794,666.252319 
	C1263.852783,669.460205 1273.123047,672.578003 1281.522461,677.182861 
	C1288.348633,680.925293 1293.832764,687.036743 1300.225342,691.665039 
	C1313.810181,701.500610 1326.778076,712.658386 1341.559570,720.225098 
	C1353.749756,726.465271 1363.418823,735.893555 1375.928223,742.316406 
	C1378.282227,739.234558 1380.792725,735.982056 1383.267212,732.702637 
	C1398.316162,712.759338 1413.432495,692.866028 1428.328125,672.808899 
	C1430.918945,669.320618 1433.103271,668.728516 1436.450806,671.433899 
	C1438.906616,673.418640 1441.588867,675.123108 1444.662964,677.352478 
	C1457.307007,686.434631 1469.458252,695.116760 1481.893311,704.024841 
	C1487.900879,708.216064 1493.622070,712.185242 1499.349487,716.145447 
	C1505.120117,720.135559 1505.148560,720.306824 1501.114258,725.651917 
	C1500.724976,726.167847 1500.546509,726.837463 1500.201050,727.392700 
	C1490.154785,743.538940 1480.407715,759.881897 1469.971680,775.772522 
	C1455.450439,797.883484 1439.420776,818.868103 1419.654541,836.644287 
	C1411.850830,843.662415 1403.508545,850.195557 1393.045288,852.966675 
	C1371.807129,858.591431 1353.013184,851.972168 1335.413818,840.914917 
	C1338.284668,838.491394 1337.244629,836.367554 1335.682617,834.130554 
	C1325.007324,818.841370 1314.322388,803.558228 1303.771606,788.183228 
	C1302.416626,786.208679 1301.435425,783.797852 1300.930420,781.449402 
	C1298.069458,768.144836 1295.408691,754.797241 1292.673706,741.465515 
	C1292.086914,738.604675 1291.456299,735.497803 1287.533691,736.191833 
	C1283.451294,736.914124 1284.790283,740.269653 1285.229248,742.648438 
	C1288.906860,762.576050 1292.691040,782.484314 1296.527588,802.382141 
	C1301.933228,830.417847 1307.468628,858.428833 1312.748779,886.487976 
	C1313.166626,888.708923 1312.612183,891.546997 1311.502563,893.536438 
	C1308.670898,898.613892 1305.447388,903.505127 1301.989868,908.182007 
	C1300.917236,909.632935 1298.593262,910.981018 1296.838257,910.985840 
	C1242.856201,911.134277 1188.873413,911.136108 1134.891357,910.992554 
	C1133.135986,910.987915 1130.770996,909.667419 1129.727905,908.215027 
	C1119.725952,894.287537 1109.888062,880.240356 1100.179688,866.106079 
	C1098.956909,864.325867 1098.195312,861.852112 1098.168579,859.687927 
	C1097.993652,845.527954 1098.020264,831.364258 1098.153442,817.203369 
	C1098.171021,815.352661 1098.787109,813.262817 1099.784180,811.705017 
	C1107.181274,800.148071 1114.750000,788.701172 1122.253540,777.212402 
	C1125.857178,771.694824 1129.436523,766.161438 1132.971558,760.720276 
	C1128.166016,755.985474 1127.789062,755.976501 1124.613892,760.755005 
	C1119.325806,768.713257 1114.055786,776.683960 1108.841064,784.690430 
	C1099.132202,799.597534 1089.511841,814.562561 1079.756714,829.439209 
	C1077.192627,833.349365 1074.269165,837.023926 1071.234009,841.186340 
	C1067.648071,836.390320 1064.493530,831.901917 1060.992676,827.702026 
	C1060.233643,826.791382 1058.231323,826.917053 1056.801636,826.565430 
	C1056.694702,827.936462 1056.342163,829.349670 1056.567749,830.663635 
	C1056.717407,831.536438 1057.701538,832.261292 1058.298462,833.062744 
	C1079.578125,861.637756 1100.859253,890.211853 1122.132690,918.791565 
	C1127.755981,926.346191 1133.355469,933.918701 1139.138672,941.715942 
	C1127.367065,952.110168 1115.964355,962.067200 1104.694092,972.171875 
	C1097.899170,978.264038 1091.310181,984.585815 1084.628662,990.804443 
	C1067.935181,976.128601 1050.672485,962.041504 1034.708008,946.611145 
	C1018.770142,931.206665 1004.173096,914.409851 992.856628,895.126099 
	C986.601746,884.467590 980.577454,873.589050 978.703430,861.176208 
	C977.110962,850.628052 977.470154,840.079529 979.790405,829.514465 
	C985.261414,804.603027 995.273132,781.408325 1008.529297,759.983643 
	C1018.768372,743.435303 1031.510132,728.368042 1043.795288,713.172791 
	C1055.045288,699.257935 1068.541992,687.596069 1082.784302,676.693665 
	C1098.978882,664.296692 1117.403076,658.526978 1137.215698,656.002441 
	C1142.537720,655.324280 1147.829834,654.410339 1153.773682,653.666077 
	C1155.163574,654.326294 1156.345947,654.780762 1156.602295,655.545715 
	C1160.016968,665.736816 1168.357788,671.557251 1176.751465,676.588379 
	C1190.627319,684.905640 1206.254761,686.343567 1222.109253,684.931458 
	C1232.254639,684.027832 1237.862061,677.730835 1238.072144,667.740723 
	C1238.110474,665.914612 1238.127319,664.088074 1238.154175,662.261719 
z"/>
<path fill="#1A151F" opacity="1.000000" stroke="none" 
	d="
M1179.652344,451.035095 
	C1184.704346,450.009735 1189.356812,448.814545 1194.080688,448.077026 
	C1211.087769,445.421997 1227.966675,446.223877 1244.275024,451.818542 
	C1257.301514,456.287323 1269.964111,456.126587 1282.779663,451.519775 
	C1285.735962,450.457031 1288.798828,449.678955 1291.834961,448.851654 
	C1306.909912,444.743896 1318.504517,453.198639 1318.920044,468.899323 
	C1319.322876,484.111877 1312.497803,496.098297 1301.202881,505.708435 
	C1298.736694,507.806793 1297.664307,509.814056 1297.335938,513.109375 
	C1296.782471,518.663025 1295.187500,524.112915 1293.616943,529.775574 
	C1291.913330,524.530090 1290.623535,519.115540 1289.273804,513.449402 
	C1273.029175,519.804443 1257.282104,519.371155 1241.229614,515.426331 
	C1229.166260,512.461792 1216.930176,510.097198 1204.671997,508.060547 
	C1194.839844,506.426941 1193.088623,508.676117 1192.010254,518.574890 
	C1190.755005,530.099304 1188.614868,541.527283 1186.402466,552.996338 
	C1183.476318,553.004272 1180.990601,552.844055 1178.541016,553.072998 
	C1176.420776,553.271179 1173.175781,551.635193 1173.030640,555.877991 
	C1172.885620,560.117554 1176.078857,558.674011 1178.262695,559.009705 
	C1179.831177,559.250732 1181.382812,559.599731 1182.815674,560.216614 
	C1180.620972,562.550903 1178.552734,564.569275 1176.276733,566.790283 
	C1175.342773,565.618530 1174.909180,565.157471 1174.568848,564.635559 
	C1167.565552,553.894775 1158.358765,545.975647 1145.981689,541.978271 
	C1144.222656,541.410156 1142.695068,540.124817 1141.060425,539.171387 
	C1139.650269,532.764221 1138.561646,526.265442 1136.766968,519.967896 
	C1132.148560,503.762177 1136.829224,489.475494 1145.226318,475.835938 
	C1153.183594,462.910583 1165.216431,455.592834 1179.652344,451.035095 
z"/>
<path fill="#F8AAA0" opacity="1.000000" stroke="none" 
	d="
M1140.832031,539.516602 
	C1142.695068,540.124817 1144.222656,541.410156 1145.981689,541.978271 
	C1158.358765,545.975647 1167.565552,553.894775 1174.568848,564.635559 
	C1174.909180,565.157471 1175.342773,565.618530 1176.276733,566.790283 
	C1178.552734,564.569275 1180.620972,562.550903 1183.207031,560.068481 
	C1191.497559,559.460876 1199.276489,559.457886 1207.040283,559.111694 
	C1210.647827,558.950806 1212.580322,559.873413 1213.913330,563.612915 
	C1216.753540,571.580566 1224.178101,576.467896 1232.135376,576.512207 
	C1240.350708,576.557983 1247.670288,571.579102 1251.411621,563.888306 
	C1251.818115,571.018982 1251.818115,577.938354 1251.818115,585.073547 
	C1255.841797,585.073547 1260.326904,585.073547 1265.734497,585.073547 
	C1264.491211,582.416077 1263.502930,580.878479 1263.043213,579.196350 
	C1262.199951,576.111389 1261.668579,572.941162 1261.145264,570.128235 
	C1273.985840,579.880249 1283.956055,578.504761 1293.937500,565.945068 
	C1293.490479,576.142944 1293.253540,586.356079 1292.514404,596.532776 
	C1292.096558,602.286621 1290.780273,607.970764 1290.011108,613.705444 
	C1289.582153,616.902771 1288.362671,618.985413 1284.764282,619.078979 
	C1271.710815,619.418640 1258.661011,620.013550 1245.606201,620.144897 
	C1238.823120,620.213135 1232.032349,619.512085 1224.411865,619.084229 
	C1212.694214,616.720520 1201.809814,614.431152 1190.925293,612.141785 
	C1190.856079,612.336670 1190.786743,612.531555 1190.717529,612.726440 
	C1201.612915,620.087524 1212.508179,627.448547 1223.853516,635.113647 
	C1224.150879,630.546448 1224.394409,626.805786 1224.637939,623.065186 
	C1225.075073,632.799500 1225.938721,642.541016 1225.772705,652.265076 
	C1225.687134,657.269836 1227.707520,659.029602 1231.961548,659.892883 
	C1233.868042,660.279724 1235.675049,661.157410 1237.840698,662.037048 
	C1238.127319,664.088074 1238.110474,665.914612 1238.072144,667.740723 
	C1237.862061,677.730835 1232.254639,684.027832 1222.109253,684.931458 
	C1206.254761,686.343567 1190.627319,684.905640 1176.751465,676.588379 
	C1168.357788,671.557251 1160.016968,665.736816 1156.602295,655.545715 
	C1156.345947,654.780762 1155.163574,654.326294 1154.119385,653.539551 
	C1157.114380,653.178101 1160.401611,653.004578 1163.652466,652.832947 
	C1165.456543,638.861328 1167.281250,625.133179 1168.962158,611.387390 
	C1169.315796,608.496338 1169.115112,606.452087 1165.326904,604.729919 
	C1152.164307,598.746216 1139.420288,591.845581 1129.442261,580.927612 
	C1120.726807,571.391174 1118.167725,559.448608 1123.054321,548.810120 
	C1126.547852,541.204285 1133.134033,539.667908 1140.832031,539.516602 
M1233.927246,592.508179 
	C1238.001099,594.645386 1242.074951,596.782654 1246.594116,599.153503 
	C1248.096802,594.483643 1248.209961,592.218872 1243.720337,591.587524 
	C1241.621582,591.292358 1239.292725,589.842041 1237.857666,588.217773 
	C1235.114258,585.112488 1233.041504,585.823792 1230.395508,588.564209 
	C1231.472534,589.798279 1232.430054,590.895508 1233.927246,592.508179 
z"/>
<path fill="#5E804F" opacity="1.000000" stroke="none" 
	d="
M1084.802002,991.083862 
	C1091.310181,984.585815 1097.899170,978.264038 1104.694092,972.171875 
	C1115.964355,962.067200 1127.367065,952.110168 1139.138672,941.715942 
	C1133.355469,933.918701 1127.755981,926.346191 1122.132690,918.791565 
	C1100.859253,890.211853 1079.578125,861.637756 1058.298462,833.062744 
	C1057.701538,832.261292 1056.717407,831.536438 1056.567749,830.663635 
	C1056.342163,829.349670 1056.694702,827.936462 1056.801636,826.565430 
	C1058.231323,826.917053 1060.233643,826.791382 1060.992676,827.702026 
	C1064.493530,831.901917 1067.648071,836.390320 1071.234009,841.186340 
	C1074.269165,837.023926 1077.192627,833.349365 1079.756714,829.439209 
	C1089.511841,814.562561 1099.132202,799.597534 1108.841064,784.690430 
	C1114.055786,776.683960 1119.325806,768.713257 1124.613892,760.755005 
	C1127.789062,755.976501 1128.166016,755.985474 1132.971558,760.720276 
	C1129.436523,766.161438 1125.857178,771.694824 1122.253540,777.212402 
	C1114.750000,788.701172 1107.181274,800.148071 1099.784180,811.705017 
	C1098.787109,813.262817 1098.171021,815.352661 1098.153442,817.203369 
	C1098.020264,831.364258 1097.993652,845.527954 1098.168579,859.687927 
	C1098.195312,861.852112 1098.956909,864.325867 1100.179688,866.106079 
	C1109.888062,880.240356 1119.725952,894.287537 1129.727905,908.215027 
	C1130.770996,909.667419 1133.135986,910.987915 1134.891357,910.992554 
	C1188.873413,911.136108 1242.856201,911.134277 1296.838257,910.985840 
	C1298.593262,910.981018 1300.917236,909.632935 1301.989868,908.182007 
	C1305.447388,903.505127 1308.670898,898.613892 1311.502563,893.536438 
	C1312.612183,891.546997 1313.166626,888.708923 1312.748779,886.487976 
	C1307.468628,858.428833 1301.933228,830.417847 1296.527588,802.382141 
	C1292.691040,782.484314 1288.906860,762.576050 1285.229248,742.648438 
	C1284.790283,740.269653 1283.451294,736.914124 1287.533691,736.191833 
	C1291.456299,735.497803 1292.086914,738.604675 1292.673706,741.465515 
	C1295.408691,754.797241 1298.069458,768.144836 1300.930420,781.449402 
	C1301.435425,783.797852 1302.416626,786.208679 1303.771606,788.183228 
	C1314.322388,803.558228 1325.007324,818.841370 1335.682617,834.130554 
	C1337.244629,836.367554 1338.284668,838.491394 1335.049683,840.847778 
	C1324.934814,833.981140 1315.489868,826.963440 1305.657104,819.657593 
	C1307.138794,826.206909 1308.583008,832.590332 1310.032593,839.310303 
	C1310.456177,840.049255 1310.874390,840.451660 1311.317505,840.727661 
	C1311.342407,840.601135 1311.579834,840.500793 1311.579834,840.500793 
	C1312.132568,846.149780 1312.283203,851.873474 1313.316528,857.433105 
	C1315.977661,871.748657 1319.166992,885.965637 1321.877075,900.272827 
	C1323.689087,909.839172 1311.294678,919.576965 1300.437256,917.091309 
	C1290.707031,917.065247 1281.382935,916.924194 1272.058716,916.919495 
	C1225.918823,916.896362 1179.779053,916.909302 1133.639160,916.909485 
	C1132.031738,916.909485 1130.424438,916.909363 1127.332397,916.909363 
	C1133.476562,924.784851 1138.607666,931.855469 1144.313354,938.427307 
	C1146.532104,940.983032 1146.680664,942.411560 1144.322632,944.532227 
	C1140.248413,948.196472 1136.253296,951.948486 1131.768921,956.078979 
	C1120.572510,966.002319 1109.832031,975.510254 1099.091675,985.018188 
	C1096.625366,986.977783 1094.246338,989.064209 1091.658081,990.846436 
	C1090.244263,991.819885 1088.475952,992.278381 1086.496826,992.949341 
	C1085.742676,992.407410 1085.359009,991.885315 1084.802002,991.083862 
z"/>
<path fill="#B6D4FF" opacity="1.000000" stroke="none" 
	d="
M1522.005249,666.022644 
	C1522.005249,700.657288 1522.005249,735.291992 1522.005249,770.324646 
	C1544.517456,747.793030 1566.746216,725.545105 1589.323364,702.948425 
	C1592.380127,706.657715 1594.568848,709.313843 1596.757690,711.969971 
	C1597.478760,712.241333 1598.199829,712.512695 1598.920898,712.784058 
	C1597.309692,713.678711 1595.390259,714.263428 1594.132812,715.513855 
	C1571.222778,738.296997 1548.421021,761.189087 1525.502319,783.963562 
	C1523.097046,786.353699 1521.913696,788.721741 1521.925537,792.216797 
	C1522.050781,829.523132 1522.010986,866.829895 1522.032959,904.609375 
	C1522.049194,905.082153 1522.021606,905.514099 1522.064331,905.726196 
	C1518.241577,906.131226 1514.376099,906.324219 1510.231201,906.212219 
	C1509.951660,905.907166 1509.988281,905.495789 1509.986572,904.817200 
	C1509.991333,846.186401 1510.008179,788.234131 1509.998169,730.281921 
	C1509.995239,713.463867 1509.915283,696.645813 1510.033569,679.539429 
	C1514.132812,674.841614 1518.068970,670.432129 1522.005249,666.022644 
z"/>
<path fill="#ECF6FF" opacity="1.000000" stroke="none" 
	d="
M1509.870605,679.827759 
	C1509.915283,696.645813 1509.995239,713.463867 1509.998169,730.281921 
	C1510.008179,788.234131 1509.991333,846.186401 1509.967773,904.611572 
	C1494.560181,904.055542 1479.038818,903.933105 1463.815918,901.740112 
	C1448.909302,899.592712 1434.183228,895.793091 1419.607544,891.866150 
	C1407.132446,888.505066 1394.563843,884.882324 1382.791260,879.670593 
	C1367.028320,872.692261 1351.861572,864.311340 1336.697021,856.058350 
	C1328.269531,851.471863 1320.366577,845.921326 1311.903564,840.653076 
	C1311.579834,840.500793 1311.342407,840.601135 1311.494873,840.413940 
	C1311.107422,839.809021 1310.567261,839.391418 1310.027222,838.973755 
	C1308.583008,832.590332 1307.138794,826.206909 1305.657104,819.657593 
	C1315.489868,826.963440 1324.934814,833.981140 1334.743896,841.065979 
	C1353.013184,851.972168 1371.807129,858.591431 1393.045288,852.966675 
	C1403.508545,850.195557 1411.850830,843.662415 1419.654541,836.644287 
	C1439.420776,818.868103 1455.450439,797.883484 1469.971680,775.772522 
	C1480.407715,759.881897 1490.154785,743.538940 1500.201050,727.392700 
	C1500.546509,726.837463 1500.724976,726.167847 1501.114258,725.651917 
	C1505.148560,720.306824 1505.120117,720.135559 1499.349487,716.145447 
	C1493.622070,712.185242 1487.900879,708.216064 1482.146973,703.776123 
	C1485.136719,701.313354 1488.434814,699.641052 1491.121216,697.274475 
	C1497.524658,691.633362 1503.639282,685.664307 1509.870605,679.827759 
z"/>
<path fill="#CCE3FE" opacity="1.000000" stroke="none" 
	d="
M1535.754395,952.799500 
	C1534.139038,963.491272 1532.229858,973.872559 1530.339722,984.257324 
	C1530.167480,985.202576 1530.117920,986.169983 1530.064331,987.540527 
	C1511.023193,987.962891 1491.928955,987.971802 1472.358643,987.967468 
	C1473.920532,976.609009 1475.958374,965.263855 1477.985107,953.492920 
	C1479.026489,952.711487 1480.077881,952.049500 1481.131714,952.045898 
	C1498.606689,951.986023 1516.082031,952.003784 1533.557251,952.033203 
	C1534.193726,952.034241 1534.829590,952.331055 1535.754395,952.799500 
z"/>
<path fill="#B6D4FF" opacity="1.000000" stroke="none" 
	d="
M1522.060059,1069.485107 
	C1519.663818,1069.947998 1517.217041,1069.947998 1514.073975,1069.947998 
	C1516.348633,1057.819824 1518.517456,1046.255615 1520.840576,1034.320557 
	C1521.181030,1033.963013 1521.367310,1033.975952 1521.831909,1034.018799 
	C1522.076660,1045.706543 1522.042969,1057.364380 1522.060059,1069.485107 
z"/>
<path fill="#F6A89F" opacity="1.000000" stroke="none" 
	d="
M1099.346802,985.221680 
	C1109.832031,975.510254 1120.572510,966.002319 1131.614136,956.395752 
	C1134.692749,959.275391 1134.703369,961.641663 1131.232910,964.474243 
	C1121.949097,972.052063 1112.962280,979.994080 1103.607910,988.005188 
	C1102.285767,987.153687 1100.943848,986.289368 1099.346802,985.221680 
z"/>
<path fill="#F8ABA1" opacity="1.000000" stroke="none" 
	d="
M1510.033569,679.539429 
	C1503.639282,685.664307 1497.524658,691.633362 1491.121216,697.274475 
	C1488.434814,699.641052 1485.136719,701.313354 1481.863159,703.550171 
	C1469.458252,695.116760 1457.307007,686.434631 1444.988403,677.450806 
	C1443.907349,661.967468 1447.045288,647.249084 1449.363770,632.376770 
	C1450.201172,627.003845 1447.817383,621.110962 1446.798462,615.474365 
	C1446.333496,612.902771 1445.613647,610.377136 1445.334717,607.262512 
	C1448.336426,607.544556 1451.418823,607.818970 1453.607056,609.361572 
	C1458.562744,612.854919 1461.021240,618.139954 1462.061157,624.482361 
	C1462.868774,630.796204 1463.707642,636.687134 1464.546509,642.578003 
	C1465.168701,642.757751 1465.791016,642.937561 1466.413330,643.117310 
	C1468.685669,640.481934 1470.958008,637.846619 1473.500000,635.013184 
	C1476.244385,631.586975 1478.719360,628.358887 1481.194336,625.130737 
	C1488.874634,615.329834 1496.513184,605.495483 1504.273315,595.758179 
	C1505.688965,593.981934 1507.601074,592.601257 1509.979736,591.039429 
	C1516.867554,593.824951 1517.375854,595.766663 1513.500610,601.029968 
	C1512.147217,602.867920 1511.085205,604.920349 1509.604736,607.056885 
	C1502.625732,616.708191 1495.932129,626.177490 1489.238647,635.646790 
	C1489.823975,636.099731 1490.409302,636.552673 1490.994629,637.005554 
	C1497.353394,630.054443 1503.712036,623.103333 1510.366211,615.990723 
	C1514.480347,611.873169 1518.299072,607.917236 1522.117676,603.961182 
	C1524.785034,601.281128 1527.441040,598.589783 1530.122681,595.923950 
	C1533.304077,592.761414 1535.922974,595.114807 1538.345337,597.005981 
	C1540.922607,599.018127 1540.094971,601.306152 1538.262573,603.458862 
	C1532.913452,609.742493 1527.583374,616.042175 1521.795654,622.788818 
	C1517.536499,627.535461 1513.727417,631.828857 1509.652588,636.294800 
	C1506.293945,640.259949 1503.201050,644.052612 1500.108154,647.845276 
	C1500.413818,648.111145 1500.719604,648.377075 1501.025269,648.642944 
	C1504.005859,646.040588 1506.986572,643.438171 1510.275635,640.726562 
	C1514.428345,637.093018 1518.272705,633.568665 1522.117065,630.044373 
	C1527.874634,625.076111 1533.783569,620.269592 1539.331299,615.077026 
	C1542.512329,612.099426 1544.755737,612.991638 1547.322144,615.621155 
	C1549.988403,618.352783 1549.116577,620.544128 1546.675171,622.795227 
	C1538.526978,630.308167 1530.424805,637.870911 1521.847412,645.848389 
	C1518.209839,649.449097 1515.029907,652.616028 1511.849976,655.782898 
	C1512.172241,656.154724 1512.494507,656.526611 1512.816772,656.898499 
	C1515.914551,654.631653 1519.012329,652.364807 1522.110107,650.097900 
	C1528.827271,645.505493 1535.579590,640.963501 1542.244751,636.296875 
	C1545.019287,634.354248 1547.591431,632.703003 1550.509399,636.010376 
	C1553.463989,639.358887 1551.009277,641.694336 1548.799316,643.575073 
	C1540.088623,650.987854 1531.198730,658.189819 1522.190186,665.746338 
	C1518.068970,670.432129 1514.132812,674.841614 1510.033569,679.539429 
M1488.596680,638.816101 
	C1488.605713,638.415527 1488.614746,638.014893 1488.623901,637.614319 
	C1488.266846,637.819458 1487.909668,638.024658 1487.552612,638.229858 
	C1487.770630,638.538269 1487.988770,638.846619 1488.596680,638.816101 
z"/>
<path fill="#F6A89F" opacity="1.000000" stroke="none" 
	d="
M1186.858521,552.997131 
	C1188.614868,541.527283 1190.755005,530.099304 1192.010254,518.574890 
	C1193.088623,508.676117 1194.839844,506.426941 1204.671997,508.060547 
	C1216.930176,510.097198 1229.166260,512.461792 1241.229614,515.426331 
	C1257.282104,519.371155 1273.029175,519.804443 1289.273804,513.449402 
	C1290.623535,519.115540 1291.913330,524.530090 1293.535034,530.171021 
	C1293.927002,535.620544 1293.987061,540.843628 1293.727783,546.323730 
	C1290.831055,544.039246 1288.639404,540.832275 1285.607666,539.074768 
	C1274.225464,532.476379 1260.775146,538.244507 1256.635498,550.991333 
	C1256.203369,552.322021 1254.788940,553.333618 1253.830200,554.493286 
	C1253.220459,553.639832 1252.354614,552.870972 1252.040649,551.919861 
	C1248.976074,542.637146 1241.793457,536.621887 1233.045776,536.138916 
	C1225.178101,535.704529 1217.128418,541.125977 1213.619873,549.799255 
	C1212.501099,552.565002 1211.092285,553.757263 1208.263672,553.659851 
	C1201.129517,553.414001 1193.993652,553.214905 1186.858521,552.997131 
z"/>
<path fill="#B6D4FF" opacity="1.000000" stroke="none" 
	d="
M1522.077881,603.498352 
	C1518.299072,607.917236 1514.480347,611.873169 1510.343750,615.523682 
	C1509.980591,612.437134 1509.935303,609.655945 1509.890137,606.874878 
	C1511.085205,604.920349 1512.147217,602.867920 1513.500610,601.029968 
	C1517.375854,595.766663 1516.867554,593.824951 1510.315186,590.954956 
	C1509.971313,546.874023 1509.974243,502.878998 1510.050415,458.884125 
	C1510.053589,457.016968 1510.477783,453.654480 1511.146851,453.538788 
	C1514.355957,452.983917 1517.744141,453.101166 1520.996582,453.528717 
	C1521.518433,453.597290 1521.954346,456.445923 1521.958008,458.010529 
	C1522.017456,482.841064 1522.000000,507.671722 1522.000000,532.502380 
	C1522.000000,534.328308 1522.000000,536.154297 1522.000000,539.514465 
	C1533.441040,528.087219 1544.037231,517.503845 1554.845703,506.708405 
	C1557.610962,509.783997 1560.011353,512.453796 1562.757324,515.507935 
	C1561.836182,516.488403 1560.653564,517.821350 1559.393677,519.076477 
	C1547.470947,530.954102 1535.492554,542.776794 1523.674316,554.757507 
	C1522.602051,555.844543 1522.083008,557.919312 1522.070923,559.541138 
	C1521.962524,574.038513 1522.025513,588.537170 1522.077881,603.498352 
z"/>
<path fill="#2B2839" opacity="1.000000" stroke="none" 
	d="
M1186.402466,552.996338 
	C1193.993652,553.214905 1201.129517,553.414001 1208.263672,553.659851 
	C1211.092285,553.757263 1212.501099,552.565002 1213.619873,549.799255 
	C1217.128418,541.125977 1225.178101,535.704529 1233.045776,536.138916 
	C1241.793457,536.621887 1248.976074,542.637146 1252.040649,551.919861 
	C1252.354614,552.870972 1253.220459,553.639832 1253.830200,554.493286 
	C1254.788940,553.333618 1256.203369,552.322021 1256.635498,550.991333 
	C1260.775146,538.244507 1274.225464,532.476379 1285.607666,539.074768 
	C1288.639404,540.832275 1290.831055,544.039246 1293.667725,546.777161 
	C1296.263916,553.026245 1296.876709,559.088257 1293.981323,565.557007 
	C1283.956055,578.504761 1273.985840,579.880249 1260.942383,569.867981 
	C1258.632935,566.128601 1256.664307,562.971191 1254.453735,559.425354 
	C1253.002441,561.214478 1252.003662,562.445740 1251.005005,563.677002 
	C1247.670288,571.579102 1240.350708,576.557983 1232.135376,576.512207 
	C1224.178101,576.467896 1216.753540,571.580566 1213.913330,563.612915 
	C1212.580322,559.873413 1210.647827,558.950806 1207.040283,559.111694 
	C1199.276489,559.457886 1191.497559,559.460876 1183.333374,559.752502 
	C1181.382812,559.599731 1179.831177,559.250732 1178.262695,559.009705 
	C1176.078857,558.674011 1172.885620,560.117554 1173.030640,555.877991 
	C1173.175781,551.635193 1176.420776,553.271179 1178.541016,553.072998 
	C1180.990601,552.844055 1183.476318,553.004272 1186.402466,552.996338 
M1283.088501,568.811584 
	C1285.260254,565.810059 1288.111938,563.080261 1289.445312,559.743652 
	C1291.474976,554.664856 1288.512207,547.770874 1283.837769,544.417603 
	C1279.284302,541.151123 1272.700562,541.321289 1267.496216,544.840027 
	C1262.863403,547.972351 1260.909546,554.126770 1261.796143,559.553223 
	C1263.055908,567.261658 1273.818359,574.166321 1283.088501,568.811584 
M1218.454468,559.704956 
	C1219.240723,561.333557 1219.846313,563.083618 1220.844727,564.569702 
	C1224.965210,570.703003 1233.316895,572.660278 1239.306519,569.013306 
	C1246.355835,564.721130 1248.750000,556.477783 1244.947144,549.591858 
	C1241.704956,543.721069 1235.135254,540.856018 1228.906494,542.596497 
	C1221.510498,544.663086 1217.785034,550.357178 1218.454468,559.704956 
z"/>
<path fill="#B6D4FF" opacity="1.000000" stroke="none" 
	d="
M1462.092407,624.059387 
	C1461.021240,618.139954 1458.562744,612.854919 1453.607056,609.361572 
	C1451.418823,607.818970 1448.336426,607.544556 1445.343872,606.848755 
	C1444.065674,605.869629 1443.167969,604.673279 1442.130737,603.613281 
	C1437.286133,598.661560 1437.807495,594.602600 1444.122681,591.736145 
	C1445.253052,591.223145 1447.784302,592.456360 1448.964478,593.606079 
	C1458.259888,602.660706 1467.379395,611.895691 1476.566162,621.062073 
	C1477.859131,622.352234 1479.222778,623.571716 1480.874023,624.977356 
	C1478.719360,628.358887 1476.244385,631.586975 1473.325684,634.695801 
	C1469.285400,631.070862 1465.688965,627.565125 1462.092407,624.059387 
z"/>
<path fill="#8B4777" opacity="1.000000" stroke="none" 
	d="
M1224.628906,622.723999 
	C1224.394409,626.805786 1224.150879,630.546448 1223.853516,635.113647 
	C1212.508179,627.448547 1201.612915,620.087524 1190.717529,612.726440 
	C1190.786743,612.531555 1190.856079,612.336670 1190.925293,612.141785 
	C1201.809814,614.431152 1212.694214,616.720520 1224.023438,619.036987 
	C1224.518921,620.170288 1224.569458,621.276489 1224.628906,622.723999 
z"/>
<path fill="#B6D4FF" opacity="1.000000" stroke="none" 
	d="
M1509.918457,636.122253 
	C1513.727417,631.828857 1517.536499,627.535461 1521.641846,623.085205 
	C1521.970093,625.005493 1522.001831,627.082764 1522.075317,629.602173 
	C1518.272705,633.568665 1514.428345,637.093018 1510.288696,640.335144 
	C1509.968384,638.742676 1509.943359,637.432495 1509.918457,636.122253 
z"/>
<path fill="#B6D4FF" opacity="1.000000" stroke="none" 
	d="
M1522.072021,649.689697 
	C1519.012329,652.364807 1515.914551,654.631653 1512.816772,656.898499 
	C1512.494507,656.526611 1512.172241,656.154724 1511.849976,655.782898 
	C1515.029907,652.616028 1518.209839,649.449097 1521.692627,646.146118 
	C1522.008301,647.100464 1522.021118,648.190979 1522.072021,649.689697 
z"/>
<path fill="#1D0A78" opacity="1.000000" stroke="none" 
	d="
M1251.411621,563.888306 
	C1252.003662,562.445740 1253.002441,561.214478 1254.453735,559.425354 
	C1256.664307,562.971191 1258.632935,566.128601 1260.804443,569.546265 
	C1261.668579,572.941162 1262.199951,576.111389 1263.043213,579.196350 
	C1263.502930,580.878479 1264.491211,582.416077 1265.734497,585.073547 
	C1260.326904,585.073547 1255.841797,585.073547 1251.818115,585.073547 
	C1251.818115,577.938354 1251.818115,571.018982 1251.411621,563.888306 
z"/>
<path fill="#2B2839" opacity="1.000000" stroke="none" 
	d="
M1233.657471,592.250488 
	C1232.430054,590.895508 1231.472534,589.798279 1230.395508,588.564209 
	C1233.041504,585.823792 1235.114258,585.112488 1237.857666,588.217773 
	C1239.292725,589.842041 1241.621582,591.292358 1243.720337,591.587524 
	C1248.209961,592.218872 1248.096802,594.483643 1246.594116,599.153503 
	C1242.074951,596.782654 1238.001099,594.645386 1233.657471,592.250488 
z"/>
<path fill="#000000" opacity="1.000000" stroke="none" 
	d="
M1310.032593,839.310303 
	C1310.567261,839.391418 1311.107422,839.809021 1311.469971,840.540405 
	C1310.874390,840.451660 1310.456177,840.049255 1310.032593,839.310303 
z"/>
<path fill="#ECF6FF" opacity="1.000000" stroke="none" 
	d="
M1509.604614,607.056885 
	C1509.935303,609.655945 1509.980591,612.437134 1510.048340,615.685242 
	C1503.712036,623.103333 1497.353394,630.054443 1490.994629,637.005554 
	C1490.409302,636.552673 1489.823975,636.099731 1489.238647,635.646790 
	C1495.932129,626.177490 1502.625732,616.708191 1509.604614,607.056885 
z"/>
<path fill="#ECF6FF" opacity="1.000000" stroke="none" 
	d="
M1462.061157,624.482361 
	C1465.688965,627.565125 1469.285400,631.070862 1473.056152,634.893921 
	C1470.958008,637.846619 1468.685669,640.481934 1466.413330,643.117310 
	C1465.791016,642.937561 1465.168701,642.757751 1464.546509,642.578003 
	C1463.707642,636.687134 1462.868774,630.796204 1462.061157,624.482361 
z"/>
<path fill="#ECF6FF" opacity="1.000000" stroke="none" 
	d="
M1509.652588,636.294800 
	C1509.943359,637.432495 1509.968384,638.742676 1509.980225,640.444336 
	C1506.986572,643.438171 1504.005859,646.040588 1501.025269,648.642944 
	C1500.719604,648.377075 1500.413818,648.111145 1500.108154,647.845276 
	C1503.201050,644.052612 1506.293945,640.259949 1509.652588,636.294800 
z"/>
<path fill="#ECF6FF" opacity="1.000000" stroke="none" 
	d="
M1488.401733,638.985596 
	C1487.988770,638.846619 1487.770630,638.538269 1487.552612,638.229858 
	C1487.909668,638.024658 1488.266846,637.819458 1488.623901,637.614319 
	C1488.614746,638.014893 1488.605713,638.415527 1488.401733,638.985596 
z"/>
<path fill="#F6A89F" opacity="1.000000" stroke="none" 
	d="
M1282.728760,568.940735 
	C1273.818359,574.166321 1263.055908,567.261658 1261.796143,559.553223 
	C1260.909546,554.126770 1262.863403,547.972351 1267.496216,544.840027 
	C1272.700562,541.321289 1279.284302,541.151123 1283.837769,544.417603 
	C1288.512207,547.770874 1291.474976,554.664856 1289.445312,559.743652 
	C1288.111938,563.080261 1285.260254,565.810059 1282.728760,568.940735 
M1281.732788,557.449219 
	C1279.842529,550.700500 1274.996460,547.560608 1270.936035,551.029785 
	C1268.838135,552.822205 1267.071777,556.811340 1267.583374,559.311279 
	C1268.041626,561.551392 1271.651611,564.323730 1274.185059,564.690247 
	C1278.129395,565.260681 1280.840454,562.352600 1281.732788,557.449219 
z"/>
<path fill="#F6A89F" opacity="1.000000" stroke="none" 
	d="
M1218.339600,559.313843 
	C1217.785034,550.357178 1221.510498,544.663086 1228.906494,542.596497 
	C1235.135254,540.856018 1241.704956,543.721069 1244.947144,549.591858 
	C1248.750000,556.477783 1246.355835,564.721130 1239.306519,569.013306 
	C1233.316895,572.660278 1224.965210,570.703003 1220.844727,564.569702 
	C1219.846313,563.083618 1219.240723,561.333557 1218.339600,559.313843 
M1240.060669,556.693176 
	C1239.570312,555.477112 1239.317383,554.077271 1238.545044,553.079651 
	C1236.295776,550.174805 1233.429443,548.925049 1229.787476,550.562256 
	C1226.271484,552.142944 1224.977417,554.692383 1225.583984,558.584229 
	C1226.251099,562.866394 1229.239502,564.753357 1232.760376,564.800598 
	C1237.090088,564.858704 1239.563599,561.857605 1240.060669,556.693176 
z"/>
<path fill="#1D0A78" opacity="1.000000" stroke="none" 
	d="
M1281.652344,557.815186 
	C1280.840454,562.352600 1278.129395,565.260681 1274.185059,564.690247 
	C1271.651611,564.323730 1268.041626,561.551392 1267.583374,559.311279 
	C1267.071777,556.811340 1268.838135,552.822205 1270.936035,551.029785 
	C1274.996460,547.560608 1279.842529,550.700500 1281.652344,557.815186 
z"/>
<path fill="#1D0A78" opacity="1.000000" stroke="none" 
	d="
M1240.076660,557.089478 
	C1239.563599,561.857605 1237.090088,564.858704 1232.760376,564.800598 
	C1229.239502,564.753357 1226.251099,562.866394 1225.583984,558.584229 
	C1224.977417,554.692383 1226.271484,552.142944 1229.787476,550.562256 
	C1233.429443,548.925049 1236.295776,550.174805 1238.545044,553.079651 
	C1239.317383,554.077271 1239.570312,555.477112 1240.076660,557.089478 
z"/>
</svg>