<?xml version="1.0" encoding="utf-8"?>
<!-- Generator: Adobe Illustrator 25.0.0, SVG Export Plug-In . SVG Version: 6.00 Build 0)  -->
<svg version="1.1" id="Layer_1" xmlns="http://www.w3.org/2000/svg" xmlns:xlink="http://www.w3.org/1999/xlink" x="0px" y="0px"
	 viewBox="0 0 720 1280" style="enable-background:new 0 0 720 1280;" xml:space="preserve">
<style type="text/css">
	.st0{fill-rule:evenodd;clip-rule:evenodd;fill:#DDEDFA;}
	.st1{fill:none;stroke:#DDEDFA;stroke-width:5;}
	.st2{fill-rule:evenodd;clip-rule:evenodd;fill:#FFFFFF;}
	.st3{fill-rule:evenodd;clip-rule:evenodd;fill:#BAD3EE;}
	.st4{fill-rule:evenodd;clip-rule:evenodd;fill:#CEE2F5;}
	.st5{fill-rule:evenodd;clip-rule:evenodd;fill:#EDF5FC;}
	.st6{fill:none;stroke:#CEE2F5;stroke-width:8;}
	.st7{fill:none;stroke:#DDEDFA;stroke-width:9;}
	.st8{fill-rule:evenodd;clip-rule:evenodd;fill:#D6B29E;}
	.st9{opacity:0.4003;fill-rule:evenodd;clip-rule:evenodd;fill:#010101;enable-background:new    ;}
	.st10{fill-rule:evenodd;clip-rule:evenodd;fill:#31429B;}
	.st11{fill-rule:evenodd;clip-rule:evenodd;fill:#262566;}
	.st12{fill:none;stroke:#262535;stroke-width:4;}
	.st13{fill-rule:evenodd;clip-rule:evenodd;fill:#17172A;}
	.st14{fill-rule:evenodd;clip-rule:evenodd;fill:#3A3A54;}
	.st15{fill:#2F303E;}
	.st16{fill-rule:evenodd;clip-rule:evenodd;fill:#D04084;}
	.st17{fill:#D04084;}
	.st18{fill-rule:evenodd;clip-rule:evenodd;fill:#131318;}
	.st19{opacity:9.870000e-02;}
	.st20{fill-rule:evenodd;clip-rule:evenodd;fill:#F0EFEF;}
	.st21{fill:#CF3E29;}
	.st22{fill:#D6B29E;}
	.st23{fill:#F0EFEF;}
	.st24{opacity:0.2005;fill:none;stroke:#010101;stroke-width:5;enable-background:new    ;}
	.st25{fill-rule:evenodd;clip-rule:evenodd;fill:#030303;}
</style>
<g id="Scene">
	<g id="Illustration-14" transform="translate(-252.000000, -175.000000)">
		
			<g id="Background-Object-_x2F_-Bedside-table-_x2F_-1" transform="translate(472.500000, 680.000000) scale(-1, 1) translate(-472.500000, -680.000000) translate(0.000000, 55.000000)">
			<g id="Group-39" transform="translate(252.000000, 232.000000)">
				<polygon id="Fill-1" class="st0" points="974.7,144.7 953.3,357.9 728.8,357.9 750.1,144.7 				"/>
				<polygon id="Stroke-2" class="st1" points="974.7,144.7 953.3,357.9 728.8,357.9 750.1,144.7 				"/>
				<polygon id="Fill-4" class="st2" points="966.7,144.7 945.4,357.9 716.7,357.9 738,144.7 				"/>
				<polygon id="Stroke-5" class="st1" points="966.7,144.7 945.4,357.9 716.7,357.9 738,144.7 				"/>
				<polygon id="Fill-7" class="st0" points="918.9,185.4 905.7,317.1 764.5,317.1 777.6,185.4 				"/>
				<polygon id="Fill-8" class="st3" points="656.5,964.1 1054.1,964.1 1054.1,928.7 656.5,928.7 				"/>
				<polygon id="Fill-9" class="st0" points="646.1,964.1 665.1,964.1 665.1,650.4 646.1,650.4 				"/>
				<polygon id="Fill-10" class="st0" points="911.3,964.1 930.5,964.1 930.5,650.4 911.3,650.4 				"/>
				<polygon id="Fill-11" class="st4" points="646.1,940.7 665.1,940.7 665.1,928.7 646.1,928.7 				"/>
				<polygon id="Fill-12" class="st4" points="911.3,940.7 930.5,940.7 930.5,928.7 911.3,928.7 				"/>
				<path id="Fill-13" class="st4" d="M975,250c4.2,36.1-9.3,66.9-9.3,66.9s-20.2-27.6-24.3-63.7c-4.1-36.1,9.3-66.9,9.3-66.9
					S970.8,214,975,250"/>
				<path id="Fill-15" class="st4" d="M966.2,279c18,32.4,17.5,65.5,17.5,65.5s-29.7-19.4-47.8-51.8s-17.5-65.5-17.5-65.5
					S948.2,246.6,966.2,279"/>
				<path id="Fill-17" class="st4" d="M991.6,253.9c-4.6,36-25.2,63.5-25.2,63.5s-13.1-31-8.5-67c4.6-36,25.2-63.4,25.2-63.4
					S996.2,217.9,991.6,253.9"/>
				<path id="Fill-19" class="st4" d="M1006.6,279.9c-14.8,33.7-42.6,55.3-42.6,55.3s-3.7-33,11.1-66.6s42.6-55.3,42.6-55.3
					S1021.4,246.2,1006.6,279.9"/>
				<polygon id="Fill-21" class="st5" points="926.2,289.7 1011.4,289.7 1002.4,356.9 935.2,356.9 				"/>
				<polygon id="Fill-23" class="st0" points="636.6,929.1 940.7,929.1 940.7,383.1 636.6,383.1 				"/>
				<polygon id="Fill-25" class="st4" points="656.5,901.7 920.8,901.7 920.8,820.7 656.5,820.7 				"/>
				<polygon id="Fill-26" class="st4" points="656.5,798.6 920.8,798.6 920.8,717.7 656.5,717.7 				"/>
				<polygon id="Fill-27" class="st4" points="656.5,695.6 920.8,695.6 920.8,614.7 656.5,614.7 				"/>
				<polygon id="Fill-28" class="st4" points="656.5,592.6 920.8,592.6 920.8,511.6 656.5,511.6 				"/>
				<polygon id="Fill-29" class="st4" points="656.5,489.6 920.8,489.6 920.8,408.6 656.5,408.6 				"/>
				<polygon id="Fill-30" class="st3" points="940.7,929.1 1061.9,929.1 1061.9,383.1 940.7,383.1 				"/>
				<polygon id="Fill-31" class="st4" points="621.4,383.1 953.3,383.1 953.3,357 621.4,357 				"/>
				<polygon id="Fill-32" class="st3" points="953,383.1 1079.3,383.1 1079.3,357 953,357 				"/>
				<path id="Fill-33" class="st3" d="M773.3,449.1c0,8.5,6.8,15.3,15.3,15.3c8.5,0,15.3-6.9,15.3-15.3c0-8.5-6.8-15.3-15.3-15.3
					C780.2,433.8,773.3,440.6,773.3,449.1"/>
				<path id="Fill-34" class="st3" d="M773.3,552.1c0,8.5,6.8,15.3,15.3,15.3c8.5,0,15.3-6.9,15.3-15.3s-6.8-15.3-15.3-15.3
					S773.3,543.7,773.3,552.1"/>
				<path id="Fill-35" class="st3" d="M773.3,655.2c0,8.5,6.8,15.3,15.3,15.3c8.5,0,15.3-6.9,15.3-15.3s-6.8-15.3-15.3-15.3
					C780.2,639.8,773.3,646.7,773.3,655.2"/>
				<path id="Fill-36" class="st3" d="M773.3,758.2c0,8.5,6.8,15.3,15.3,15.3c8.5,0,15.3-6.9,15.3-15.3s-6.8-15.3-15.3-15.3
					C780.2,742.8,773.3,749.7,773.3,758.2"/>
				<path id="Fill-37" class="st3" d="M773.3,861.2c0,8.5,6.8,15.3,15.3,15.3c8.5,0,15.3-6.9,15.3-15.3s-6.8-15.3-15.3-15.3
					S773.3,852.7,773.3,861.2"/>
			</g>
		</g>
		
			<g id="Background-Object-_x2F_-Clock" transform="translate(905.000000, 308.000000) scale(-1, 1) translate(-905.000000, -308.000000) translate(655.000000, 133.000000)">
			<g id="Group-14" transform="translate(172.000000, 104.000000)">
				<path id="Fill-1_2_" class="st4" d="M-873.3,302.1c0,40.6-32.9,73.6-73.5,73.6c-40.6,0-73.5-32.9-73.5-73.6s32.9-73.6,73.5-73.6
					C-906.2,228.6-873.3,261.5-873.3,302.1"/>
				<path id="Fill-4_2_" class="st0" d="M-887.7,302.1c0,40.6-32.9,73.6-73.5,73.6s-73.5-32.9-73.5-73.6s32.9-73.6,73.5-73.6
					S-887.7,261.5-887.7,302.1"/>
				<path id="Fill-6_1_" class="st4" d="M-905.5,302.1c0,28.7-21.7,52.4-49.5,55.4c-2,0.2-4.1,0.3-6.2,0.3
					c-30.8,0-55.7-25-55.7-55.8c0-30.8,24.9-55.8,55.7-55.8c2.1,0,4.1,0.1,6.2,0.3C-927.2,249.8-905.5,273.4-905.5,302.1"/>
				<path id="Fill-8_1_" class="st5" d="M-905.5,302.1c0,28.7-21.7,52.4-49.5,55.4c-27.9-3.1-49.6-26.7-49.6-55.4
					c0-28.7,21.7-52.4,49.6-55.4C-927.2,249.8-905.5,273.4-905.5,302.1"/>
				<path id="Stroke-10" class="st6" d="M-958.8,271.1l18,39.4"/>
				<path id="Stroke-12" class="st6" d="M-939.1,294l-39.5,43"/>
			</g>
		</g>
		<g id="Background-Object-_x2F_-Picture-_x2F_-1" transform="translate(878.000000, 73.000000)">
			<g id="Group-8" transform="translate(183.000000, 122.000000)">
				<polygon id="Fill-1_3_" class="st0" points="4.5,494.3 134.6,494.3 134.6,384.8 4.5,384.8 				"/>
				<polygon id="Stroke-2_1_" class="st1" points="4.5,494.3 134.6,494.3 134.6,384.8 4.5,384.8 				"/>
				<polygon id="Fill-4_3_" class="st2" points="-3.2,494.4 126.9,494.4 126.9,385 -3.2,385 				"/>
				<polygon id="Stroke-5_1_" class="st1" points="-3.2,494.4 126.9,494.4 126.9,385 -3.2,385 				"/>
				<polygon id="Fill-7_2_" class="st0" points="19,471.8 102.9,471.8 102.9,407.3 19,407.3 				"/>
			</g>
		</g>
		<g id="Background-Object-_x2F_-Picture-_x2F_-2" transform="translate(876.000000, 230.000000)">
			<g id="Group-8_1_" transform="translate(184.000000, 93.000000)">
				<polygon id="Fill-1_4_" class="st0" points="-207.2,599.8 -77.1,599.8 -77.1,430.8 -207.2,430.8 				"/>
				<polygon id="Stroke-2_2_" class="st1" points="-207.2,599.8 -77.1,599.8 -77.1,430.8 -207.2,430.8 				"/>
				<polygon id="Fill-4_4_" class="st2" points="-213.9,599.8 -86.3,599.8 -86.3,430.8 -213.9,430.8 				"/>
				<polygon id="Stroke-5_2_" class="st1" points="-213.9,599.8 -86.3,599.8 -86.3,430.8 -213.9,430.8 				"/>
				<polygon id="Fill-7_3_" class="st0" points="-187.4,567.9 -118.8,567.9 -118.8,462.4 -187.4,462.4 				"/>
			</g>
		</g>
		<g id="Background-Object-_x2F_-Flower-_x2F_-1" transform="translate(486.000000, 500.000000)">
			<g id="Group-24" transform="translate(362.000000, 135.000000)">
				<path id="Fill-1_5_" class="st4" d="M99.9,407.4c0,31.8-19.3,57.5-43.1,57.5s-43.1-25.8-43.1-57.5s19.3-57.5,43.1-57.5
					S99.9,375.6,99.9,407.4"/>
				<path id="Stroke-3" class="st7" d="M57.1,709.6V410.3"/>
				<path id="Fill-5_1_" class="st4" d="M10.7,491.9c20.4,20.4,24.5,49.3,9.2,64.6s-44.2,11.2-64.5-9.2
					c-20.4-20.4-24.5-49.3-9.2-64.6C-38.5,467.4-9.7,471.6,10.7,491.9"/>
				<path id="Fill-8_2_" class="st4" d="M156,533.8c16.4,16.4,12,47.5-9.9,69.4c-21.9,21.9-52.9,26.3-69.3,9.9"/>
				<path id="Stroke-10_1_" class="st7" d="M133.9,562.8l-75.5,75.8"/>
				<path id="Stroke-12_1_" class="st7" d="M112.1,490.2l-55.2,54.6"/>
				<path id="Stroke-14" class="st7" d="M-0.4,610.1l57.7,58.4"/>
				<path id="Stroke-16" class="st7" d="M-20.3,516.7l77.1,78.1"/>
				<path id="Fill-18_1_" class="st5" d="M80.2,812.4H34c-35.5,0-64.6-29.1-64.6-64.6V687h175.4v60.8
					C144.8,783.3,115.7,812.4,80.2,812.4"/>
				<path id="Stroke-20" class="st7" d="M144.8,720.8H-30.6"/>
				<path id="Stroke-22" class="st7" d="M144.8,754.7H-30.6"/>
			</g>
		</g>
		<g id="Person-_x2F_-Man-_x2F_-7" transform="translate(447.000000, 330.000000)">
			<g id="Man-_x2F_-Head-_x2F_-7" transform="translate(245.000000, 69.000000)">
				<g id="Group-25" transform="translate(38.000000, 42.000000)">
					<g id="Face-color" transform="translate(-0.000186, 32.602799)">
						<g id="Mask">
							<path id="path-1_1_" class="st8" d="M13.8,379.4l-0.9-30.9c0,0,37.5,3,45.5-1.2c0,0,9.8-50.5-1.9-78.5l-0.2-1.1l-79.2-9.3
								l-4.9,44.9c-2.7-7.9-24.2-16.2-30-5c-12.5,24.4,32.1,40.8,32.1,40.8l-4.5,40.5"/>
						</g>
					</g>
					<polygon id="Fill-4_5_" class="st9" points="12.9,381.2 -12.4,375.8 12.7,392.8 					"/>
					<polygon id="Fill-6_2_" class="st10" points="33.7,330.7 42.5,352.1 32,352.2 					"/>
					<path id="Fill-8_3_" class="st11" d="M23.8,336.8c0.5,2.9-1.4,5.6-4.3,6.1s-5.6-1.4-6.1-4.3c-0.5-2.9,1.4-5.6,4.3-6.1
						S23.2,333.9,23.8,336.8"/>
					<path id="Fill-10_1_" class="st11" d="M51.3,336.8c0.5,2.9-1.4,5.6-4.3,6.1s-5.6-1.4-6.2-4.3c-0.5-2.9,1.4-5.6,4.3-6.1
						C48,332,50.7,333.9,51.3,336.8"/>
					<g id="Group-15" transform="translate(79.675676, 96.806371)">
						<path id="Fill-12_2_" class="st2" d="M-56.8,261.5c0,0,3.7,5.9,10.9,5.4"/>
						<path id="Stroke-14_1_" class="st12" d="M-56.8,261.5c0,0,3.7,5.9,10.9,5.4"/>
					</g>
					<path id="Path" class="st13" d="M-27.4,336.5c-5.9-6.1-12.4-8.7-16.2-9.8l0.7-15.5l37.2-6.5C-8.2,322-18.2,331.4-27.4,336.5
						L-27.4,336.5z"/>
					<g id="Ear-color" transform="translate(9.959459, 66.005988)">
					</g>
					<path id="Fill-18_2_" class="st14" d="M58.7,307.5c-3.3-3.2-25.2-4.2-51.5-2.1c-6.1,0.5-12,1.1-17.4,1.8
						c-17.9,2.2-31.1,5.4-33.2,8.3c-2.4-35.1,19.1-56,47.3-58c18.5-1.3,35.2,5.9,45.3,21C54.4,286,57.8,295.8,58.7,307.5"/>
					<g id="Group-24_1_" transform="translate(47.986486, 19.045892)">
						<g id="Clip-23">
						</g>
						<path id="Fill-22_1_" class="st13" d="M11.1,289.2L11.1,289.2c-0.1-0.2-0.2-0.5-0.4-0.7c-3.4-3.2-25.2-4.2-51.5-2.1
							c-6.1,0.5-12,1.1-17.4,1.8c7.7-7.3,21.8-18.9,38.4-24.1c7.1-2.2,14.3-3.8,21-4.7c16.2-2.1,29.1,0.1,29.8,8.5
							C31.9,278.6,13.9,287.8,11.1,289.2"/>
					</g>
				</g>
			</g>
			<g id="Man-_x2F_-Legs-_x2F_-7" transform="translate(53.000000, 249.000000)">
				<g id="Group-21" transform="translate(84.000000, 181.237430)">
					<g id="Shoes" transform="translate(0.000000, 314.077678)">
						<g id="Mask_1_">
							<path id="path-5_1_" class="st11" d="M235.2,369.4l6.3,20.4c0,0,49.4-20.3,74.8-12.6l-85.6,49.6l-22.3-56L235.2,369.4z
								 M4.2,308.1l-27.7,25.4c0,0,4.1,16.9,5.9,32.9c2.5,23.1,1,43.9,1,43.9l-48-83.9l59.3-44L4.2,308.1z"/>
						</g>
						<g id="Colors-_x2F_-Wear-_x2F_-Dark-Grey">
							<g id="Color" transform="translate(-14.019048, 15.376809)">
								<rect x="-66.2" y="283.1" class="st15" width="396.8" height="128.9"/>
							</g>
						</g>
					</g>
					<g id="Legs-skin" transform="translate(24.533333, 314.054494)">
						<g id="Mask_2_">
							<path id="path-7_1_" class="st16" d="M185.3,375.2l26.5-2.4l5.2,17l-21.9,9.1L185.3,375.2z M-30.4,282.4l3,32.2L-48,333.6
								l-16.4-25.3L-30.4,282.4z"/>
						</g>
						<g id="Colors-_x2F_-Skin-_x2F_-Pink">
							<g id="Color_1_" transform="translate(-11.390476, 15.399993)">
								<rect x="-65.1" y="283.1" class="st17" width="313.7" height="100.9"/>
							</g>
						</g>
					</g>
					<g id="Pants" transform="translate(28.547074, 0.000000)">
						<g id="Mask_3_">
							<path id="path-9_1_" class="st18" d="M73.2,384.5L38,269.9h90.3h47.5c0.1,28-3.2,74.1-20.6,126.7l55.4,261.2
								c0.7,3.3-0.5,6.5-2.8,8.7l8.4,29.9l-34.4,10l-8.2-27.9l-0.2,0.1c-4.9,1.6-10.1-1.1-11.6-6l-54.7-178.2
								c-6.2,9.1-12.9,18.2-20.2,27.2c-46.3,57.2-75.1,88-90,102.8c-5.3,5.3-13.5,5.6-19.1,1.2l-21.1,17.4l-21-28.9l20.9-17.2
								c-3.3-5.4-2.8-12.4,1.5-17.1C-20.8,556,39.2,483.3,73.2,384.5L73.2,384.5z"/>
						</g>
						<g id="Colors-_x2F_-Wear-_x2F_-Dark-Grey_1_">
							<g id="Color_2_" transform="translate(0.452926, 0.000000)">
								<rect x="-64.5" y="269.9" class="st15" width="289.8" height="439.9"/>
							</g>
						</g>
					</g>
					<g id="Overlay" transform="translate(127.222682, 0.000261)" class="st19">
						<path id="Mask_4_" class="st2" d="M74.8,678.5l-0.2,0.1c-4.9,1.6-10.1-1.1-11.6-6L8.2,494.4l-33.8-110l-35.2-114.5h90.3
							l26.9,126.7l55.4,261.2c0.7,3.3-0.5,6.5-2.8,8.7l8.4,29.9l-34.4,10L74.8,678.5z"/>
					</g>
					<g id="Pants-line" transform="translate(148.663063, 0.000000)">
						<g id="Mask_5_">
							<polygon id="path-11_1_" class="st20" points="71.8,671.6 57.3,676.8 -0.8,475 -36.7,350.5 -59.9,269.9 -30.5,269.9 
								-25.3,290.2 14.5,446.7 							"/>
						</g>
						<g id="Colors-_x2F_-Wear-_x2F_-Red">
							<g id="Color_3_" transform="translate(0.289318, 0.000000)">
								<rect x="-59.9" y="269.9" class="st21" width="130.9" height="406.6"/>
							</g>
						</g>
					</g>
				</g>
			</g>
			<g id="Man-_x2F_-Body-_x2F_-5" transform="translate(186.000000, 212.000000)">
				<g id="Group-36_1_" transform="translate(17.000000, 20.876833)">
					<g id="Skin-color" transform="translate(0.000000, 20.766168)">
						<g id="Mask_6_">
							<path id="path-13_1_" class="st8" d="M233.2,331.2c-11.5,22.5-51.7,96.5-80.4,84.7c-21.5-8.8-47.2-82.1-47.2-82.1l41.8-24.9
								l18.8,50.3l38.4-41.7c-1.3-8.3-2.4-19.1,0.2-22.9c4.4-6.5,26.8-26.5,26.8-26.5l4.1,33.8l0.7-2.9c0-0.2,0-0.3,0.1-0.5
								c0,0,0,0,0,0l1.6-6.6c-0.7-0.4-1-0.9-0.7-1.5c0.2-0.6,0.8-1.2,1.5-1.8l5.6-22.5c0,0,1.8,0.8,4.6,2c4.4-0.9,20.1,9.8,20.3,10
								l0,0c3.2,2.1-4.4,36.4-10.6,42.7C254.5,325.5,240.8,329.4,233.2,331.2L233.2,331.2z M-22.9,484.1l2.6,4.9c0,0,2.3,4,4.7,10.9
								c2.4,6.9,1.4,11.2,6.7,22.1c6,12.4-4.7,7.3-8.5,1.9c-3-4.2-2.6-9.9-6.5-12.5c-1.3,2.1-4.3,5-5.9,22.9
								c-0.3,3.2,1.1,13.6,1.1,13.6c0,3.1,0.4,9.6-3.1,10.6c-0.9,0.2-2-0.7-2-0.7s0.3,4.1-3.3,4.9c-1.4,0.3-4.2-8.5-4.2-8.5
								s-0.4,4.5-3.1,5c-0.8,0.1-9.8-25.3-9.8-25.3l0.5,5.7l1.2,5.9c0,0-0.1,3.2-2.6,3.7c-1,0.2-2.9-5-4.8-11.3
								c-2.8-9.7-2.8-16.9-1.9-24.1c1-8.7,0.6-11.6,4.4-22.3c0.5-1.3,1.1-2.8,1.8-4.3c-2.1-18.4-8.1-72.2-7.4-88.7
								c0.9-20,22.1-64.5,22.1-64.5L2.1,358l-23.7,43.3L-22.9,484.1L-22.9,484.1z M80.1,284.7c-24.9-1.5-35.5-17-37.9-21.2
								c15.8-1.1,17.5-0.9,38.6,1.2c8.6,0.9,14.5,2.7,20.3,4.3C102.4,273.4,104.2,286.1,80.1,284.7z"/>
						</g>
						<g id="Colors-_x2F_-Skin-_x2F_-Rose">
							<g id="Color_4_" transform="translate(0.000000, 0.110665)">
								<rect x="-63.1" y="262.9" class="st22" width="333.4" height="299.5"/>
							</g>
						</g>
					</g>
					<g id="T-Shirt" transform="translate(17.000000, 20.876833)">
						<g id="Mask_7_">
							<path id="path-15_1_" class="st8" d="M134.2,308.4l0.1,0l17,39.1l-24.2,14.1l-5.1,85.4H-16.1l-2.3-84.2L-62.2,330
								c0,0,20.6-41.4,55.8-57.8c11.4-5.3,21.9-7.8,31.6-8.8c0.8-0.1,0.2-0.1,0.3,0.3c0,0.2,0.2,0.5,0.5,0.9s0.2,0.2,1.3,1.9
								c1.1,1.6,2.7,3.2,5.2,5.7c2,2.1,4.8,4.1,7.6,5.6c3.1,1.8,6.2,2.9,8.2,3.8c1.8,0.8,3.3,1.1,4.7,1.5c4.1,1,7.3,1.3,13.8,1.6
								c0.8,0,5.4-0.3,6.2-0.5c1.2-0.2,2.2-0.4,3.5-0.8s4.5-1.9,6.7-4.5c0.9-1.1,1.8-4.8,1.5-7.5c-0.3-2.7-1.4-2.7-0.4-2.4
								c19.1,5.2,37.1,15.9,47.7,34.9C132.7,305.5,133.5,306.9,134.2,308.4z"/>
						</g>
						<g id="Colors-_x2F_-Wear-_x2F_-White">
							<rect id="Color_5_" x="-62.4" y="262.9" class="st23" width="214" height="184.1"/>
						</g>
					</g>
					<polyline id="Stroke-16_1_" class="st24" points="-1.5,383.6 9.6,391.1 36.2,360.2 					"/>
					<g id="Group-22" transform="translate(270.000000, 0.760513)">
						<g id="Clip-21">
						</g>
						<path id="Fill-20_1_" class="st8" d="M-18.5,328.1l-1.9,9.5h-31.3l14.7-75.2h31.2c-0.8,4.1-2.7,13.9-5.7,29.2l-6.1-2.8
							l-1.9-0.5l-1.5,0.1l-0.6,0.5v1.8l6.7,9.6l-5.1,2.2l-7.9,4.1l-2.3,1.6l-0.9,0.8l-0.7,0.6l-0.5,0.5l-0.3,0.5l-0.1,0.6l0.1,0.3
							l0.1,0.2l0.2,0.2l2.6,0.9l5.9-1.6h5.8l-7.8,1.6l-5.1,3l-1.7,1.6l-1,1.2v1.1l1.7,0.8l10.8-1.2l-3.6,2l-2.4,1.5l-2.2,1.1
							l-1.7,2.2v1.1l0.6,0.6l1.5,0.8h2.3h4.6L-18.5,328.1z"/>
					</g>
					<g id="Group-25_1_" transform="translate(265.000000, 0.760513)">
						<g id="Clip-24">
						</g>
						<polygon id="Fill-23_2_" class="st25" points="-46.7,337.6 -51.9,337.6 -37.1,262.4 -32,262.4 						"/>
					</g>
					<path id="Fill-34_1_" class="st25" d="M238.4,271.8c-0.4,2.2-1.7,3.8-2.9,3.6c-1.1-0.2-1.7-2.2-1.3-4.4
						c0.4-2.2,1.7-3.8,2.9-3.6C238.3,267.7,238.9,269.6,238.4,271.8"/>
				</g>
			</g>
		</g>
	</g>
</g>
</svg>
