<?xml version="1.0" encoding="utf-8"?>
<!-- Generator: Adobe Illustrator 25.0.0, SVG Export Plug-In . SVG Version: 6.00 Build 0)  -->
<svg version="1.1" id="Layer_1" xmlns="http://www.w3.org/2000/svg" xmlns:xlink="http://www.w3.org/1999/xlink" x="0px" y="0px"
	 viewBox="0 0 1902 1477" style="enable-background:new 0 0 1902 1477;" xml:space="preserve">
<style type="text/css">
	.st0{fill:none;stroke:#19141E;stroke-width:16;stroke-linecap:round;}
	.st1{fill-rule:evenodd;clip-rule:evenodd;fill:#AE52FF;}
	.st2{filter:url(#Adobe_OpacityMaskFilter);}
	.st3{fill-rule:evenodd;clip-rule:evenodd;fill:#FFFFFF;}
	.st4{mask:url(#mask-2_1_);}
	.st5{fill:#AE52FF;}
	.st6{opacity:0.403;fill-rule:evenodd;clip-rule:evenodd;enable-background:new    ;}
	.st7{opacity:0.6029;fill-rule:evenodd;clip-rule:evenodd;enable-background:new    ;}
	.st8{opacity:0.6039;fill-rule:evenodd;clip-rule:evenodd;enable-background:new    ;}
	.st9{opacity:0.3959;fill-rule:evenodd;clip-rule:evenodd;enable-background:new    ;}
	.st10{fill:none;stroke:#19141E;stroke-width:27;stroke-linecap:round;}
	.st11{fill-rule:evenodd;clip-rule:evenodd;fill:#19141E;}
	.st12{filter:url(#Adobe_OpacityMaskFilter_1_);}
	.st13{mask:url(#mask-4_1_);}
	.st14{opacity:0.3948;}
	.st15{fill-rule:evenodd;clip-rule:evenodd;}
	.st16{fill:none;stroke:#19141E;stroke-width:5;stroke-linecap:round;}
	.st17{fill:none;stroke:#FFFFFF;stroke-width:5;stroke-linecap:round;}
	.st18{filter:url(#Adobe_OpacityMaskFilter_2_);}
	.st19{mask:url(#mask-6_1_);}
	.st20{opacity:0.3959;}
	.st21{fill:none;stroke:#19141E;stroke-width:5;}
	.st22{fill:none;stroke:#19141E;stroke-width:7;}
	.st23{fill-rule:evenodd;clip-rule:evenodd;fill:#955ED1;}
	.st24{filter:url(#Adobe_OpacityMaskFilter_3_);}
	.st25{mask:url(#mask-8_1_);}
	.st26{fill:#F17EAE;}
	.st27{opacity:0.3993;fill-rule:evenodd;clip-rule:evenodd;enable-background:new    ;}
	.st28{fill-rule:evenodd;clip-rule:evenodd;fill:#8B24A8;}
	.st29{fill-rule:evenodd;clip-rule:evenodd;fill:#6D2569;}
	.st30{fill:none;stroke:#352535;stroke-width:4;}
	.st31{filter:url(#Adobe_OpacityMaskFilter_4_);}
	.st32{mask:url(#mask-10_1_);}
	.st33{fill:#955ED1;}
	.st34{fill-rule:evenodd;clip-rule:evenodd;fill:#CF773E;}
	.st35{filter:url(#Adobe_OpacityMaskFilter_5_);}
	.st36{mask:url(#mask-12_1_);}
	.st37{fill:#CF773E;}
	.st38{fill-rule:evenodd;clip-rule:evenodd;fill:#101016;}
	.st39{filter:url(#Adobe_OpacityMaskFilter_6_);}
	.st40{mask:url(#mask-14_1_);}
	.st41{fill:#19141E;}
	.st42{fill-rule:evenodd;clip-rule:evenodd;fill:#FFFFFF;fill-opacity:0.1;}
	.st43{fill-rule:evenodd;clip-rule:evenodd;fill:#E59776;}
	.st44{filter:url(#Adobe_OpacityMaskFilter_7_);}
	.st45{mask:url(#mask-16_1_);}
	.st46{opacity:0.1475;fill:none;stroke:#000000;stroke-width:3;enable-background:new    ;}
	.st47{fill-rule:evenodd;clip-rule:evenodd;fill:#FCEAA4;}
	.st48{filter:url(#Adobe_OpacityMaskFilter_8_);}
	.st49{mask:url(#mask-18_1_);}
	.st50{fill:#FCEAA4;}
	.st51{opacity:0.1973;fill:none;stroke:#000000;stroke-width:5;enable-background:new    ;}
	.st52{opacity:0.1958;fill:none;stroke:#000000;stroke-width:5;enable-background:new    ;}
	.st53{fill-rule:evenodd;clip-rule:evenodd;fill:#EAC37A;}
	.st54{filter:url(#Adobe_OpacityMaskFilter_9_);}
	.st55{mask:url(#mask-20_1_);}
	.st56{fill:#EAC37A;}
	.st57{opacity:0.1985;fill-rule:evenodd;clip-rule:evenodd;enable-background:new    ;}
	.st58{opacity:0.199;fill-rule:evenodd;clip-rule:evenodd;enable-background:new    ;}
	.st59{opacity:0.2026;fill:none;stroke:#000000;stroke-width:4;enable-background:new    ;}
	.st60{opacity:0.1987;fill:none;stroke:#000000;stroke-width:4;enable-background:new    ;}
	.st61{opacity:0.1977;fill-rule:evenodd;clip-rule:evenodd;enable-background:new    ;}
	.st62{opacity:0.1968;fill-rule:evenodd;clip-rule:evenodd;enable-background:new    ;}
	.st63{fill-rule:evenodd;clip-rule:evenodd;fill:#E9D7FF;}
	.st64{fill-rule:evenodd;clip-rule:evenodd;fill:#F4ECFF;}
	.st65{fill-rule:evenodd;clip-rule:evenodd;fill:#E5CCFF;}
	.st66{fill:none;stroke:#ECDCFF;stroke-width:15;stroke-linejoin:bevel;}
	.st67{fill-rule:evenodd;clip-rule:evenodd;fill:#ECDCFF;}
	.st68{fill:none;stroke:#C081FF;stroke-width:16;stroke-linecap:round;}
	.st69{fill:none;stroke:#E5CCFF;stroke-width:14;}
</style>
<g>
	<desc>Created with Sketch.</desc>
	<g id="Scene">
		<g id="Illustration-4" transform="translate(-300.000000, -63.000000)">
			
				<g id="Person-_x2F_-Robot-_x2F_-2" transform="translate(1460.000000, 1112.000000) scale(-1, 1) translate(-1460.000000, -1112.000000) translate(1185.000000, 633.000000)">
				<g id="Robot-_x2F_-Legs-_x2F_-2" transform="translate(51.000000, 389.000000)">
					<g id="Group-27" transform="translate(121.207792, 22.914179)">
						<path id="Stroke-1" class="st0" d="M-29.8,26.2l18,199.1"/>
						<path id="Stroke-6" class="st0" d="M-11.8,243.3l-7.5,228.9"/>
						<path id="Stroke-8" class="st0" d="M-101.4,24.7l-1,198.6"/>
						<path id="Stroke-10" class="st0" d="M-102.4,231.8l-26.7,246.8"/>
						<g id="Legs-color">
							<g id="Mask">
								<path id="path-1_1_" class="st1" d="M-97.5,202.8c0,0,0.1,0,0.1,0c10.6,0,19.1,11,19.1,24.5c0,13.5-8.6,24.5-19.1,24.5
									l-10.5,0v0c-10.3-0.4-18.6-11.2-18.6-24.5c0-13.3,8.3-24.2,18.6-24.5v0h0.4c0,0,0.1,0,0.1,0s0.1,0,0.1,0H-97.5z M-8,202.8
									c0,0,0.1,0,0.1,0c10.6,0,19.1,11,19.1,24.5c0,13.5-8.6,24.5-19.1,24.5l-10.5,0v0c-10.3-0.4-18.6-11.2-18.6-24.5
									c0-13.3,8.3-24.2,18.6-24.5v0h0.4c0,0,0.1,0,0.1,0c0,0,0.1,0,0.1,0H-8z M-96.5,31.9c-7.7,0-14-6.3-14-14.1
									c0-7.7,6.3-14.1,14-14.1h63.2c7.7,0,14,6.3,14,14.1c0,7.7-6.3,14.1-14,14.1H-96.5z M-70.2,496.5h-79.3l12.5-32.2
									L-70.2,496.5z M44.6,496.5h-79.3l12.5-32.2L44.6,496.5z"/>
							</g>
							<defs>
								<filter id="Adobe_OpacityMaskFilter" filterUnits="userSpaceOnUse">
									<feColorMatrix  type="matrix" values="1 0 0 0 0  0 1 0 0 0  0 0 1 0 0  0 0 0 1 0"/>
								</filter>
							</defs>
							<mask maskUnits="userSpaceOnUse" id="mask-2_1_">
								<g class="st2">
									<path id="path-1_2_" class="st3" d="M-97.5,202.8c0,0,0.1,0,0.1,0c10.6,0,19.1,11,19.1,24.5c0,13.5-8.6,24.5-19.1,24.5
										l-10.5,0v0c-10.3-0.4-18.6-11.2-18.6-24.5c0-13.3,8.3-24.2,18.6-24.5v0h0.4c0,0,0.1,0,0.1,0s0.1,0,0.1,0H-97.5z M-8,202.8
										c0,0,0.1,0,0.1,0c10.6,0,19.1,11,19.1,24.5c0,13.5-8.6,24.5-19.1,24.5l-10.5,0v0c-10.3-0.4-18.6-11.2-18.6-24.5
										c0-13.3,8.3-24.2,18.6-24.5v0h0.4c0,0,0.1,0,0.1,0c0,0,0.1,0,0.1,0H-8z M-96.5,31.9c-7.7,0-14-6.3-14-14.1
										c0-7.7,6.3-14.1,14-14.1h63.2c7.7,0,14,6.3,14,14.1c0,7.7-6.3,14.1-14,14.1H-96.5z M-70.2,496.5h-79.3l12.5-32.2
										L-70.2,496.5z M44.6,496.5h-79.3l12.5-32.2L44.6,496.5z"/>
								</g>
							</mask>
							<g id="Colors-_x2F_-Skin-_x2F_-Robot-Light-Blue" class="st4">
								<g id="Color" transform="translate(0.000000, -0.996269)">
									<rect x="-149.5" y="511.8" class="st5" width="194" height="-508"/>
								</g>
							</g>
						</g>
						<path id="Shape" class="st6" d="M-18.6,251.7c-10.3-0.4-18.6-11.2-18.6-24.5c0-13.3,8.3-24.2,18.6-24.5v0h0.4c0,0,0.1,0,0.1,0
							c0,0,0.1,0,0.1,0h9.7c0,0,0.1,0,0.1,0c10.6,0,19.1,11,19.1,24.5c0,13.5-8.6,24.5-19.1,24.5L-18.6,251.7L-18.6,251.7z
							 M-30.6,227.2c0,7.9,4.3,14.4,9.6,14.4c5.3,0,9.6-6.4,9.6-14.4c0-7.9-4.3-14.4-9.6-14.4C-26.4,212.8-30.6,219.2-30.6,227.2z
							 M-108,251.8c-10.3-0.4-18.6-11.2-18.6-24.5c0-13.3,8.3-24.2,18.6-24.5v0h0.4c0,0,0.1,0,0.1,0c0,0,0.1,0,0.1,0h9.7
							c0,0,0.1,0,0.1,0c10.6,0,19.1,11,19.1,24.5c0,13.5-8.6,24.5-19.1,24.5L-108,251.8L-108,251.8L-108,251.8z M-120.1,227.3
							c0,7.9,4.3,14.4,9.6,14.4c5.3,0,9.6-6.4,9.6-14.4c0-7.9-4.3-14.4-9.6-14.4C-115.8,212.9-120.1,219.3-120.1,227.3z"/>
						<path id="Fill-26" class="st7" d="M-120,227.4c0,7.9,4.3,14.4,9.6,14.4c5.3,0,9.6-6.4,9.6-14.4c0-7.9-4.3-14.4-9.6-14.4
							C-115.8,213-120,219.4-120,227.4"/>
						<path id="Fill-22" class="st8" d="M-30.6,227.2c0,7.9,4.3,14.4,9.6,14.4c5.3,0,9.6-6.4,9.6-14.4c0-7.9-4.3-14.4-9.6-14.4
							C-26.3,212.8-30.6,219.2-30.6,227.2"/>
						<polygon id="Fill-14" class="st9" points="-70.2,496.7 -149.5,496.7 -137,464.6 						"/>
						<polygon id="Fill-16" class="st9" points="44.6,496.7 -34.8,496.7 -22.2,464.6 						"/>
					</g>
				</g>
				<g id="Robot-_x2F_-Body-_x2F_-2" transform="translate(46.000000, 202.000000)">
					<g id="Group-25" transform="translate(3.000000, 0.000000)">
						<path id="Stroke-1_1_" class="st10" d="M205.3,215.3L182,44.6"/>
						<polygon id="Fill-9" class="st11" points="-11.4,194.2 133.7,194.2 155.9,170.4 -33.5,170.4 						"/>
						<path id="Stroke-11" class="st10" d="M-97.7,209.6l24.5-170.4"/>
						<g id="Body-color" transform="translate(0.000000, 0.999300)">
							<g id="Mask_1_">
								<path id="path-3_1_" class="st1" d="M194.1,87.1v48.1c0,21.8-17.9,39.7-39.7,39.7H-32.1c-21.8,0-39.7-17.9-39.7-39.7V83.4
									c-21.2-1-38-18.4-38-39.8c0-22,17.8-39.8,39.8-39.8c7.7,0,14.8,2.2,20.9,5.9c5.1-2.5,10.9-3.8,17-3.8h186.5
									c6.7,0,13.1,1.7,18.6,4.7c0.8-0.3,1.7-0.6,2.6-0.8c21.2-6,43.2,6.2,49.3,27.4c6,21.2-6.2,43.2-27.4,49.3
									C196.4,86.7,195.3,86.9,194.1,87.1L194.1,87.1z M235.6,407.7c5.4,6.8,8.5,15.4,8.2,24.7c-0.5,13.5-8.1,25-19.1,31.1
									c-4.3,2.4-9.5-0.9-9.3-5.9c0,0,0-0.1,0-0.1c0.7-16.6-8-30.4-19.2-30.9c-5.9-0.2-11.3,3.2-15.3,8.9c-3.5,5-11.3,2.7-11.5-3.4
									c0-1.3,0-2.7,0.1-4.1c0.7-9.1,4.7-17.2,10.7-23.3c-13.4-9.4-22.2-25-22.3-42.6l-0.4-107.9c-0.1-28.7,23.3-52.3,52.1-52.4
									c28.7-0.1,52.3,23.3,52.4,52.1l0.4,107.9C262.4,381.5,251.6,398.7,235.6,407.7L235.6,407.7z M-108,408.9
									c-18.2-7.1-31.8-24.1-33.4-44.9l-8-107.6c-2.1-28.7,19.6-53.9,48.2-56c28.7-2.1,53.9,19.6,56,48.2l8,107.6
									c1.3,18-6.7,34.6-20,45c9.2,6.5,15.3,17.1,15.8,29c0,1.4,0,2.7-0.1,4.1c-0.4,6.1-8.3,8-11.6,2.9c-3.7-5.9-9-9.5-14.9-9.5
									c-11.3,0-20.4,13.5-20.4,30.1v0.1c0,5-5.3,8.1-9.5,5.5c-10.7-6.5-17.9-18.3-17.9-31.8C-115.7,423.1-112.8,415.2-108,408.9
									L-108,408.9z M27,216.1v-23h68.3v23H27z"/>
							</g>
							<defs>
								<filter id="Adobe_OpacityMaskFilter_1_" filterUnits="userSpaceOnUse">
									<feColorMatrix  type="matrix" values="1 0 0 0 0  0 1 0 0 0  0 0 1 0 0  0 0 0 1 0"/>
								</filter>
							</defs>
							<mask maskUnits="userSpaceOnUse" id="mask-4_1_">
								<g class="st12">
									<path id="path-3_2_" class="st3" d="M194.1,87.1v48.1c0,21.8-17.9,39.7-39.7,39.7H-32.1c-21.8,0-39.7-17.9-39.7-39.7V83.4
										c-21.2-1-38-18.4-38-39.8c0-22,17.8-39.8,39.8-39.8c7.7,0,14.8,2.2,20.9,5.9c5.1-2.5,10.9-3.8,17-3.8h186.5
										c6.7,0,13.1,1.7,18.6,4.7c0.8-0.3,1.7-0.6,2.6-0.8c21.2-6,43.2,6.2,49.3,27.4c6,21.2-6.2,43.2-27.4,49.3
										C196.4,86.7,195.3,86.9,194.1,87.1L194.1,87.1z M235.6,407.7c5.4,6.8,8.5,15.4,8.2,24.7c-0.5,13.5-8.1,25-19.1,31.1
										c-4.3,2.4-9.5-0.9-9.3-5.9c0,0,0-0.1,0-0.1c0.7-16.6-8-30.4-19.2-30.9c-5.9-0.2-11.3,3.2-15.3,8.9
										c-3.5,5-11.3,2.7-11.5-3.4c0-1.3,0-2.7,0.1-4.1c0.7-9.1,4.7-17.2,10.7-23.3c-13.4-9.4-22.2-25-22.3-42.6l-0.4-107.9
										c-0.1-28.7,23.3-52.3,52.1-52.4c28.7-0.1,52.3,23.3,52.4,52.1l0.4,107.9C262.4,381.5,251.6,398.7,235.6,407.7L235.6,407.7z
										 M-108,408.9c-18.2-7.1-31.8-24.1-33.4-44.9l-8-107.6c-2.1-28.7,19.6-53.9,48.2-56c28.7-2.1,53.9,19.6,56,48.2l8,107.6
										c1.3,18-6.7,34.6-20,45c9.2,6.5,15.3,17.1,15.8,29c0,1.4,0,2.7-0.1,4.1c-0.4,6.1-8.3,8-11.6,2.9c-3.7-5.9-9-9.5-14.9-9.5
										c-11.3,0-20.4,13.5-20.4,30.1v0.1c0,5-5.3,8.1-9.5,5.5c-10.7-6.5-17.9-18.3-17.9-31.8C-115.7,423.1-112.8,415.2-108,408.9
										L-108,408.9z M27,216.1v-23h68.3v23H27z"/>
								</g>
							</mask>
							<g id="Colors-_x2F_-Skin-_x2F_-Robot-Light-Blue_1_" class="st13">
								<g id="Color_1_" transform="translate(-3.000000, 0.000700)">
									<rect x="-149.5" y="465.8" class="st5" width="412" height="-462"/>
								</g>
							</g>
						</g>
						<g id="Overlay" transform="translate(13.303755, 1.000000)" class="st14">
							<path id="Shape_1_" class="st15" d="M-54.6,430.3c0,1.4,0,2.7-0.1,4.1c-0.4,6.1-8.3,8-11.6,2.9c-3.7-5.9-9-9.5-14.9-9.5
								c-11.3,0-20.4,13.5-20.4,30.1v0.1c0,5-5.3,8.1-9.5,5.5c-10.7-6.5-17.9-18.3-17.9-31.8c0-20.9,17.3-37.8,38.4-37.2
								C-71.2,395-55.3,410.9-54.6,430.3z M128,87.5c0,25.5-18.6,46.7-42.9,50.7c-0.4-0.1-0.7-0.1-1-0.2
								c-23.8-4.5-41.9-25.4-41.9-50.5s18-46.1,41.9-50.5c0.3-0.1,0.7-0.1,1-0.2C109.5,40.8,128,62,128,87.5z M46.6,87.6
								c0,16.5,13.3,29.8,29.8,29.8s29.8-13.3,29.8-29.8S92.8,57.8,76.4,57.8S46.6,71.1,46.6,87.6z M-123.3,43.6
								c0-22,17.8-39.8,39.8-39.8s39.8,17.8,39.8,39.8s-17.8,39.8-39.8,39.8S-123.3,65.6-123.3,43.6z M-113.7,36.2
								c0,10.7,8.7,19.3,19.3,19.3S-75,46.9-75,36.2s-8.7-19.3-19.3-19.3S-113.7,25.6-113.7,36.2z M159.7,10.7
								c0.8-0.3,1.7-0.6,2.6-0.8c21.2-6.1,43.2,6.2,49.3,27.4c6,21.2-6.2,43.2-27.4,49.3c-1.1,0.3-2.3,0.6-3.4,0.8V45.7
								C180.8,30.6,172.2,17.4,159.7,10.7z M222.2,407.5c5.4,6.8,8.5,15.4,8.2,24.7c-0.5,13.5-8.1,25-19.1,31.1
								c-4.3,2.4-9.5-0.9-9.3-5.9c0,0,0-0.1,0-0.1c0.7-16.6-8-30.4-19.2-30.9c-5.9-0.2-11.3,3.2-15.3,8.9c-3.5,5-11.3,2.7-11.5-3.4
								c0-1.3,0-2.7,0.1-4.1c0.7-9.1,4.7-17.2,10.7-23.3c-13.4-9.4-22.2-25-22.3-42.6l-0.4-107.9c-0.1-28.7,23.3-52.3,52.1-52.4
								c28.7-0.1,52.3,23.3,52.4,52.1l0.4,107.9C249.1,381.4,238.3,398.5,222.2,407.5L222.2,407.5z M14.9,128.8
								c0-5.6,4.6-10.2,10.2-10.2c5.7,0,10.2,4.6,10.2,10.2c0,5.7-4.6,10.2-10.2,10.2C19.5,139,14.9,134.4,14.9,128.8z M-14.7,128.8
								c0-5.6,4.6-10.2,10.2-10.2c5.7,0,10.2,4.6,10.2,10.2c0,5.7-4.6,10.2-10.2,10.2C-10.1,139-14.7,134.4-14.7,128.8z
								 M-149.5,264.4c-0.4-5.6,3.8-10.6,9.4-11c5.6-0.4,10.6,3.8,11,9.4c0.4,5.6-3.8,10.6-9.4,11C-144.1,274.3-149,270-149.5,264.4
								z M-147.3,292.6c-0.4-5.6,3.8-10.6,9.4-11c5.6-0.4,10.6,3.8,11,9.4c0.4,5.6-3.8,10.6-9.4,11
								C-141.9,302.5-146.8,298.3-147.3,292.6z M-145,321.5c-0.4-5.6,3.8-10.6,9.4-11c5.6-0.4,10.6,3.8,11,9.4
								c0.4,5.6-3.8,10.6-9.4,11C-139.7,331.4-144.6,327.2-145,321.5z M13.2,215.8v-23h69v23H13.2z"/>
						</g>
						<path id="Path" class="st11" d="M98.2,139.3c24.3-4.1,42.9-25.2,42.9-50.7s-18.6-46.7-42.9-50.7c2.8-0.5,5.6-0.7,8.5-0.7
							c28.4,0,51.4,23,51.4,51.4s-23,51.4-51.4,51.4C103.8,140,100.9,139.7,98.2,139.3L98.2,139.3z"/>
					</g>
				</g>
				<g id="Robot-_x2F_-Head-_x2F_-2" transform="translate(159.000000, 30.000000)">
					<g id="Group-31" transform="translate(8.000000, 52.000000)">
						<path id="Stroke-3" class="st16" d="M1.2,55h-30.5"/>
						<path id="Stroke-8_1_" class="st17" d="M-91.8,13.5c-5.8,0-10.5,4.7-10.5,10.5"/>
						<path id="Stroke-12" class="st16" d="M-137,55h37.5"/>
						<g id="Face-color" transform="translate(-0.000200, 0.999500)">
							<g id="Mask_2_">
								<path id="path-5_1_" class="st1" d="M-0.2,110.3c5.5,0.4,9.9,5,9.9,10.6v4.8h-142.2v-4.8c0-5.6,4.4-10.2,9.9-10.6v-1.9
									c0-6.5,4.7-11.9,10.9-13V17.1c0-7.3,6-13.3,13.3-13.3h74c7.3,0,13.3,6,13.3,13.3v78.3c6.2,1.1,10.9,6.5,10.9,13V110.3z
									 M22.4,54c0,7.1-5.8,12.9-12.9,12.9S-3.5,61.2-3.5,54S2.3,41.1,9.5,41.1S22.4,46.9,22.4,54z M-149.5,54
									c0-7.1,5.8-12.9,12.9-12.9s12.9,5.8,12.9,12.9s-5.8,12.9-12.9,12.9S-149.5,61.2-149.5,54z"/>
							</g>
							<defs>
								<filter id="Adobe_OpacityMaskFilter_2_" filterUnits="userSpaceOnUse">
									<feColorMatrix  type="matrix" values="1 0 0 0 0  0 1 0 0 0  0 0 1 0 0  0 0 0 1 0"/>
								</filter>
							</defs>
							<mask maskUnits="userSpaceOnUse" id="mask-6_1_">
								<g class="st18">
									<path id="path-5_2_" class="st3" d="M-0.2,110.3c5.5,0.4,9.9,5,9.9,10.6v4.8h-142.2v-4.8c0-5.6,4.4-10.2,9.9-10.6v-1.9
										c0-6.5,4.7-11.9,10.9-13V17.1c0-7.3,6-13.3,13.3-13.3h74c7.3,0,13.3,6,13.3,13.3v78.3c6.2,1.1,10.9,6.5,10.9,13V110.3z
										 M22.4,54c0,7.1-5.8,12.9-12.9,12.9S-3.5,61.2-3.5,54S2.3,41.1,9.5,41.1S22.4,46.9,22.4,54z M-149.5,54
										c0-7.1,5.8-12.9,12.9-12.9s12.9,5.8,12.9,12.9s-5.8,12.9-12.9,12.9S-149.5,61.2-149.5,54z"/>
								</g>
							</mask>
							<g id="Colors-_x2F_-Skin-_x2F_-Robot-Light-Blue_2_" class="st19">
								<g id="Color_2_" transform="translate(0.000200, 0.000500)">
									<rect x="-149.5" y="125.8" class="st5" width="172" height="-122"/>
								</g>
							</g>
						</g>
						<g id="Overlay_1_" transform="translate(-0.000200, 38.342400)" class="st20">
							<path id="Shape_2_" class="st15" d="M-122.7,72.9v-3.3c0.6-6,5.9-11.8,13.2-11.8h96c7.3,0,12.4,5.4,13.2,11.4v3.7
								c5.5,0.4,9.9,5,9.9,10.6v4.8h-142.2v-4.8C-132.6,77.9-128.2,73.3-122.7,72.9L-122.7,72.9z M22.4,16.7
								c0,7.1-5.8,12.9-12.9,12.9S-3.5,23.8-3.5,16.7S2.3,3.8,9.5,3.8S22.4,9.6,22.4,16.7z M-149.5,16.7c0-7.1,5.8-12.9,12.9-12.9
								s12.9,5.8,12.9,12.9s-5.8,12.9-12.9,12.9S-149.5,23.8-149.5,16.7z"/>
						</g>
						<path id="Stroke-19" class="st21" d="M-121.8,111.6H-0.5"/>
						<path id="Stroke-21" class="st22" d="M-91,76.1h79.9"/>
						<path id="Fill-23" class="st3" d="M-70.2,38.1c-5.6,4.6-6.4,13-1.8,18.6c4.6,5.6,13,6.4,18.6,1.8c5.6-4.6,6.4-13,1.8-18.6
							C-56.2,34.3-64.5,33.5-70.2,38.1"/>
						<path id="Fill-25" class="st11" d="M-63.1,43.8c-2.6,2.1-3,6-0.8,8.5c2.1,2.6,6,3,8.5,0.8c2.6-2.1,3-6,0.8-8.5
							C-56.7,42-60.5,41.6-63.1,43.8"/>
						<path id="Fill-27" class="st3" d="M-35.4,38.1c-5.6,4.6-6.4,13-1.8,18.6c4.6,5.6,13,6.4,18.6,1.8c5.6-4.6,6.4-13,1.8-18.6
							S-29.8,33.5-35.4,38.1"/>
						<path id="Fill-29" class="st11" d="M-28.4,43.8c-2.6,2.1-3,6-0.8,8.5c2.1,2.6,6,3,8.5,0.8c2.6-2.1,3-6,0.8-8.5
							C-22,42-25.8,41.6-28.4,43.8"/>
					</g>
				</g>
			</g>
			<g id="Person-_x2F_-Man-_x2F_-3" transform="translate(450.000000, 593.000000)">
				<g id="Man-_x2F_-Head-_x2F_-3" transform="translate(245.000000, 69.000000)">
					<g id="Group-21" transform="translate(38.000000, 7.000000)">
						<g id="Face-color_1_" transform="translate(-0.000343, 69.000000)">
							<g id="Mask_3_">
								<path id="path-7_1_" class="st23" d="M220,119.6l-0.9-29.4c0,0,35.9,2.8,43.6-1.1c0,0,8.3-43.2-2-75.7L185,4.6l-5.4,43.3
									c-2.6-7.5-22.5-16.1-28-5.3c-11.9,23.2,30.7,38.8,30.7,38.8L178,120"/>
							</g>
							<defs>
								<filter id="Adobe_OpacityMaskFilter_3_" filterUnits="userSpaceOnUse" x="149.5" y="1.8" width="116" height="118">
									<feColorMatrix  type="matrix" values="1 0 0 0 0  0 1 0 0 0  0 0 1 0 0  0 0 0 1 0"/>
								</filter>
							</defs>
							<mask maskUnits="userSpaceOnUse" x="149.5" y="1.8" width="116" height="118" id="mask-8_1_">
								<g class="st24">
									<path id="path-7_2_" class="st3" d="M220,119.6l-0.9-29.4c0,0,35.9,2.8,43.6-1.1c0,0,8.3-43.2-2-75.7L185,4.6l-5.4,43.3
										c-2.6-7.5-22.5-16.1-28-5.3c-11.9,23.2,30.7,38.8,30.7,38.8L178,120"/>
								</g>
							</mask>
							<g id="Colors-_x2F_-Skin-_x2F_-Violet" class="st25">
								<g id="Color_3_" transform="translate(0.000343, -2.000000)">
									<rect x="149.5" y="3.8" class="st26" width="116" height="118"/>
								</g>
							</g>
						</g>
						<polygon id="Fill-4" class="st27" points="219.2,159.3 195,154.1 219.1,170.3 						"/>
						<polygon id="Fill-6" class="st28" points="239.2,111.3 247.5,131.6 237.5,131.7 						"/>
						<path id="Fill-8" class="st29" d="M229.6,117.1c0.5,2.7-1.3,5.4-4.1,5.9c-2.8,0.5-5.4-1.3-5.9-4.1c-0.5-2.7,1.3-5.4,4.1-5.9
							C226.5,112.5,229.1,114.3,229.6,117.1"/>
						<path id="Fill-10" class="st29" d="M255.9,117.1c0.5,2.7-1.3,5.4-4.1,5.9c-2.8,0.5-5.4-1.3-5.9-4.1c-0.5-2.7,1.3-5.4,4.1-5.9
							C252.8,112.5,255.4,114.3,255.9,117.1"/>
						<g id="Group-15" transform="translate(79.200000, 133.332490)">
							<path id="Fill-12" class="st3" d="M149.6,4.2c0,0,3.5,5.6,10.4,5.2"/>
							<path id="Stroke-14" class="st30" d="M149.6,4.2c0,0,3.5,5.6,10.4,5.2"/>
						</g>
						<path id="Combined-Shape" class="st11" d="M165.3,107.7c-3.4-12.4-15.5-58.3-14.1-66.2c1.7-9.1,8-20.2,40.7-31.9
							c27.7-9.9,43.3-2.7,48,3.4c7.2,9.3,20.8,69.5,20.8,69.5s-11.3,8-51.3,6.6c0,0,5.5,23.9-17.2,22.6c0,0,2.4,8.1-8.6,10.6
							C177.7,112.9,169.7,109.1,165.3,107.7z"/>
					</g>
				</g>
				<g id="Man-_x2F_-Legs-_x2F_-3" transform="translate(53.000000, 249.000000)">
					<g id="Group-20" transform="translate(56.000000, 180.241620)">
						<g id="Shoes" transform="translate(0.000000, 359.559925)">
							<g id="Mask_4_">
								<path id="path-9_1_" class="st29" d="M481.1,98.5l7,22.4c0,0,54.3-22.3,82.2-13.8l-94.1,54.5l-24.5-61.6L481.1,98.5z
									 M225.2,32l-30.4,27.9c0,0,4.5,18.6,6.4,36.1c2.8,25.4,1.1,48.3,1.1,48.3l-52.8-92.1l65.1-48.4L225.2,32z"/>
							</g>
							<defs>
								<filter id="Adobe_OpacityMaskFilter_4_" filterUnits="userSpaceOnUse" x="137.5" y="29.6" width="433" height="132">
									<feColorMatrix  type="matrix" values="1 0 0 0 0  0 1 0 0 0  0 0 1 0 0  0 0 0 1 0"/>
								</filter>
							</defs>
							<mask maskUnits="userSpaceOnUse" x="137.5" y="29.6" width="433" height="132" id="mask-10_1_">
								<g class="st31">
									<path id="path-9_2_" class="st3" d="M481.1,98.5l7,22.4c0,0,54.3-22.3,82.2-13.8l-94.1,54.5l-24.5-61.6L481.1,98.5z
										 M225.2,32l-30.4,27.9c0,0,4.5,18.6,6.4,36.1c2.8,25.4,1.1,48.3,1.1,48.3l-52.8-92.1l65.1-48.4L225.2,32z"/>
								</g>
							</mask>
							<g id="Colors-_x2F_-Skin-_x2F_--Light-Blue" class="st32">
								<g id="Color_4_" transform="translate(-12.000000, 25.818566)">
									<rect x="149.5" y="3.8" class="st33" width="433" height="132"/>
								</g>
							</g>
						</g>
						<g id="Skin-legs" transform="translate(27.000000, 359.533437)">
							<g id="Mask_5_">
								<path id="path-11_1_" class="st34" d="M426.3,105l29.1-2.6l5.7,18.6L437,131L426.3,105z M187.2,3.8l3.3,35.4L167.8,60
									l-18.1-27.8L187.2,3.8z"/>
							</g>
							<defs>
								<filter id="Adobe_OpacityMaskFilter_5_" filterUnits="userSpaceOnUse" x="145.5" y="13.7" width="345" height="117">
									<feColorMatrix  type="matrix" values="1 0 0 0 0  0 1 0 0 0  0 0 1 0 0  0 0 0 1 0"/>
								</filter>
							</defs>
							<mask maskUnits="userSpaceOnUse" x="145.5" y="13.7" width="345" height="117" id="mask-12_1_">
								<g class="st35">
									<path id="path-11_2_" class="st3" d="M426.3,105l29.1-2.6l5.7,18.6L437,131L426.3,105z M187.2,3.8l3.3,35.4L167.8,60
										l-18.1-27.8L187.2,3.8z"/>
								</g>
							</mask>
							<g id="Colors-_x2F_-Skin-_x2F_-Pink" class="st36">
								<g id="Color_5_" transform="translate(-4.000000, 9.912094)">
									<rect x="149.5" y="3.8" class="st37" width="345" height="117"/>
								</g>
							</g>
						</g>
						<g id="Pants" transform="translate(27.000000, 0.955579)">
							<g id="Mask_6_">
								<path id="path-13_1_" class="st38" d="M400.2,104.1l81.2,363l-22.4,5.7h0l-26,6.7l-0.1,0l-9,2.3c0,0-41.4-130.5-77.8-246.9
									c-8.9,14.4-18.8,28.7-30.1,42.6c-79.8,98.5-128.6,140.7-128.6,140.7l-7.3-10.9l0,0l-17.4-26.3l-12.6-19
									c0,0,109.3-103.1,158.4-248.2c-8.6-28.3-14.6-48.4-16.2-54.9c-8.8-36.8-9-53.7-9-55h94.5l37.9,0
									C414.3,27.8,410.5,63.4,400.2,104.1L400.2,104.1z"/>
							</g>
							<defs>
								<filter id="Adobe_OpacityMaskFilter_6_" filterUnits="userSpaceOnUse" x="140.5" y="3.8" width="341" height="478">
									<feColorMatrix  type="matrix" values="1 0 0 0 0  0 1 0 0 0  0 0 1 0 0  0 0 0 1 0"/>
								</filter>
							</defs>
							<mask maskUnits="userSpaceOnUse" x="140.5" y="3.8" width="341" height="478" id="mask-14_1_">
								<g class="st39">
									<path id="path-13_2_" class="st3" d="M400.2,104.1l81.2,363l-22.4,5.7h0l-26,6.7l-0.1,0l-9,2.3c0,0-41.4-130.5-77.8-246.9
										c-8.9,14.4-18.8,28.7-30.1,42.6c-79.8,98.5-128.6,140.7-128.6,140.7l-7.3-10.9l0,0l-17.4-26.3l-12.6-19
										c0,0,109.3-103.1,158.4-248.2c-8.6-28.3-14.6-48.4-16.2-54.9c-8.8-36.8-9-53.7-9-55h94.5l37.9,0
										C414.3,27.8,410.5,63.4,400.2,104.1L400.2,104.1z"/>
								</g>
							</mask>
							<g id="Colors-_x2F_-Wear-_x2F_-Black" class="st40">
								<g id="Color_6_" transform="translate(-9.000000, 0.040231)">
									<rect x="149.5" y="3.8" class="st41" width="341" height="478"/>
								</g>
							</g>
						</g>
						<g id="Overlay_2_" transform="translate(160.832300, 0.955579)">
							<path id="Mask_7_" class="st42" d="M347.6,467.2l-22.4,5.7h0l-26,6.7l-0.1,0l-9,2.3c0,0-41.4-130.5-77.8-246.9
								c-14.2-45.4-27.7-88.7-37.6-121.3C166,85.4,160,65.2,158.5,58.8c-8.8-36.8-9-53.7-9-55H244l22.4,100.4L347.6,467.2z"/>
						</g>
					</g>
				</g>
				<g id="Man-_x2F_-Body-_x2F_-3" transform="translate(186.000000, 212.000000)">
					<g id="Group-35" transform="translate(20.000000, 30.818182)">
						<g id="Hands" transform="translate(0.000000, 208.596045)">
							<g id="Mask_8_">
								<path id="path-15_1_" class="st43" d="M360.7,11.2c2.6-5.8,16-7.5,16-7.5s21.5,23.9,23.4,27.6c1.9,3.7,5.5,21.7,5.3,25.3
									c-0.2,3.6-11.3,19.6-11.3,19.6c-6.9-1.6-2.4-9.9-2.4-9.9s-6.2,5-8.7,5c-24.1-0.8-22.8-12.6-22.3-14.1
									c1.3-3.3,7.7,0.5,7.7,0.5S353.4,27.9,360.7,11.2z M185.6,16.1l4.4,8.3c0,0,2.2,3.8,4.6,10.5c2.3,6.7,1.4,10.8,6.4,21.2
									c5.7,11.9-4.5,7-8.2,1.8c-2.9-4.1-2.5-9.5-6.3-12c-1.2,2-4.1,4.8-5.7,22C180.6,71,182,81,182,81c0,3,0.4,9.2-3,10.2
									c-0.8,0.2-1.9-0.7-1.9-0.7s0.3,3.9-3.2,4.7c-1.4,0.3-4.1-8.1-4.1-8.1s-0.4,4.3-3,4.8c-0.7,0.1-9.4-24.3-9.4-24.3l0.5,5.5
									l1.2,5.7c0,0-0.1,3-2.5,3.6c-1,0.2-2.8-4.9-4.6-10.8c-2.7-9.3-2.7-16.3-1.9-23.2c1-8.4,0.5-11.2,4.3-21.5
									c1.5-4.2,4.9-10.7,6.7-13.4L185.6,16.1z"/>
							</g>
							<defs>
								<filter id="Adobe_OpacityMaskFilter_7_" filterUnits="userSpaceOnUse" x="143.5" y="17.9" width="262" height="78">
									<feColorMatrix  type="matrix" values="1 0 0 0 0  0 1 0 0 0  0 0 1 0 0  0 0 0 1 0"/>
								</filter>
							</defs>
							<mask maskUnits="userSpaceOnUse" x="143.5" y="17.9" width="262" height="78" id="mask-16_1_">
								<g class="st44">
									<path id="path-15_2_" class="st3" d="M360.7,11.2c2.6-5.8,16-7.5,16-7.5s21.5,23.9,23.4,27.6c1.9,3.7,5.5,21.7,5.3,25.3
										c-0.2,3.6-11.3,19.6-11.3,19.6c-6.9-1.6-2.4-9.9-2.4-9.9s-6.2,5-8.7,5c-24.1-0.8-22.8-12.6-22.3-14.1
										c1.3-3.3,7.7,0.5,7.7,0.5S353.4,27.9,360.7,11.2z M185.6,16.1l4.4,8.3c0,0,2.2,3.8,4.6,10.5c2.3,6.7,1.4,10.8,6.4,21.2
										c5.7,11.9-4.5,7-8.2,1.8c-2.9-4.1-2.5-9.5-6.3-12c-1.2,2-4.1,4.8-5.7,22C180.6,71,182,81,182,81c0,3,0.4,9.2-3,10.2
										c-0.8,0.2-1.9-0.7-1.9-0.7s0.3,3.9-3.2,4.7c-1.4,0.3-4.1-8.1-4.1-8.1s-0.4,4.3-3,4.8c-0.7,0.1-9.4-24.3-9.4-24.3l0.5,5.5
										l1.2,5.7c0,0-0.1,3-2.5,3.6c-1,0.2-2.8-4.9-4.6-10.8c-2.7-9.3-2.7-16.3-1.9-23.2c1-8.4,0.5-11.2,4.3-21.5
										c1.5-4.2,4.9-10.7,6.7-13.4L185.6,16.1z"/>
								</g>
							</mask>
							<g id="Colors-_x2F_-Skin-_x2F_-Violet_1_" class="st45">
								<g id="Color_7_" transform="translate(-6.000000, 14.090172)">
									<rect x="149.5" y="3.8" class="st26" width="262" height="78"/>
								</g>
							</g>
						</g>
						<path id="Stroke-3_1_" class="st46" d="M373.5,233.9c0,0,3.4,12.4,15,16.2c4.1,1.3,3,17.2,13,15.3"/>
						<g id="T-Shirt">
							<g id="Mask_9_">
								<path id="path-17_1_" class="st47" d="M244.9,23.5l5.7-19.7l28.6,1.8l9.9,16.2l9.9-15l7.1,0.4l2.4,18.7
									c1.3,0.5,2.5,1,3.7,1.6c1.6,0.7,3.1,1.4,4.6,2.2l0.1,0c20.2,10.2,23.1,20.6,29.5,33.8c8.2,16.8,16.6,68.3,16.6,68.3l35.5,89
									L355,244.9l-10.7-20.6l0.3-27.5h-63.5l-7,0h-62.4l-0.9-33.9l-11.3,67.9l-49.7,2.3c0,0-1-70.7,8.5-111.7
									c6-26.1,35.5-74.5,63.4-91.2c4.5-2.7,10.4-4.5,17-5.8C240.5,24.1,242.7,23.8,244.9,23.5z M282.3,203.8
									c0,2.3-1.8,4.1-4.1,4.1c-2.3,0-4.1-1.8-4.1-4.1c0-2.3,1.8-4.1,4.1-4.1C280.4,199.7,282.3,201.5,282.3,203.8z M327.4,204
									c0,2.3-1.8,4.1-4.1,4.1c-2.3,0-4.1-1.8-4.1-4.1c0-2.3,1.8-4.1,4.1-4.1C325.6,199.9,327.4,201.8,327.4,204z"/>
							</g>
							<defs>
								<filter id="Adobe_OpacityMaskFilter_8_" filterUnits="userSpaceOnUse" x="140.5" y="3.8" width="258" height="242">
									<feColorMatrix  type="matrix" values="1 0 0 0 0  0 1 0 0 0  0 0 1 0 0  0 0 0 1 0"/>
								</filter>
							</defs>
							<mask maskUnits="userSpaceOnUse" x="140.5" y="3.8" width="258" height="242" id="mask-18_1_">
								<g class="st48">
									<path id="path-17_2_" class="st3" d="M244.9,23.5l5.7-19.7l28.6,1.8l9.9,16.2l9.9-15l7.1,0.4l2.4,18.7
										c1.3,0.5,2.5,1,3.7,1.6c1.6,0.7,3.1,1.4,4.6,2.2l0.1,0c20.2,10.2,23.1,20.6,29.5,33.8c8.2,16.8,16.6,68.3,16.6,68.3
										l35.5,89L355,244.9l-10.7-20.6l0.3-27.5h-63.5l-7,0h-62.4l-0.9-33.9l-11.3,67.9l-49.7,2.3c0,0-1-70.7,8.5-111.7
										c6-26.1,35.5-74.5,63.4-91.2c4.5-2.7,10.4-4.5,17-5.8C240.5,24.1,242.7,23.8,244.9,23.5z M282.3,203.8
										c0,2.3-1.8,4.1-4.1,4.1c-2.3,0-4.1-1.8-4.1-4.1c0-2.3,1.8-4.1,4.1-4.1C280.4,199.7,282.3,201.5,282.3,203.8z M327.4,204
										c0,2.3-1.8,4.1-4.1,4.1c-2.3,0-4.1-1.8-4.1-4.1c0-2.3,1.8-4.1,4.1-4.1C325.6,199.9,327.4,201.8,327.4,204z"/>
								</g>
							</mask>
							<g id="Colors-_x2F_-Wear-_x2F_-Cream" class="st49">
								<g id="Color_8_" transform="translate(-9.000000, 0.000000)">
									<rect x="149.5" y="3.8" class="st50" width="258" height="242"/>
								</g>
							</g>
						</g>
						<polyline id="Stroke-9" class="st51" points="210.9,170.5 220,123 242.7,84.9 						"/>
						<path id="Stroke-11_1_" class="st52" d="M342.6,197l4.3-69.2"/>
						<g id="Shirt-shadow" transform="translate(115.000000, 5.767772)">
							<g id="Mask_10_">
								<path id="path-19_1_" class="st53" d="M150.1,28.4l7.7-24.7l13,15.5L150.1,28.4z M176.3,19l12.5-13.2l4.2,23L176.3,19z"/>
							</g>
							<defs>
								<filter id="Adobe_OpacityMaskFilter_9_" filterUnits="userSpaceOnUse" x="148.5" y="4" width="45" height="25">
									<feColorMatrix  type="matrix" values="1 0 0 0 0  0 1 0 0 0  0 0 1 0 0  0 0 0 1 0"/>
								</filter>
							</defs>
							<mask maskUnits="userSpaceOnUse" x="148.5" y="4" width="45" height="25" id="mask-20_1_">
								<g class="st54">
									<path id="path-19_2_" class="st3" d="M150.1,28.4l7.7-24.7l13,15.5L150.1,28.4z M176.3,19l12.5-13.2l4.2,23L176.3,19z"/>
								</g>
							</mask>
							<g id="Colors-_x2F_-Wear-_x2F_-Dark-Cream" class="st55">
								<g id="Color_9_" transform="translate(-1.000000, 0.197038)">
									<rect x="149.5" y="3.8" class="st56" width="45" height="25"/>
								</g>
							</g>
						</g>
						<path id="Fill-19" class="st57" d="M194.3,222.9c0,2.2-1.8,4-4,4s-4-1.8-4-4s1.8-4,4-4S194.3,220.7,194.3,222.9"/>
						<path id="Fill-21" class="st58" d="M391.5,217.7c0,2.2-1.8,4-4,4c-2.2,0-4-1.8-4-4c0-2.2,1.8-4,4-4
							C389.7,213.7,391.5,215.5,391.5,217.7"/>
						<path id="Stroke-23" class="st59" d="M149.6,211.7l53.1-2.3"/>
						<path id="Stroke-25" class="st60" d="M344.6,225.2l45.7-25"/>
						<path id="Fill-27_1_" class="st61" d="M281.1,196.8l-7,0c-0.4-84.8-14.4-141.3-35.6-172.2v0l7.1-1.7c0.1,0.1,0.2,0.3,0.3,0.5
							C267.6,53.5,281.9,109.8,281.1,196.8"/>
						<path id="Fill-29_1_" class="st62" d="M328.5,196.8h-7.2c10.1-81.5,3.7-138-12.8-170.8c0-0.1-0.1-0.1-0.1-0.2l3.8,1.8l4.6,2.2
							l0.1,0C334.2,61.8,340,113.4,328.5,196.8"/>
					</g>
				</g>
			</g>
			<g id="Background-Object-_x2F_-Streetlight-_x2F_-1" transform="translate(1261.000000, 237.000000)">
				<g id="Group-11" transform="translate(300.000000, 91.000000)">
					<polygon id="Fill-1" class="st63" points="466.4,923.5 482.4,923.5 482.4,211.7 466.4,211.7 					"/>
					<path id="Fill-2" class="st64" d="M302,229.8l-126.6-42c-5.3-1.8-8.2-7.5-6.4-12.8l6.3-19.1c1.8-5.3,7.5-8.2,12.8-6.4l126.6,42
						c5.3,1.8,8.2,7.5,6.4,12.8l-6.3,19.1C313,228.6,307.3,231.5,302,229.8"/>
					<polygon id="Fill-4_1_" class="st65" points="443.7,1187.4 505.1,1187.4 505.1,951.5 443.7,951.5 					"/>
					<polygon id="Fill-6_1_" class="st65" points="456.7,995.5 492.1,995.5 492.1,914.8 456.7,914.8 					"/>
					<polygon id="Fill-7" class="st65" points="459.7,228.7 489.1,228.7 489.1,194.4 459.7,194.4 					"/>
					<path id="Stroke-8_2_" class="st66" d="M259.1,173.4c0,0,215.3,47.6,215.3,163.3"/>
					<path id="Fill-9_1_" class="st65" d="M316.1,216.9l-138.8-46c-12.4-4.1-19.2-17.7-15.1-30.1l1.2-3.8
						c4.1-12.4,17.7-19.2,30.1-15.1l138.8,46c12.4,4.1,19.2,17.7,15.1,30.1l-1.2,3.8C342.1,214.2,328.5,221,316.1,216.9"/>
				</g>
			</g>
			
				<g id="Background-Object-_x2F_-Streetlight-_x2F_-1_1_" transform="translate(472.500000, 864.000000) scale(-1, 1) translate(-472.500000, -864.000000) translate(0.000000, 239.000000)">
				<g id="Group-11_1_" transform="translate(300.000000, 91.000000)">
					<polygon id="Fill-1_1_" class="st63" points="239.5,921.5 255.5,921.5 255.5,209.7 239.5,209.7 					"/>
					<path id="Fill-2_1_" class="st64" d="M75.1,227.8l-126.6-42c-5.3-1.8-8.2-7.5-6.4-12.8l6.3-19.1c1.8-5.3,7.5-8.2,12.8-6.4
						l126.6,42c5.3,1.8,8.2,7.5,6.4,12.8l-6.3,19.1C86.2,226.6,80.4,229.5,75.1,227.8"/>
					<polygon id="Fill-4_2_" class="st65" points="216.8,1185.4 278.2,1185.4 278.2,949.5 216.8,949.5 					"/>
					<polygon id="Fill-6_2_" class="st65" points="229.8,993.5 265.2,993.5 265.2,912.8 229.8,912.8 					"/>
					<polygon id="Fill-7_1_" class="st65" points="232.8,226.7 262.2,226.7 262.2,192.4 232.8,192.4 					"/>
					<path id="Stroke-8_3_" class="st66" d="M32.2,171.4c0,0,215.3,47.6,215.3,163.3"/>
					<path id="Fill-9_2_" class="st65" d="M89.2,214.9l-138.8-46c-12.4-4.1-19.2-17.7-15.1-30.1l1.2-3.8
						c4.1-12.4,17.7-19.2,30.1-15.1l138.8,46c12.4,4.1,19.2,17.7,15.1,30.1l-1.2,3.8C115.2,212.2,101.7,219,89.2,214.9"/>
				</g>
			</g>
			<g id="Background-Object-_x2F_-Cloud-_x2F_-3" transform="translate(885.000000, 0.000000)">
				<g id="Group-3" transform="translate(205.000000, 62.000000)">
					<path id="Fill-1_2_" class="st64" d="M366.1,331.1h-589.2c0,0,38.3-147.3,117.7-147.3c49.9,0,70,52.1,116.4,52.1
						c46.4,0,105.3-129.6,181.1-129.6C310.7,106.3,366.1,331.1,366.1,331.1"/>
				</g>
			</g>
			<g id="Background-Object-_x2F_-Cloud-_x2F_-4" transform="translate(268.000000, 102.000000)">
				<g id="Group-3_1_" transform="translate(324.000000, 124.000000)">
					<path id="Fill-1_3_" class="st64" d="M453.4,124.4H101.3c0,0,33.2-48.4,60.4-49.1c32.5-0.9,47.2,34.9,78.5,34.9
						c31.3,0,52.2-87.5,110-87.5C412,22.6,453.4,124.4,453.4,124.4"/>
				</g>
			</g>
			<g id="Background-Object-_x2F_-Trach" transform="translate(1621.000000, 882.000000)">
				<g id="Group-18" transform="translate(364.000000, 197.000000)">
					<path id="Fill-1_4_" class="st67" d="M790.7-22.3l-18.6,269.5H608.7L590.1-22.3c-0.6-8.4,6.1-15.6,14.6-15.6h171.5
						C784.6-37.9,791.3-30.7,790.7-22.3"/>
					<path id="Stroke-3_2_" class="st68" d="M690.4,22.9v181.7"/>
					<path id="Stroke-5" class="st68" d="M748.3,22.9l-12.6,181.7"/>
					<path id="Stroke-7" class="st68" d="M632.4,22.9l12.6,181.7"/>
					<path id="Fill-9_3_" class="st67" d="M797.6-21H582.4v-11.4c0-10.3,8.4-18.7,18.7-18.7h177.8c10.3,0,18.7,8.4,18.7,18.7V-21z"
						/>
					<path id="Stroke-12_1_" class="st69" d="M590.1-14.3h200.6"/>
					<polygon id="Fill-14_1_" class="st67" points="650.8,-47.1 659.5,-47.1 659.5,-66.4 650.8,-66.4 					"/>
					<polygon id="Fill-16_1_" class="st67" points="718.2,-48.9 726.9,-48.9 726.9,-68.2 718.2,-68.2 					"/>
					<polygon id="Fill-17" class="st67" points="650.8,-63.4 726.9,-63.4 726.9,-74.1 650.8,-74.1 					"/>
				</g>
			</g>
			<g id="Background-Object-_x2F_-Cloud-_x2F_-3_1_" transform="translate(885.000000, 0.000000)">
				<g id="Group-3_2_" transform="translate(205.000000, 62.000000)">
					<path id="Fill-1_5_" class="st64" d="M-142.7,331.1h-598.2c0,0,38.9-147.3,119.5-147.3c50.7,0,71.1,52.1,118.1,52.1
						c47.1,0,106.9-129.6,183.9-129.6C-199,106.3-142.7,331.1-142.7,331.1"/>
				</g>
			</g>
			<g id="Background-Object-_x2F_-Cloud-_x2F_-3_2_" transform="translate(885.000000, 0.000000)">
				<g id="Group-3_3_" transform="translate(205.000000, 62.000000)">
					<path id="Fill-1_6_" class="st64" d="M1010.4,331.1H40.2c0,0,63-147.3,193.8-147.3c82.2,0,115.3,52.1,191.6,52.1
						c76.3,0,173.3-129.6,298.2-129.6C919.2,106.3,1010.4,331.1,1010.4,331.1"/>
				</g>
			</g>
		</g>
	</g>
</g>
</svg>
