<?xml version="1.0" encoding="utf-8"?>
<!-- Generator: Adobe Illustrator 25.0.0, SVG Export Plug-In . SVG Version: 6.00 Build 0)  -->
<svg version="1.1" xmlns="http://www.w3.org/2000/svg" xmlns:xlink="http://www.w3.org/1999/xlink" x="0px" y="0px"
	 viewBox="0 0 1316 1262" style="enable-background:new 0 0 1316 1262;" xml:space="preserve">
<style type="text/css">
	.st0{fill-rule:evenodd;clip-rule:evenodd;fill:#ECF6FF;}
	.st1{fill:none;stroke:#B6D4FF;stroke-width:8;}
	.st2{fill:none;stroke:#CCE3FF;stroke-width:8;stroke-linecap:square;}
	.st3{fill-rule:evenodd;clip-rule:evenodd;fill:#CCE3FF;}
	.st4{fill:none;stroke:#ECF6FF;stroke-width:8;stroke-linecap:square;}
	.st5{fill-rule:evenodd;clip-rule:evenodd;fill:#D7EBFF;}
	.st6{fill-rule:evenodd;clip-rule:evenodd;fill:#B6D4FF;}
	.st7{fill:none;stroke:#DCEEFF;stroke-width:15;stroke-linejoin:bevel;}
	.st8{fill-rule:evenodd;clip-rule:evenodd;fill:#19141E;}
	.st9{fill-rule:evenodd;clip-rule:evenodd;fill:#CF3E83;}
	.st10{fill-rule:evenodd;clip-rule:evenodd;fill:#5E93D1;}
	.st11{filter:url(#Adobe_OpacityMaskFilter);}
	.st12{fill-rule:evenodd;clip-rule:evenodd;fill:#FFFFFF;}
	.st13{mask:url(#mask-2_1_);}
	.st14{fill:#E576C6;}
	.st15{fill-rule:evenodd;clip-rule:evenodd;fill:#2437A8;}
	.st16{fill-rule:evenodd;clip-rule:evenodd;fill:#0D0B6D;}
	.st17{fill:none;stroke:#1C295E;stroke-width:3;}
	.st18{opacity:0.3952;fill-rule:evenodd;clip-rule:evenodd;enable-background:new    ;}
	.st19{filter:url(#Adobe_OpacityMaskFilter_1_);}
	.st20{mask:url(#mask-4_1_);}
	.st21{fill:#0D0B6D;}
	.st22{filter:url(#Adobe_OpacityMaskFilter_2_);}
	.st23{mask:url(#mask-6_1_);}
	.st24{fill:#CF3E83;}
	.st25{filter:url(#Adobe_OpacityMaskFilter_3_);}
	.st26{mask:url(#mask-8_1_);}
	.st27{opacity:0.1469;}
	.st28{fill-rule:evenodd;clip-rule:evenodd;fill:#E576C6;}
	.st29{fill-rule:evenodd;clip-rule:evenodd;fill:#CE3D29;}
	.st30{fill:none;stroke:#FF9929;stroke-width:3;}
	.st31{fill-rule:evenodd;clip-rule:evenodd;fill:#FCBDA4;}
	.st32{filter:url(#Adobe_OpacityMaskFilter_4_);}
	.st33{mask:url(#mask-10_1_);}
	.st34{fill:#FCBDA4;}
	.st35{filter:url(#Adobe_OpacityMaskFilter_5_);}
	.st36{mask:url(#mask-12_1_);}
	.st37{opacity:0.1466;fill:none;stroke:#000000;stroke-width:3;enable-background:new    ;}
	.st38{filter:url(#Adobe_OpacityMaskFilter_6_);}
	.st39{mask:url(#mask-14_1_);}
	.st40{opacity:0.2046;fill:none;stroke:#000000;stroke-width:3;enable-background:new    ;}
	.st41{opacity:0.2013;fill:none;stroke:#000000;stroke-width:3;enable-background:new    ;}
	.st42{opacity:0.2013;fill-rule:evenodd;clip-rule:evenodd;enable-background:new    ;}
	.st43{opacity:0.1966;fill:none;stroke:#000000;stroke-width:3;enable-background:new    ;}
	.st44{filter:url(#Adobe_OpacityMaskFilter_7_);}
	.st45{mask:url(#mask-16_1_);}
	.st46{opacity:0.3989;fill-rule:evenodd;clip-rule:evenodd;enable-background:new    ;}
	.st47{fill-rule:evenodd;clip-rule:evenodd;fill:#252535;}
	.st48{fill:none;stroke:#252535;stroke-width:4;}
	.st49{filter:url(#Adobe_OpacityMaskFilter_8_);}
	.st50{mask:url(#mask-18_1_);}
	.st51{fill:#C662D1;}
	.st52{fill-rule:evenodd;clip-rule:evenodd;fill:#CF9642;}
	.st53{filter:url(#Adobe_OpacityMaskFilter_9_);}
	.st54{mask:url(#mask-20_1_);}
	.st55{fill:#CF9642;}
	.st56{fill-rule:evenodd;clip-rule:evenodd;fill:#3D2330;}
	.st57{filter:url(#Adobe_OpacityMaskFilter_10_);}
	.st58{mask:url(#mask-22_1_);}
	.st59{opacity:0.1978;fill-rule:evenodd;clip-rule:evenodd;enable-background:new    ;}
	.st60{fill-rule:evenodd;clip-rule:evenodd;fill:#EFEFEF;}
	.st61{filter:url(#Adobe_OpacityMaskFilter_11_);}
	.st62{mask:url(#mask-24_1_);}
	.st63{fill:#EFEFEF;}
	.st64{filter:url(#Adobe_OpacityMaskFilter_12_);}
	.st65{mask:url(#mask-26_1_);}
	.st66{fill-rule:evenodd;clip-rule:evenodd;fill:#5B6EA0;}
	.st67{filter:url(#Adobe_OpacityMaskFilter_13_);}
	.st68{mask:url(#mask-28_1_);}
	.st69{fill:#5B6EA0;}
	.st70{opacity:0.2012;fill-rule:evenodd;clip-rule:evenodd;enable-background:new    ;}
	.st71{opacity:0.2006;fill:none;stroke:#000000;stroke-width:5;enable-background:new    ;}
</style>
<g id="Layer_1">
	<desc>Created with Sketch.</desc>
	<g id="Background-Object-_x2F_-Tree-_x2F_-3" transform="translate(78.000000, 315.000000)">
		<g id="Group-12" transform="translate(234.000000, 30.000000)">
			<path id="Fill-1" class="st0" d="M963.3,331.7c0,123-101.2,222.8-226,222.8s-226-99.7-226-222.8s101.2-222.8,226-222.8
				S963.3,208.6,963.3,331.7"/>
			<path id="Stroke-4" class="st1" d="M737,266.9v455.9"/>
			<path id="Stroke-6" class="st1" d="M737.3,478.6l50.3-49.6"/>
			<path id="Stroke-8" class="st1" d="M739.2,329.7l25.9-25.5"/>
			<path id="Stroke-10" class="st1" d="M737.3,404.6l-48.2-47.5"/>
		</g>
	</g>
	<g id="Background-Object-_x2F_-Tree-_x2F_-4" transform="translate(864.000000, 315.000000)">
		<g id="Group-12_1_" transform="translate(308.000000, 24.000000)">
			<path id="Fill-1_1_" class="st0" d="M795.3,443.9c0,106.1-70.3,153.7-156.6,153.7c-86.3,0-156.6-47.6-156.6-153.7
				c0-197.6,85.5-382.2,156.6-382.2C709.8,61.8,795.3,246.3,795.3,443.9"/>
			<path id="Stroke-4_1_" class="st2" d="M638.4,272.2V686"/>
			<path id="Stroke-6_1_" class="st2" d="M641.5,528l58.2-57.3"/>
			<path id="Stroke-8_1_" class="st2" d="M640.6,343.5l36.1-35.6"/>
			<path id="Stroke-10_1_" class="st2" d="M636.8,444.3l-53.6-52.9"/>
		</g>
	</g>
	<g id="Background-Object-_x2F_-Tree-_x2F_-5" transform="translate(606.000000, 0.000000)">
		<g id="Group-12_2_" transform="translate(300.000000, 186.000000)">
			<path id="Fill-1_2_" class="st3" d="M822.3,557.6c0,107.2-71,167.1-163.4,167.1c-92.5,0-163.4-59.8-163.4-167.1
				c0-225.8,104.3-486.1,163.4-486.1C718,71.5,822.3,331.8,822.3,557.6"/>
			<path id="Stroke-4_2_" class="st4" d="M658.5,398v495.3"/>
			<path id="Stroke-6_2_" class="st4" d="M660.8,660.3l57.8-57"/>
			<path id="Stroke-8_2_" class="st4" d="M654.1,551.6L606.7,505"/>
			<path id="Stroke-10_2_" class="st4" d="M661.7,478.5l36.1-35.6"/>
		</g>
	</g>
	<g id="Background-Object-_x2F_-Sofa-_x2F_-4" transform="translate(102.000000, 397.000000)">
		<g id="Group-17" transform="translate(254.000000, 426.000000)">
			<polygon id="Fill-1_3_" class="st3" points="1195.5,217.9 1235.8,403.3 1262.5,403.3 1222.2,217.9 			"/>
			<polygon id="Fill-2" class="st5" points="547.5,218.8 1237.9,218.8 1237.9,189.8 547.5,189.8 			"/>
			<polygon id="Fill-3" class="st5" points="1091.7,321.8 1226.5,321.8 1226.5,292.8 1091.7,292.8 			"/>
			<polygon id="Fill-4" class="st3" points="690.2,29.7 659.9,189.8 696.5,189.8 726.8,29.7 			"/>
			<polygon id="Fill-5" class="st3" points="1216.2,29.7 1185.9,189.8 1222.5,189.8 1252.8,29.7 			"/>
			<polygon id="Fill-6" class="st6" points="1076.5,218.8 1237.9,218.8 1237.9,189.8 1076.5,189.8 			"/>
			<polygon id="Fill-7" class="st3" points="1289.4,133.6 1283.9,162.7 1246.9,162.7 1252.4,133.6 			"/>
			<polygon id="Fill-8" class="st5" points="1252.6,133.6 1247.2,162.7 633,162.7 638.4,133.6 			"/>
			<polygon id="Fill-9" class="st3" points="1299.3,82.2 1293.8,111.2 1256.8,111.2 1262.3,82.2 			"/>
			<polygon id="Fill-10" class="st5" points="1262.5,82.2 1257.1,111.2 642.9,111.2 648.3,82.2 			"/>
			<polygon id="Fill-11" class="st3" points="1272.1,29.7 1266.6,58.8 1303.6,58.8 1309.1,29.7 			"/>
			<polygon id="Fill-12" class="st5" points="658.2,29.7 652.7,58.8 1266.9,58.8 1272.3,29.7 			"/>
			<polygon id="Fill-13" class="st3" points="1091.4,217.9 1051,403.3 1077.7,403.3 1118.1,217.9 			"/>
			<polygon id="Fill-14" class="st3" points="667.5,217.9 707.9,403.3 734.6,403.3 694.2,217.9 			"/>
			<polygon id="Fill-15" class="st5" points="563.7,321.8 698.5,321.8 698.5,292.8 563.7,292.8 			"/>
			<polygon id="Fill-16" class="st3" points="563.4,217.9 523.1,403.3 549.8,403.3 590.1,217.9 			"/>
		</g>
	</g>
	<g id="Background-Object-_x2F_-Streetlight-_x2F_-1" transform="translate(826.000000, 4.000000)">
		<g id="Group-11" transform="translate(300.000000, 91.000000)">
			<polygon id="Fill-1_4_" class="st5" points="774.7,828.9 789.9,828.9 789.9,162.3 774.7,162.3 			"/>
			<path id="Fill-2_1_" class="st0" d="M618.3,179.4L498,140.1c-5-1.6-7.8-7-6.1-12l6-17.8c1.7-5,7.1-7.7,12.2-6l120.2,39.3
				c5,1.6,7.8,7,6.1,12l-6,17.8C628.7,178.3,623.3,181.1,618.3,179.4"/>
			<polygon id="Fill-4_1_" class="st3" points="752.8,1076 810.7,1076 810.7,855.1 752.8,855.1 			"/>
			<polygon id="Fill-6_1_" class="st3" points="765.2,896.3 798.4,896.3 798.4,820.5 765.2,820.5 			"/>
			<polygon id="Fill-7_1_" class="st3" points="768,178.2 795.6,178.2 795.6,146.4 768,146.4 			"/>
			<path id="Stroke-8_3_" class="st7" d="M577.5,126.6c0,0,204.5,44.6,204.5,152.9"/>
			<path id="Fill-9_1_" class="st3" d="M631.7,167.4l-131.8-43.1c-11.8-3.9-18.2-16.5-14.3-28.2l1.2-3.5c3.9-11.6,16.8-18,28.6-14.1
				l131.8,43.1c11.8,3.9,18.2,16.5,14.3,28.2l-1.2,3.5C656.3,164.9,643.5,171.2,631.7,167.4"/>
		</g>
	</g>
	
		<g id="Person-_x2F_-Girl-_x2F_-1" transform="translate(1171.000000, 953.500000) scale(-1, 1) translate(-1171.000000, -953.500000) translate(916.000000, 481.000000)">
		<g id="Girl-_x2F_-Head-_x2F_-1" transform="translate(93.000000, -10.000000)">
			<g id="Group-23" transform="translate(87.000000, 48.000000)">
				<path id="Fill-1_5_" class="st8" d="M-347.4,113.2c0.1,34.8-29.2,63-65.4,63.1c-36.1,0.1-65.5-28.1-65.5-62.9
					c-0.1-34.8,29.2-63,65.4-63.1C-376.8,50.2-347.4,78.4-347.4,113.2"/>
				<polygon id="Fill-4_2_" class="st8" points="-478,113.9 -477.9,183.9 -347,183.7 -347.1,113.7 				"/>
				<path id="Fill-7_2_" class="st9" d="M-402.3,176.8c0,0-12.3,0.4-17.5-2.5l16.9,10.4L-402.3,176.8z"/>
				<g id="Face-color" transform="translate(30.739471, 45.488937)">
					<g id="Mask">
						<path id="path-1_1_" class="st10" d="M-405.7,127.3c-6.5,3.7-17.7,4.6-27.4,4.1l-2.2,27.2l-31.7-12.9c0,0,3-30,4.4-41.5
							c-6.4-5.7-17.2-8.3-17.2-18c0-3.3,2-9.1,9.3-9.2c9.8,0,8.4,11.6,8.4,11.6c11.1,4.3,22.5-32.6,29.1-41
							c3.6-4.6,31.1,5.7,31.1,5.7l16.6,4.4C-385.3,57.7-384.8,115.4-405.7,127.3"/>
					</g>
					<defs>
						<filter id="Adobe_OpacityMaskFilter" filterUnits="userSpaceOnUse">
							<feColorMatrix  type="matrix" values="1 0 0 0 0  0 1 0 0 0  0 0 1 0 0  0 0 0 1 0"/>
						</filter>
					</defs>
					<mask maskUnits="userSpaceOnUse" id="mask-2_1_">
						<g class="st11">
							<path id="path-1_2_" class="st12" d="M-405.7,127.3c-6.5,3.7-17.7,4.6-27.4,4.1l-2.2,27.2l-31.7-12.9c0,0,3-30,4.4-41.5
								c-6.4-5.7-17.2-8.3-17.2-18c0-3.3,2-9.1,9.3-9.2c9.8,0,8.4,11.6,8.4,11.6c11.1,4.3,22.5-32.6,29.1-41
								c3.6-4.6,31.1,5.7,31.1,5.7l16.6,4.4C-385.3,57.7-384.8,115.4-405.7,127.3"/>
						</g>
					</mask>
					<g id="Colors-_x2F_-Skin-_x2F_-Rose" class="st13">
						<g id="Color" transform="translate(0.260529, 9.511063)">
							<rect x="-479.6" y="148.6" class="st14" width="94" height="-103"/>
						</g>
					</g>
				</g>
				<polygon id="Fill-11_1_" class="st15" points="-375.6,134.1 -368.6,150.9 -376.8,150.7 				"/>
				<path id="Fill-13_1_" class="st16" d="M-383.1,134.8c-0.2,3.4-2.2,6-4.5,5.8c-2.3-0.1-4-3-3.8-6.3c0.2-3.4,2.2-6,4.5-5.8
					C-384.7,128.6-383,131.4-383.1,134.8"/>
				<path id="Fill-15_1_" class="st16" d="M-361.6,134.3c-0.2,3.4-2.2,6-4.5,5.8c-2.3-0.1-4-3-3.8-6.3s2.2-6,4.5-5.8
					C-363.1,128.1-361.4,130.9-361.6,134.3"/>
				<path id="Stroke-17" class="st17" d="M-378.8,158.7c0,0-5.3,1.7-10.6-4.1"/>
				<path id="Fill-19" class="st18" d="M-402.4,176.8c0,0-12.3,0.4-17.5-2.5l16.9,10.4L-402.4,176.8z"/>
				<path id="Fill-21" class="st8" d="M-429.7,134.4c0,0,52.9-2.9,77.9-34.7c15.4-19.6-73.3-24.8-73.3-24.8L-429.7,134.4z"/>
			</g>
		</g>
		<g id="Girl-_x2F_-Legs-_x2F_-1" transform="translate(4.000000, 286.000000)">
			<g id="Group-16" transform="translate(37.000000, 51.000000)">
				<g id="Shoes-color" transform="translate(0.000000, 390.393654)">
					<g id="Mask_1_">
						<path id="path-3_1_" class="st16" d="M-161.6,87.6l5.2,19.6c0,0,41.7-17.7,64.2-9.9l-74.5,46l-18.8-54.9L-161.6,87.6z
							 M-414.3,28.6l-23.3,23c0,0,2.1,12.5,2.2,27c0.1,21-2.8,41.5-2.8,41.5l-33.2-74.8l48.9-39.8L-414.3,28.6z"/>
					</g>
					<defs>
						<filter id="Adobe_OpacityMaskFilter_1_" filterUnits="userSpaceOnUse">
							<feColorMatrix  type="matrix" values="1 0 0 0 0  0 1 0 0 0  0 0 1 0 0  0 0 0 1 0"/>
						</filter>
					</defs>
					<mask maskUnits="userSpaceOnUse" id="mask-4_1_">
						<g class="st19">
							<path id="path-3_2_" class="st12" d="M-161.6,87.6l5.2,19.6c0,0,41.7-17.7,64.2-9.9l-74.5,46l-18.8-54.9L-161.6,87.6z
								 M-414.3,28.6l-23.3,23c0,0,2.1,12.5,2.2,27c0.1,21-2.8,41.5-2.8,41.5l-33.2-74.8l48.9-39.8L-414.3,28.6z"/>
						</g>
					</mask>
					<g id="Colors-_x2F_-Wear-_x2F_-Dark-Plum" class="st20">
						<g id="Color_1_" transform="translate(-11.538462, 20.183269)">
							<rect x="-470.9" y="123.2" class="st21" width="390.3" height="-118.9"/>
						</g>
					</g>
				</g>
				<g id="Skin-color" transform="translate(20.192308, 390.371058)">
					<g id="Mask_2_">
						<path id="path-5_1_" class="st9" d="M-210.2,76.9l24.4-4.5l9.2,34.9l-19.7,8.4L-210.2,76.9z M-443,5.4l2.6,29.1l-17.4,17.1
							l-13.8-22.9L-443,5.4z"/>
					</g>
					<defs>
						<filter id="Adobe_OpacityMaskFilter_2_" filterUnits="userSpaceOnUse">
							<feColorMatrix  type="matrix" values="1 0 0 0 0  0 1 0 0 0  0 0 1 0 0  0 0 0 1 0"/>
						</filter>
					</defs>
					<mask maskUnits="userSpaceOnUse" id="mask-6_1_">
						<g class="st22">
							<path id="path-5_2_" class="st12" d="M-210.2,76.9l24.4-4.5l9.2,34.9l-19.7,8.4L-210.2,76.9z M-443,5.4l2.6,29.1l-17.4,17.1
								l-13.8-22.9L-443,5.4z"/>
						</g>
					</mask>
					<g id="Colors-_x2F_-Skin-_x2F_-Pink" class="st23">
						<g id="Color_2_" transform="translate(-4.807692, 0.975096)">
							<rect x="-472.2" y="114.3" class="st24" width="318.1" height="-108.6"/>
						</g>
					</g>
				</g>
				<g id="Pants-color" transform="translate(22.115385, 0.960962)">
					<g id="Mask_3_">
						<path id="path-7_1_" class="st16" d="M-310.7,329.4C-348.6,403.9-414,467-414,467l-58.5-85.5c0,0,77.9-67.4,114.7-216.4
							c-6.2-24.5-10.6-44.6-12.1-57.5c-5.1-42.3,20.5-70.8,27.3-77.6h3.1l76.9,0c1.6,6,8.2,39.8,5.9,89.7
							c6.8,22.3,14.7,49.1,24,81.4c52.5,183.6,76.8,264.5,76.8,264.5l-99.7,35.1C-255.5,500.6-284.2,416.1-310.7,329.4L-310.7,329.4
							z"/>
					</g>
					<defs>
						<filter id="Adobe_OpacityMaskFilter_3_" filterUnits="userSpaceOnUse">
							<feColorMatrix  type="matrix" values="1 0 0 0 0  0 1 0 0 0  0 0 1 0 0  0 0 0 1 0"/>
						</filter>
					</defs>
					<mask maskUnits="userSpaceOnUse" id="mask-8_1_">
						<g class="st25">
							<path id="path-7_2_" class="st12" d="M-310.7,329.7C-348.6,404.1-414,467.2-414,467.2l-58.5-85.5c0,0,77.9-67.4,114.7-216.4
								c-6.2-24.5-10.6-44.6-12.1-57.5c-5.1-42.3,20.5-70.8,27.3-77.6h3.1l76.9,0c1.6,6,8.2,39.8,5.9,89.7
								c6.8,22.3,14.7,49.1,24,81.4c52.5,183.6,76.8,264.5,76.8,264.5l-99.7,35.1C-255.5,500.8-284.2,416.3-310.7,329.7
								L-310.7,329.7z"/>
						</g>
					</mask>
					<g id="Colors-_x2F_-Wear-_x2F_-Dark-Plum_1_" class="st26">
						<g id="Color_3_" transform="translate(-2.884615, 0.000577)">
							<rect x="-472.2" y="500.9" class="st21" width="320" height="-470.9"/>
						</g>
					</g>
				</g>
				<g id="Overlay" transform="translate(129.448071, 0.961154)" class="st27">
					<path id="Fill-13_2_" class="st12" d="M-263.1,465.5l-99.7,35.1c0,0-30-88.4-57-177.1c-16.9-55.3-34-113.9-45.2-158.3
						c-6.2-24.5-10.6-44.6-12.1-57.5c-5.1-42.3,20.5-70.8,27.3-77.6h56.5c4.7,12.5,14.2,39.3,29.5,89.7c6.8,22.3,14.7,49.1,24,81.4
						C-287.5,384.6-263.1,465.5-263.1,465.5"/>
				</g>
			</g>
		</g>
		<g id="Girl-_x2F_-Body-_x2F_-1" transform="translate(102.000000, 169.000000)">
			<g id="Group-35" transform="translate(10.000000, 12.000000)">
				<path id="Fill-1_6_" class="st28" d="M-268.5,263.4c0,0-36.9-58.1-38.7-72.5c-1.9-15.3-0.2-35-0.2-35l24.9-14.6l6.3,36.3
					l26.9,83.1"/>
				<path id="Fill-8_1_" class="st28" d="M-466.3,260.1c0,0-1.2-84.2,4.3-98.1c5.4-13.9,15.3-32.5,15.3-32.5l29.1,19.2l-15.6,24.9
					l-10.8,85.1"/>
				<path id="Fill-10_1_" class="st29" d="M-333.4,65.2l4.4,122.8l-20.2-0.3l1.7-122l-0.7-0.5l0.7,0c0,0-11.5-11.7-15.9-16.1
					c2.9,0.2,5.8,0.4,8.7,0.6c7.7,0.4,14.3,0.7,20.1,1.1c0.7,1,2.3,3.6,2.1,7.8c-0.2,3.4-0.4,5.1-0.6,5.9
					C-333.2,65-333.3,65.1-333.4,65.2L-333.4,65.2z"/>
				<path id="Stroke-14" class="st30" d="M-383.2,116.1l-18.5,27.6"/>
				<g id="Shirt-color" transform="translate(116.000000, 18.477000)">
					<g id="Mask_4_">
						<polygon id="path-9_1_" class="st31" points="-480.4,170.4 -437.7,170.4 -437.7,39.3 -480.4,39.3 						"/>
					</g>
					<defs>
						<filter id="Adobe_OpacityMaskFilter_4_" filterUnits="userSpaceOnUse">
							<feColorMatrix  type="matrix" values="1 0 0 0 0  0 1 0 0 0  0 0 1 0 0  0 0 0 1 0"/>
						</filter>
					</defs>
					<mask maskUnits="userSpaceOnUse" id="mask-10_1_">
						<g class="st32">
							<polygon id="path-9_2_" class="st12" points="-480.5,170.1 -437.4,170.1 -437.4,39.1 -480.5,39.1 							"/>
						</g>
					</mask>
					<g id="Colors-_x2F_-Wear-_x2F_-Cream" class="st33">
						<g id="Color_4_" transform="translate(-12.000000, 3.523000)">
							<rect x="-479.8" y="165.9" class="st34" width="66.5" height="-127.3"/>
						</g>
					</g>
				</g>
				<g id="Skin-color_1_" transform="translate(0.000000, 8.000000)">
					<g id="Mask_5_">
						<path id="path-11_1_" class="st28" d="M-259,253.8l-19.7,8.2c0.1-3,0.5-5.8,1.6-8.3c2-4.7,12.8-6.1,12.8-6.1
							S-262.1,250.2-259,253.8L-259,253.8z M-252.9,260.9c3.5,4.1,6.6,7.9,7.2,9.1c1.5,3,4.4,17.7,4.2,20.6c-0.1,2.9-9,16-9,16
							c-5.5-1.3-1.9-8.1-1.9-8.1s-4.9,4.1-6.9,4c-19.2-0.6-18.2-10.2-17.7-11.4c1-2.7,6.2,0.4,6.2,0.4s-5-9.9-7-20.6L-252.9,260.9
							L-252.9,260.9z M-344.2,60.9c-16.6-1.5-24-15.3-26.7-20.5c5.9-0.1,11.6,0.6,17.1,0.9c11.1,0.6,19.5,0.9,26.5,2.2
							C-326.9,45.2-323.4,62.8-344.2,60.9z M-440,254.5l2.7,8.5c0,0,0.7,4.7,0.8,10.3c0.1,5.5,0.1,8.9,3.2,17.5
							c2.2,6-6.5,3.5-8.7,0.1c-2.3-3.5-2.3-17.2-6.8-14.8c-4.5,2.3-7.1,15.9-7.4,28.8c0,2-1.7,3.6-2.9,4.1c-1.8,0.8-3.7-7.4-3.7-7.4
							s-1.2,2.7-3.9,1.3c-1-0.5-3.4-6.2-3.4-6.2s-2-2.9-3-5.9c-1.6-5.4-2.4-15.4-1.8-18.2c0.9-3.6,3.2-10.3,5.2-15.7L-440,254.5z"/>
					</g>
					<defs>
						<filter id="Adobe_OpacityMaskFilter_5_" filterUnits="userSpaceOnUse">
							<feColorMatrix  type="matrix" values="1 0 0 0 0  0 1 0 0 0  0 0 1 0 0  0 0 0 1 0"/>
						</filter>
					</defs>
					<mask maskUnits="userSpaceOnUse" id="mask-12_1_">
						<g class="st35">
							<path id="path-11_2_" class="st12" d="M-259,253.8l-19.7,8.2c0.1-3,0.5-5.8,1.6-8.3c2-4.7,12.8-6.1,12.8-6.1
								S-262.1,250.2-259,253.8L-259,253.8z M-252.9,260.9c3.5,4.1,6.6,7.9,7.2,9.1c1.5,3,4.4,17.7,4.2,20.6c-0.1,2.9-9,16-9,16
								c-5.5-1.3-1.9-8.1-1.9-8.1s-4.9,4.1-6.9,4c-19.2-0.6-18.2-10.2-17.7-11.4c1-2.7,6.2,0.4,6.2,0.4s-5-9.9-7-20.6L-252.9,260.9
								L-252.9,260.9z M-344.2,60.9c-16.6-1.5-24-15.3-26.7-20.5c5.9-0.1,11.6,0.6,17.1,0.9c11.1,0.6,19.5,0.9,26.5,2.2
								C-326.9,45.2-323.4,62.8-344.2,60.9z M-440,254.5l2.7,8.5c0,0,0.7,4.7,0.8,10.3c0.1,5.5,0.1,8.9,3.2,17.5
								c2.2,6-6.5,3.5-8.7,0.1c-2.3-3.5-2.3-17.2-6.8-14.8c-4.5,2.3-7.1,15.9-7.4,28.8c0,2-1.7,3.6-2.9,4.1
								c-1.8,0.8-3.7-7.4-3.7-7.4s-1.2,2.7-3.9,1.3c-1-0.5-3.4-6.2-3.4-6.2s-2-2.9-3-5.9c-1.6-5.4-2.4-15.4-1.8-18.2
								c0.9-3.6,3.2-10.3,5.2-15.7L-440,254.5z"/>
						</g>
					</mask>
					<g id="Colors-_x2F_-Skin-_x2F_-Rose_1_" class="st36">
						<g id="Color_5_" transform="translate(-11.000000, -8.000000)">
							<rect x="-474" y="317.1" class="st14" width="251.7" height="-277.1"/>
						</g>
					</g>
				</g>
				<path id="Path" class="st29" d="M-443.8,292.6c0.5,2.5,1,4.9,1.8,6.1c2.2,3.4,10.9,5.8,8.7-0.1c-3.2-8.6-3.1-11.9-3.2-17.5
					c-0.1-5.5-0.8-10.3-0.8-10.3l-2.8-8.7l1-8.4l-35.6,2.9c0,0,1.2-74.1,15.6-114.4c12.6-35.3,35.6-73.6,53.6-84.7
					c1.1-0.7,2.1-1.3,3.2-1.9l-3.5-4.7l39-10.6c0,0-1.2,4.6,2.9,8.6c0.1,0.1,0.3,0.3,0.4,0.4c4.4,4.4,15.9,16.1,15.9,16.1l-0.7,0
					l1,0.5l-1.9,122v170.4l-102.2-3L-443.8,292.6L-443.8,292.6z"/>
				<path id="Stroke-6_3_" class="st37" d="M-267,273.1c0,0,2.7,10,12,13.2c3.2,1.1,2.4,14,10.4,12.5"/>
				<g id="Sleeve-color" transform="translate(4.000000, 226.000000)">
					<g id="Mask_6_">
						<path id="path-13_1_" class="st31" d="M-295,49l42.6-17.7l3.2,8.5L-292.5,57L-295,49z M-474.9,30.3l47.6-4.1v8.8l-47.5,3.7
							L-474.9,30.3z"/>
					</g>
					<defs>
						<filter id="Adobe_OpacityMaskFilter_6_" filterUnits="userSpaceOnUse">
							<feColorMatrix  type="matrix" values="1 0 0 0 0  0 1 0 0 0  0 0 1 0 0  0 0 0 1 0"/>
						</filter>
					</defs>
					<mask maskUnits="userSpaceOnUse" id="mask-14_1_">
						<g class="st38">
							<path id="path-13_2_" class="st12" d="M-295,49l42.6-17.7l3.2,8.5L-292.5,57L-295,49z M-474.8,30.3l48.1-4.1v8.9l-47.9,3.7
								L-474.8,30.3z"/>
						</g>
					</mask>
					<g id="Colors-_x2F_-Wear-_x2F_-Cream_1_" class="st39">
						<g id="Color_6_" transform="translate(-3.000000, -4.000000)">
							<rect x="-474.6" y="60.5" class="st34" width="228.9" height="-34.6"/>
						</g>
					</g>
				</g>
				<path id="Fill-12_1_" class="st29" d="M-245.3,256l-48,19.9l-19.4-180l-6.2-32.1l7.1-0.7l6.5-3.4c0.8,0.6,1.5,1.2,2.3,1.9
					c24.9,22.5,28.6,104.9,28.6,104.9L-245.3,256z"/>
				<path id="Fill-20" class="st29" d="M-293.2,276.4l-1.2,0.5l-18.9-62.4l5.7-25.6l-21.4-0.3l-4.4-122.8l0,0c0,0,0.1-0.2,0.3-0.7
					c0.2-0.8,0.4-2.5,0.6-5.9c0.2-4.2-1.4-6.8-2.1-7.8c-0.2-0.3-0.3-0.4-0.3-0.4l0.7-6.5l30.7,15l-1.6,0.8l-6.5,3.4l-7.1,0.7
					l6.2,32.1L-293.2,276.4z"/>
				<path id="Fill-21_1_" class="st29" d="M-333.5,65.4l0.3-0.7C-333.4,65.2-333.5,65.4-333.5,65.4"/>
				<polygon id="Fill-22" class="st29" points="-284.3,358.3 -323.1,358.3 -329.2,187.9 -307.7,188.2 -313.4,213.9 -294.4,276.4 
					-293.2,275.9 				"/>
				<path id="Stroke-24" class="st40" d="M-405.8,50.9c0,0,12.8,16.2,27.5,19.1c13.9,2.7,30.7-4.6,30.7-4.6"/>
				<path id="Stroke-25" class="st40" d="M-303.7,59c0,0-1.1,8-6.5,10.1c-9.3,3.5-21.5-4.3-21.5-4.3"/>
				<path id="Stroke-26" class="st41" d="M-293.2,276.1l-10.8-153"/>
				<path id="Fill-27" class="st42" d="M-315.9,130.1c-0.1,3.2-2.4,5.8-5.1,5.7c-2.7-0.1-4.8-2.8-4.7-6c0.1-3.2,2.4-5.8,5.1-5.7
					C-317.9,124.2-315.8,126.8-315.9,130.1"/>
				<path id="Fill-28" class="st42" d="M-318.4,87.1c-0.1,3.2-2.4,5.8-5.1,5.7c-2.7-0.1-4.8-2.8-4.7-6c0.1-3.2,2.4-5.8,5.1-5.7
					C-320.4,81.2-318.3,83.9-318.4,87.1"/>
				<path id="Fill-29" class="st42" d="M-313.5,173c-0.1,3.2-2.4,5.8-5.1,5.7c-2.7-0.1-4.8-2.8-4.7-6c0.1-3.2,2.4-5.8,5.1-5.7
					C-315.5,167.1-313.4,169.8-313.5,173"/>
				<polyline id="Stroke-32" class="st43" points="-383.2,110.3 -401.7,164.8 -410,250.8 -470.8,256.3 				"/>
				<path id="Stroke-33" class="st41" d="M-408.6,236.8l-54.9,4.8"/>
				<path id="Stroke-34" class="st41" d="M-293.2,263.4l35-15.6"/>
			</g>
		</g>
	</g>
	<g id="Person-_x2F_-Man-_x2F_-6" transform="translate(0.000000, 397.000000)">
		<g id="Man-_x2F_-Head-_x2F_-6" transform="translate(245.000000, 69.000000)">
			<g id="Group-30" transform="translate(38.000000, 45.000000)">
				<path id="Fill-1_7_" class="st8" d="M640.5,91.1c0,13.4-8.8,24.3-19.6,24.3c-10.8,0-19.6-10.9-19.6-24.3s8.8-24.3,19.6-24.3
					C631.8,66.8,640.5,77.7,640.5,91.1"/>
				<g id="Face-color_1_" transform="translate(0.000000, 29.963190)">
					<g id="Mask_7_">
						<path id="path-15_1_" class="st31" d="M594.3,157.4l-0.8-27.9c0,0,34.3,2.7,41.7-1.1c0,0,9-45.7-1.7-71l-0.2-1l-72.4-8.4
							l-4.1,41.1c-2.4-7.1-22.6-15.2-27.8-5c-11.4,22.1,29.4,36.9,29.4,36.9l-4.1,36.7"/>
					</g>
					<defs>
						<filter id="Adobe_OpacityMaskFilter_7_" filterUnits="userSpaceOnUse" x="526.5" y="47.7" width="112.1" height="110.5">
							<feColorMatrix  type="matrix" values="1 0 0 0 0  0 1 0 0 0  0 0 1 0 0  0 0 0 1 0"/>
						</filter>
					</defs>
					<mask maskUnits="userSpaceOnUse" x="526.5" y="47.7" width="112.1" height="110.5" id="mask-16_1_">
						<g class="st44">
							<path id="path-15_2_" class="st12" d="M594.3,157.4l-0.8-27.9c0,0,34.3,2.7,41.7-1.1c0,0,9-45.7-1.7-71l-0.2-1l-72.4-8.4
								l-4.1,41.1c-2.4-7.1-22.6-15.2-27.8-5c-11.4,22.1,29.4,36.9,29.4,36.9l-4.1,36.7"/>
						</g>
					</mask>
					<g id="Colors-_x2F_-Skin-_x2F_-Rose_2_" class="st45">
						<rect id="Color_7_" x="526.5" y="47.7" class="st34" width="112.1" height="110.5"/>
					</g>
				</g>
				<polygon id="Fill-5_1_" class="st46" points="593.1,159.5 569.9,154.6 593,170 				"/>
				<polygon id="Fill-7_3_" class="st31" points="611.9,118.3 619.9,137.6 610.4,137.7 				"/>
				<path id="Fill-9_2_" class="st47" d="M603.4,119.4c0.5,2.6-1.3,5.1-3.9,5.6c-2.6,0.5-5.2-1.3-5.6-3.9c-0.5-2.6,1.3-5.1,3.9-5.6
					C600.4,115,602.9,116.8,603.4,119.4"/>
				<path id="Fill-11_2_" class="st47" d="M630.3,119.4c0.5,2.6-1.3,5.1-3.9,5.6c-2.6,0.5-5.2-1.3-5.6-3.9c-0.5-2.6,1.3-5.1,3.9-5.6
					C627.3,115,629.8,116.8,630.3,119.4"/>
				<path id="Combined-Shape" class="st8" d="M562,126.2c-6.9-11.6-16.8-15.2-21.3-16.2c-1.8-5.1-3.1-11-4.1-17.2
					c-2.6-16.8,9.8-32.1,19.8-36.5c10.1-4.4,27.5-10.6,53-2.2c17.1,5.6,28.1-7.8,38.1-2.1c17.2,9.8,1.2,52.9-42.5,42
					c-31.2-7.8-32-5.9-32.3-0.2C571.9,112.1,569,122.9,562,126.2z"/>
				<g id="Group-21" transform="translate(75.201342, 94.601055)">
					<path id="Fill-18" class="st12" d="M523.4,44.2c0,0,3.1,5.5,9.7,5.4"/>
					<path id="Stroke-20" class="st48" d="M523.4,44.2c0,0,3.1,5.5,9.7,5.4"/>
				</g>
				<path id="Stroke-22" class="st48" d="M609.6,119.6c0,6-5,11-11.1,11c-6.1,0-11.1-4.9-11.1-11c0-6,5-11,11.1-11
					C604.7,108.7,609.6,113.6,609.6,119.6z"/>
				<path id="Stroke-24_1_" class="st48" d="M637.5,119.6c0,6-5,11-11.1,11c-6.1,0-11.1-4.9-11.1-11c0-6,5-11,11.1-11
					C632.6,108.7,637.5,113.6,637.5,119.6z"/>
				<path id="Stroke-26_1_" class="st48" d="M614.8,119.8h-4.7"/>
				<path id="Stroke-28" class="st48" d="M587.3,119.8h-27.5"/>
			</g>
		</g>
		<g id="Man-_x2F_-Legs-_x2F_-6" transform="translate(53.000000, 249.000000)">
			<g id="Group-23_1_" transform="translate(149.000000, 180.241620)">
				<g id="Shoes" transform="translate(0.000000, 461.395360)">
					<g id="Mask_8_">
						<path id="path-17_1_" class="st47" d="M704.4,15.4l-0.3,22.9c0,0,52,8.1,69.7,27.7H670.1l4.3-65.4L704.4,15.4z M571.4,13.5
							l-0.3,25.7c0,0,21.9,2.8,30.8,26.8H531l5.2-28.2l15.7-8.6L571.4,13.5z"/>
					</g>
					<defs>
						<filter id="Adobe_OpacityMaskFilter_8_" filterUnits="userSpaceOnUse" x="522" y="33.2" width="250.7" height="35.6">
							<feColorMatrix  type="matrix" values="1 0 0 0 0  0 1 0 0 0  0 0 1 0 0  0 0 0 1 0"/>
						</filter>
					</defs>
					<mask maskUnits="userSpaceOnUse" x="522" y="33.2" width="250.7" height="35.6" id="mask-18_1_">
						<g class="st49">
							<path id="path-17_2_" class="st12" d="M704,15.2l-0.3,22.9c0,0,52,8.1,69.7,27.7H669.8l4.3-65.4L704,15.2z M571.3,13.3
								L571,39c0,0,21.9,2.8,30.8,26.8h-70.9l5.2-28.2l15.7-8.6L571.3,13.3z"/>
						</g>
					</mask>
					<g id="Colors-_x2F_-Skin-_x2F_--Light-Blue" class="st50">
						<g id="Color_8_" transform="translate(-9.070866, 34.938467)">
							<rect x="531.1" y="-1.7" class="st51" width="250.7" height="35.6"/>
						</g>
					</g>
				</g>
				<g id="Leg-skin" transform="translate(5.039370, 465.208154)">
					<g id="Mask_9_">
						<path id="path-19_1_" class="st52" d="M669.4,2.5l29.9,8.9L699,34.3L667,32.9L669.4,2.5z M536.4,0.6l29.9,8.9l-0.3,25.7
							l-34.9-1.4L536.4,0.6z"/>
					</g>
					<defs>
						<filter id="Adobe_OpacityMaskFilter_9_" filterUnits="userSpaceOnUse" x="525.5" y="-6.2" width="172.8" height="56.2">
							<feColorMatrix  type="matrix" values="1 0 0 0 0  0 1 0 0 0  0 0 1 0 0  0 0 0 1 0"/>
						</filter>
					</defs>
					<mask maskUnits="userSpaceOnUse" x="525.5" y="-6.2" width="172.8" height="56.2" id="mask-20_1_">
						<g class="st53">
							<path id="path-19_2_" class="st12" d="M669.1,2.5l29.9,8.9l-0.3,22.9l-32.1-1.4L669.1,2.5z M536.3,0.6l29.9,8.9L566,35.2
								L531,33.8L536.3,0.6z"/>
						</g>
					</mask>
					<g id="Colors-_x2F_-Skin-_x2F_-Pink_1_" class="st54">
						<g id="Color_9_" transform="translate(-5.039370, -7.028378)">
							<rect x="530.6" y="0.8" class="st55" width="172.8" height="56.2"/>
						</g>
					</g>
				</g>
				<g id="Pants" transform="translate(1.007874, 0.000000)">
					<g id="Mask_10_">
						<path id="path-21_1_" class="st56" d="M706.9,468.7l-0.7,21.3h-39.5l0.7-21.3c-4.4-1.8-7.6-6-7.7-10.9l-6.4-318.5l-68.7,321.5
							c-1,4.5-4.4,8-8.7,9.3l-2.6,19.9H532l3.6-21.9c-3.4-2.6-5.4-7-4.8-11.6l63.2-426.1h57.6l0,0.9h68.8l-4.1,425.9
							C716.2,462.7,712.3,467.4,706.9,468.7z"/>
					</g>
					<defs>
						<filter id="Adobe_OpacityMaskFilter_10_" filterUnits="userSpaceOnUse" x="529.6" y="31.2" width="190.9" height="461.6">
							<feColorMatrix  type="matrix" values="1 0 0 0 0  0 1 0 0 0  0 0 1 0 0  0 0 0 1 0"/>
						</filter>
					</defs>
					<mask maskUnits="userSpaceOnUse" x="529.6" y="31.2" width="190.9" height="461.6" id="mask-22_1_">
						<g class="st57">
							<path id="path-21_2_" class="st12" d="M707.3,469.1l-0.7,21.2h-39.5l0.7-21.3c-4.4-1.7-7.6-6-7.7-10.9l-6.4-318.2
								l-68.6,321.3c-1,4.5-4.4,8-8.7,9.3l-2.6,19.9h-41.4l3.6-21.9c-3.4-2.6-5.4-7-4.8-11.6L594.5,31l57.1,0l0-0.2h69.2l-4.1,426.7
								C716.6,463.1,712.6,467.8,707.3,469.1z"/>
						</g>
					</mask>
					<g id="Colors-_x2F_-Wear-_x2F_-Cream_2_" class="st58">
						<g id="Color_10_" transform="translate(-1.007874, 1.335234)">
							<rect x="530.6" y="29.8" class="st21" width="190.9" height="461.6"/>
						</g>
					</g>
				</g>
				<polygon id="Fill-15_2_" class="st59" points="654.5,144.9 666.6,92 657.5,252.5 				"/>
				<g id="Pants-line" transform="translate(7.055118, 1.335234)">
					<g id="Mask_11_">
						<polygon id="path-23_1_" class="st60" points="603.3,30.1 609.9,31.2 537.6,465.1 531,464 						"/>
					</g>
					<defs>
						<filter id="Adobe_OpacityMaskFilter_11_" filterUnits="userSpaceOnUse" x="528.3" y="29.8" width="81.7" height="435.3">
							<feColorMatrix  type="matrix" values="1 0 0 0 0  0 1 0 0 0  0 0 1 0 0  0 0 0 1 0"/>
						</filter>
					</defs>
					<mask maskUnits="userSpaceOnUse" x="528.3" y="29.8" width="81.7" height="435.3" id="mask-24_1_">
						<g class="st61">
							<polygon id="path-23_2_" class="st12" points="603.3,30.1 609.9,31.2 537.6,465.1 531,464 							"/>
						</g>
					</mask>
					<g id="Colors-_x2F_-Wear-_x2F_-White" class="st62">
						<g id="Color_11_" transform="translate(-2.015748, 0.000000)">
							<rect x="530.3" y="29.8" class="st63" width="81.7" height="435.3"/>
						</g>
					</g>
				</g>
			</g>
		</g>
		<g id="Man-_x2F_-Body-_x2F_-6" transform="translate(186.000000, 212.000000)">
			<g id="Group-18">
				<g id="Skin-color_2_" transform="translate(0.155800, 0.000000)">
					<g id="Mask_12_">
						<path id="path-25_1_" class="st31" d="M832.7,102.3l-0.5-8.1c0,0,0-5.6,0.8-11.7c0.7-6.1,5-13.2,0.5-24
							c-4.5-10.7,6.3-3.3,8.7,1.8c2,4.2,0.9,13.2,3.4,16.4c2.1-1.1,3.4-2.6,3.4-2.6l23.3-29.6c0.8-1,2.1-1.3,3.2-0.7l1.3,0.7
							c1.3,0.7,1.7,2.4,0.9,3.6c-4.5,6.5-18.6,25.7-18.3,25.9l0.6,0.7l27.4-28.3c0.9-0.9,2.3-1.1,3.3-0.4l1.6,1.1
							c1.2,0.8,1.5,2.4,0.6,3.5c-5.4,6.9-25.9,28.8-25.5,29l0.8,0.8l25.5-22c0.9-1,2.4-1.1,3.5-0.3l1.2,1c1.1,0.9,1.3,2.4,0.4,3.5
							l-24.1,22.2l0.7,1.1l20.9-14.4c1-0.8,2.4-0.8,3.4,0l0.6,0.5c1,0.9,1.1,2.4,0.2,3.5c-3.1,3.5-12.6,9.5-20,16.8
							c-5.8,5.7-8.6,11.1-16.7,17.5c-3.4,2.7-6.5,4.1-9.4,5.6L832.7,102.3z M644.9,83.8c0,0,16.1,0,27.7-0.1
							c11.6,0,26.2,4.8,26.2,4.8s7.6,16.8-18.8,15.3C653.6,102.3,644.9,83.8,644.9,83.8z M531.7,211.2
							c-0.6-21.2,25.2-59.3,25.2-59.3l45.1,19.8l-18.6,38.9l51,70.1l-21,16.9C613.4,297.5,532.4,236.1,531.7,211.2z"/>
					</g>
					<defs>
						<filter id="Adobe_OpacityMaskFilter_12_" filterUnits="userSpaceOnUse" x="587.2" y="43.4" width="314.3" height="266.8">
							<feColorMatrix  type="matrix" values="1 0 0 0 0  0 1 0 0 0  0 0 1 0 0  0 0 0 1 0"/>
						</filter>
					</defs>
					<mask maskUnits="userSpaceOnUse" x="587.2" y="43.4" width="314.3" height="266.8" id="mask-26_1_">
						<g class="st64">
							<path id="path-25_2_" class="st12" d="M832.7,102.3l-0.5-8.1c0,0,0-5.6,0.8-11.7c0.7-6.1,5-13.2,0.5-24
								c-4.5-10.7,6.3-3.3,8.7,1.8c2,4.2,0.9,13.2,3.4,16.4c2.1-1.1,3.4-2.6,3.4-2.6l23.3-29.6c0.8-1,2.1-1.3,3.2-0.7l1.3,0.7
								c1.3,0.7,1.7,2.4,0.9,3.6c-4.5,6.5-18.6,25.7-18.3,25.9l0.6,0.7l27.4-28.3c0.9-0.9,2.3-1.1,3.3-0.4l1.6,1.1
								c1.2,0.8,1.5,2.4,0.6,3.5c-5.4,6.9-25.9,28.8-25.5,29l0.8,0.8l25.5-22c0.9-1,2.4-1.1,3.5-0.3l1.2,1c1.1,0.9,1.3,2.4,0.4,3.5
								l-24.1,22.2l0.7,1.1l20.9-14.4c1-0.8,2.4-0.8,3.4,0l0.6,0.5c1,0.9,1.1,2.4,0.2,3.5c-3.1,3.5-12.6,9.5-20,16.8
								c-5.8,5.7-8.6,11.1-16.7,17.5c-3.4,2.7-6.5,4.1-9.4,5.6L832.7,102.3z M644.9,83.8c0,0,16.1,0,27.7-0.1
								c11.6,0,26.2,4.8,26.2,4.8s7.6,16.8-18.8,15.3C653.6,102.3,644.9,83.8,644.9,83.8z M531.7,211.2
								c-0.6-21.2,25.2-59.3,25.2-59.3l45.1,19.8l-18.6,38.9l51,70.1l-21,16.9C613.4,297.5,532.4,236.1,531.7,211.2z"/>
						</g>
					</mask>
					<g id="Colors-_x2F_-Skin-_x2F_-Rose_3_" class="st65">
						<g id="Color_12_" transform="translate(58.844200, 0.000000)">
							<rect x="528.4" y="43.4" class="st34" width="314.3" height="266.8"/>
						</g>
					</g>
				</g>
				<g id="Sweater-color" transform="translate(-0.000228, 42.747801)">
					<g id="Mask_13_">
						<path id="path-27_1_" class="st66" d="M628.5,207.5l12.5,16.6l-37.8,32.5c0,0-69.4-50.1-71.5-89.4
							c-1.4-25,20.8-60.7,20.8-60.7s27.9-43.9,60.1-58.7c6.6-3,22.6-5.6,32.4-6.6c3-0.3,1.2,0.8,2.2,2.8c1.1,2,4.3,5,6.6,7.3
							c4.7,4.7,13.9,8.2,18.9,8.9c3.8,0.6,11.1,1.4,14.6,0.9c3.5-0.5,7.3-2,8.4-3c1-0.9,2.5-2.1,3.3-3.9c0.8-1.8,0.7-1.3,0.7-2.9
							s-0.1-1.4-0.3-2.2c-0.2-0.8-0.2-1.3-0.3-1.7c-0.4-1.8-0.2-1.6-0.2-1.6c19,5.7,28.7,7.8,35.6,16l53,36.6l36.2-46.6l46.8,30.9
							c0,0-41.4,76-71.4,84.4c-24.2,6.8-48.6-14.3-57.3-22.7l10.2,51.2c1.6,8.8-6.2,12.2-13.2,11.9L628.5,207.5z"/>
					</g>
					<defs>
						<filter id="Adobe_OpacityMaskFilter_13_" filterUnits="userSpaceOnUse" x="531.4" y="40.9" width="339" height="216.3">
							<feColorMatrix  type="matrix" values="1 0 0 0 0  0 1 0 0 0  0 0 1 0 0  0 0 0 1 0"/>
						</filter>
					</defs>
					<mask maskUnits="userSpaceOnUse" x="531.4" y="40.9" width="339" height="216.3" id="mask-28_1_">
						<g class="st67">
							<path id="path-27_2_" class="st12" d="M628.5,207.4L641,224l-37.8,32.5c0,0-69.4-50.1-71.5-89.4c-1.4-25,20.8-60.7,20.8-60.7
								s27.9-43.9,60.1-58.7c6.6-3,22.6-5.6,32.4-6.6c3-0.3,1.2,0.8,2.2,2.8c1.1,2,4.3,5,6.6,7.3c4.7,4.7,13.9,8.2,18.9,8.9
								c3.8,0.6,11.1,1.4,14.6,0.9c3.5-0.5,7.3-2,8.4-3c1-0.9,2.5-2.1,3.3-3.9c0.8-1.8,0.7-1.3,0.7-2.9s-0.1-1.4-0.3-2.2
								c-0.2-0.8-0.2-1.3-0.3-1.7c-0.4-1.8-0.2-1.6-0.2-1.6c19,5.7,28.7,7.8,35.6,16l53,36.6l36.2-46.6l46.8,30.9
								c0,0-41.4,76-71.4,84.4c-24.2,6.8-48.6-14.3-57.3-22.7l10.2,51.2c1.6,8.8-6.2,12.2-13.2,11.9L628.5,207.4z"/>
						</g>
					</mask>
					<g id="Colors-_x2F_-Wear-_x2F_-Green" class="st68">
						<g id="Color_13_" transform="translate(0.000228, 0.000000)">
							<rect x="531.4" y="40.9" class="st69" width="339" height="216.3"/>
						</g>
					</g>
				</g>
				<polygon id="Fill-9_3_" class="st70" points="741.7,187.1 735.4,162.5 752.5,196.2 				"/>
				<polyline id="Stroke-16" class="st71" points="623.8,244.2 594.3,202.9 629.9,149.7 				"/>
			</g>
		</g>
	</g>
</g>
<g id="Layer_2">
	<desc>Created with Sketch.</desc>
	<g id="Background-Object-_x2F_-Streetlight-_x2F_-1_1_" transform="translate(826.000000, 4.000000)">
		<g id="Group-11_1_" transform="translate(300.000000, 91.000000)">
			<polygon id="Fill-1_11_" class="st5" points="264.2,184.2 249,184.2 249,922.4 264.2,922.4 			"/>
			<path id="Fill-2_2_" class="st0" d="M420.6,203.2c-5,1.8-10.5-1.2-12.2-6.7c-1.8-8.9-13-28.4,0.1-33L528.8,120
				c5-1.8,10.5,1.2,12.2,6.7c1.8,8.9,13,28.4-0.1,33L420.6,203.2"/>
			<polygon id="Fill-4_4_" class="st3" points="286,951.4 228.1,951.4 228.1,1196.1 286,1196.1 			"/>
			<polygon id="Fill-6_2_" class="st3" points="273.7,913.1 240.5,913.1 240.5,997.1 273.7,997.1 			"/>
			<polygon id="Fill-7_6_" class="st3" points="270.8,166.6 243.3,166.6 243.3,201.8 270.8,201.8 			"/>
			<path id="Stroke-8_4_" class="st7" d="M256.9,314.1c0-120,204.5-169.3,204.5-169.3"/>
			<path id="Fill-9_6_" class="st3" d="M407.2,189.8c-13.3,4.9-26.9-4.8-29.7-19.6c-3.9-12.9,2.5-26.9,14.3-31.2
				c0,0,131.8-47.7,131.8-47.7C552,81,567.7,131.7,539,142.1L407.2,189.8"/>
		</g>
	</g>
</g>
</svg>
